<svg xmlns="http://www.w3.org/2000/svg" xmlns:xlink="http://www.w3.org/1999/xlink" viewBox="0 0 612 427"><defs><linearGradient id="linear-gradient" x1="6.15" y1="214.8" x2="595.44" y2="214.8" gradientUnits="userSpaceOnUse"><stop offset="0"/><stop offset="1" stop-color="#701e00"/></linearGradient><linearGradient id="linear-gradient-2" x1="70.45" y1="446.1" x2="545.95" y2="-29.4" xlink:href="#linear-gradient"/><linearGradient id="linear-gradient-3" x1="20.42" y1="205.52" x2="598.96" y2="205.52" gradientUnits="userSpaceOnUse"><stop offset="0" stop-color="#ff4d1a"/><stop offset="1" stop-color="#ffa600"/></linearGradient><linearGradient id="linear-gradient-4" x1="79.25" y1="437.32" x2="542.39" y2="-25.82" gradientUnits="userSpaceOnUse"><stop offset="0" stop-color="#7a2300"/><stop offset="1" stop-color="#d45104"/></linearGradient><linearGradient id="linear-gradient-5" x1="81.99" y1="434.2" x2="540.72" y2="-24.52" gradientUnits="userSpaceOnUse"><stop offset="0" stop-color="#97390e"/><stop offset="1" stop-color="#ee7c3e"/></linearGradient><style>.cls-7{fill:#d76633}.cls-8{fill:#f4825c}.cls-9{fill:#ff8d65}.cls-10{fill:#ba9d68;mix-blend-mode:multiply;fill-rule:evenodd}.cls-11,.cls-12,.cls-13{fill-rule:evenodd;fill:#f2d391}.cls-12,.cls-13{mix-blend-mode:screen}.cls-13{opacity:.5}</style></defs><g style="isolation:isolate"><g id="rip"><path d="M593.9 388.76c0 12.29-9.18 22.26-20.5 22.26l-22.95 2-9.51-4.41-3.57 2.39h-46.54l-8-2.5-10.9 2.5-72 2.24-35.6-2.24-11.93-3.49-5.52 3.49-40 2.77-41.42-2.77-5.82-2.5-7.27 2.5h-62.52l-13.63-1.38-6 1.38h-57.44l-5.81 2.5L99 411l-59.62-2.5-9.47 2.5c-11.32 0-20.49-10-20.49-22.26l1.76-8.47-1.76-4.41V323l2.79-13.43-2.79-15-3.27-44.5 6.6-23.75-3.33-11.52v-82.91l2.79-7.11-2.79-10.27-1.64-32.18 1.64-40.55c0-12.3 9.17-22.26 20.49-22.26l9-1.07 13.56 1.07H72.8l4.36 3.13 3.64-3.13 21.32-1.87L147 19.52h42.17l12.36 3.13 8-3.13h93.78l41.89-2.12 32.95 2.12 5.85 3.13 10.91-3.13h44.35l12.35 2.35 7.28-2.35 39-3.7 61.66 7.24 13.87-3.54c11.32 0 20.5 10 20.5 22.26v40.36L590.44 90l3.46 7.89 1.54 21.42-1.54 67v45.8l-2.7 14 2.7 7.33V319l1.3 18.78-1.3 7.28Z" style="opacity:.54;fill:url(#linear-gradient)"/><path d="M600.44 381.84c0 12.29-9.18 22.26-20.5 22.26l-23 2-9.51-4.41-3.57 2.43h-46.48l-8-2.5-10.91 2.5-72 2.24-35.63-2.24-11.93-3.48-5.51 3.48-40 2.77-41.4-2.79-5.82-2.5-7.27 2.5h-62.52l-13.63-1.38-6 1.38h-57.43l-5.82 2.5-8-2.5-59.61-2.5-9.45 2.5c-11.32 0-20.49-10-20.49-22.26l1.76-8.47L16 369v-52.9l2.79-13.42-2.79-15-3.27-44.48 6.57-23.8-3.3-11.52V125l2.79-7.11-2.79-10.3-1.67-32.18L16 34.86c0-12.3 9.17-22.26 20.49-22.26l9-1.07L59 12.6h20.34l4.36 3.13 3.64-3.13 21.32-1.87 44.83 1.87h42.17L208 15.73l8-3.13h93.8l41.94-2.12 32.95 2.12 5.81 3.13 10.91-3.13h44.35l12.35 2.4 7.28-2.35 39-3.7 61.66 7.24 13.87-3.54c11.32 0 20.5 10 20.5 22.26v40.31l-3.42 7.9 3.44 7.88 1.56 21.43-1.54 67v45.8l-2.7 14 2.7 7.33v65.54l1.3 18.78-1.3 7.28Z" style="fill:url(#linear-gradient-2)"/><path d="M597.45 375c0 12-9 21.68-20.13 21.68l-22.53 1.93-9.34-4.3-3.51 2.37h-45.68l-7.85-2.43-10.71 2.43-70.7 2.14-35-2.18-11.72-3.4-5.41 3.4-39.26 2.69-40.61-2.69-5.71-2.43-7.14 2.43h-61.38l-13.39-1.34-5.89 1.34h-56.38l-5.71 2.44-7.86-2.44L53 394.21l-9.27 2.43c-11.12 0-20.13-9.71-20.13-21.68l1.73-8.25-1.73-4.29v-51.54l2.75-13.07-2.75-14.62-3.2-43.33 6.48-23.13-3.28-11.22v-80.76l2.75-6.92-2.75-10L22 76.48 23.62 37c0-12 9-21.69 20.13-21.69l8.8-1 13.31 1h20l4.28 3.06 3.57-3.06 20.94-1.81 44 1.81h41.4l12.14 3.06 7.81-3.08h92.07l41.17-2.06 32.35 2.06 5.71 3.06 10.71-3.06h43.54l12.12 2.3 7.15-2.3 38.31-3.59 60.53 7 13.62-3.45c11.12 0 20.13 9.71 20.13 21.69v39.35L594.05 84l3.4 7.7 1.55 20.84-1.51 65.28v44.61l-2.65 13.62 2.65 7.15V307l1.27 18.29-1.27 7.09Z" style="fill:url(#linear-gradient-3)"/><path d="m596.63 242.75-2-5.28-9.6-6.28-14.54-1.32-3.39 4.74-3.88 13.69-6.02-1.3-6.78-9.73-6.79.52 9-2.63 4.84 9.21 3.64 1.06 2.89-10.29 3.63-5.27-4.6-2.1 5.09-1.58h15.27l6 2.37 3.88-.53 2.82-3.33.5-2.59v-44.34l1.51-64.87-1.51-20.73-2.19-5-4.52-2.36-9 1.57-1.88 6.1-16.72 16.58v2.37L545.57 122l14.3-11.32.72-2.9 3.4-4.34h-5.09l-9.9 3.25 10.67-5.53h4.84L574.89 92l2.18-7.1-7.27 2.1-12.11-9.74-12.12-7.37h-6.06l8.73-1.58 9.45 5.79 6.06 4 2.42-.79 6.3 5 16.24-3.16L594 75.9l1.4-7.64 1.19-1.35v-29.1c0-11.9-9-21.55-20-21.55L563 19.69l-60.3-7-38.17 3.58-7.12 2.28-12.07-2.28H402l-4.42 1.26-3 4.42-1.94 5.26 6.3 6.32-1 7.9-5.34 1-7.27 1.58-2.91 3.42 3.16-5.53 4.6-.79 3.64-1.84 1.81-3.69V33l-5.21-4.8-1-5.73 1.58-3.35-5.36-2.86-32.22-2.05-41 2.05h-91.75l-7.82 3-12.09-3h-41.24l-43.85-1.8-20.85 1.8-.74.63 1.77 7.35v5.13l5.63 4.74 5.45 2.37 2.18 7.5-2.9-5.92-5.46-2.37-5.08-4.54-1.67.79-1.09 3.55-2.18 2.57.72-3.55L94 30.36v-5.72l-2.18-3.56-4.52-4.61-.3-.21H67.09l-13.27-1-8.77 1c-11.07 0-20 9.65-20 21.55l-1.6 39.26L25 108.22l2.24 8.13L38.41 120l5.45-2.17L59.13 120l7.45 2-22.72-2.57-3.27 2.57 5.64 1.18 5.63 5.53 14.72 2.57-16-1.19-5.45-5.72-18.43-3.59L25 125v80.26l2.88 9.84 4-.33 4-2.43h20l-19.83 2.46-2.91 2.31-5.33 1-6 21.34L25 282.49 27.74 297 25 310v51.21l1.53 3.79 7-2.6.37-2 19.63-7.7-17.81 7.7v2.37L26.4 367l-1.4 6.69c0 11.9 9 21.55 20 21.55l8.23-2.16 4.22-6.79 4.18-3.36 10.77-14.21-9.09 15-3.45 2.17-3.81 7 56.54 2.35 7.82 2.42 5.69-2.42h56.17l5-1.15 1.4-5-1.81-1.58-1.64-4.34V379l-5.22-4.95-3.27-7.3 4.54 6.71 4.55 3.35 1.09-3.15 1.81-2.57s-2.18 6.51-2 11.45l2 2.76 1.09 1.38 3.64-8.09-3.45 15.49 11.51 1.16h61.15l7.11-2.42 5.69 2.42 40.54 2.67 39.1-2.67 5.37-3.36-.66-2.43-5.28-2.17-7.27-4.74-7.32-2.54 8.55 1.78 6.51 3.92 4.91 2-.55-4.93.73-2.77-.73-4 2.73 7.51 5.8 10.49 4.23 1.23L407 397.4l70.39-2.16 10.61-2.42 7.82 2.42h44.05l-3.11-4.81-6.72-.19-2.54-1.58-6-1-8.73-8.29 8.55 6.32h12l-10.72-10.86-17.6-15.78-2.55.19-10.36-7.89 11.09 6.32h2.73l16.17 12-4.72-9.87 6.72 10.46v2.37l11.27 12.43 4.73 1 10.11 9.23 4 1.83 22.45-1.91c11.07 0 20-9.65 20-21.55v-42.25l1.27-7-1.27-18.18Z" style="fill:url(#linear-gradient-4)"/><path d="m595.08 241.36-2-5.21-9.48-6.15-14.43-1.3-3.37 4.68-3.8 13.46-6-1.3-6.74-9.61-6.74.52 8.9-2.6 4.82 9.1 3.6 1 2.89-10.14 3.61-5.2-4.57-2.07 5-1.56h15.16l6 2.34 3.85-.52 2.8-3.3.5-2.55v-43.72l1.5-64-1.5-20.46-2.18-4.89-4.49-2.33-8.9 1.55-1.92 6L561 109.4v2.34l-16.6 10.39L558.58 111l.72-2.86 3.37-4.29h-5l-9.86 3.25 10.58-5.46h4.81l10.35-9.09 2.16-7-7.21 2.07-12-9.61-12-7.27h-6l8.5-1.61 9.38 5.71 6 3.9 2.41-.78 6.25 4.94 16.12-3.12 5.29-3.12 1.39-7.53 1.19-1.34V39.07c0-11.75-8.91-21.28-19.9-21.28l-13.47 3.39-59.86-6.92-37.8 3.53-7.06 2.26-12-2.26h-43.09L397.46 19l-2.95 4.37-1.92 5.19 6.25 6.24-1 7.79-5.29 1-7.22 1.56-2.89 3.38 3.13-5.46 4.57-.78 3.61-1.81 1.81-3.64v-2.6l-5.18-4.74-1-5.65 1.48-3.3-5.32-2.83-32-2-40.72 2h-90.96l-7.76 3-12-3h-40.94L117.63 16l-20.7 1.78-.73.62 1.8 7.27v5.07l5.59 4.67 5.41 2.34 2.16 7.41-2.88-5.85-5.46-2.31-5-4.48-1.62.78-1.09 3.51-2.21 2.5.72-3.51 2.53-4.09v-5.65L94 22.55 89.46 18l-.29-.21H69.4l-13.16-1-8.71 1c-11 0-19.9 9.53-19.9 21.28l-1.58 38.75 1.58 30.75 2.22 8 11.09 3.59 5.41-2.16 15.15 2.14 7.4 1.95-22.55-2.49-3.25 2.53 5.59 1.17 5.6 5.45 14.61 2.54-15.9-1.17-5.41-5.65-18.29-3.54-1.69 4.24v79.22l2.86 9.71 3.95-.32 4-2.4h19.84l-19.67 2.4-2.89 2.27-5.29 1-5.95 21.07 3.17 42.51 2.72 14.33-2.72 12.83v50.55l1.52 3.66 6.91-2.56.37-2 19.48-7.6-17.68 7.6v2.34L29 364.06l-1.39 6.56c0 11.74 8.91 21.27 19.9 21.27l8.16-2.13 4.19-6.71 4.14-3.31 10.65-14-9 14.81-3.43 2.15-3.78 6.9 56.12 2.32 7.77 2.39 5.65-2.39h55.76l5-1.14 1.4-5-1.81-1.57-1.62-4.28v-4.09l-5.22-4.84-3.25-7.21 4.51 6.63 4.51 3.31 1.08-3.12 1.81-2.53s-2.17 6.43-2 11.3l2 2.73 1.08 1.37 3.61-8-3.46 15.29 11.42 1.14h60.71l7.05-2.39 5.65 2.39 40.23 2.64 38.83-2.64 5.32-3.32-.66-2.4-5.23-2.19-7.22-4.68-7.21-2.53 8.48 1.75 6.49 3.9 4.87 1.95-.54-4.87.72-2.73-.72-3.9 2.71 7.41 5.72 10.38 4.19 1.21 34.6 2.11 69.88-2.14 10.59-2.39 7.76 2.39h43.73l-3.08-4.74L529 387l-2.52-1.56-6-1-8.66-8.18 8.48 6.23h11.91l-10.65-10.72-17.5-15.59-2.52.2-10.29-7.8 11 6.24H505l16 11.89-4.69-9.75 6.69 10.31v2.34l11.18 12.28 4.7 1L549 392l3.95 1.81 22.28-1.89c11 0 19.9-9.53 19.9-21.27v-41.76l1.26-6.95-1.31-17.94Z" style="fill:url(#linear-gradient-5)"/><path class="cls-7" d="m34.47 293.84-1.69-4.48s0-3.95 3.88 0 1.93 4.48 1.93 4.48l-1.69 1.31ZM34.72 298.57l-1 2.37h3.18s.73-3.42-2.18-2.37ZM47.32 300.94s-3.39-.26-2.43 3.42 3.64-.52 2.43-3.42ZM31.32 351.48a3.4 3.4 0 0 1 0 4.21c-1.69 2.11-2.9-.79 0-4.21ZM41 217l-1.94 1.84S46 219.15 41 217ZM60.4 340.43l-1.93 3.16s7.02-.53 1.93-3.16ZM125.11 389.12h-4.36l-2.18-3.95 6.54-6.58 3.88 2.63s1.21 6.58-3.88 7.9ZM120 378.59l3.82-4.73s-2.35-5.01-3.82 4.73ZM332.55 380.7v5s3.15 2.1 3.88 0 1.7-7.63-3.88-5ZM327.71 383.86v2.78L325 387.8s-.69-5.8 2.71-3.94Z"/><path class="cls-8" d="m488.14 386.64 3.15 1.16 1.21-1.16s-4.64-7.58-4.36 0ZM485.23 385.54 484 380h-3.63s-3.88-.42-1.7 2.77 1.33-2.17 6.56 2.77ZM469.23 367.8s-1.45 3.95 1.46 4.48 2.18-2.24 2.18-2.24-.49-5.13-3.64-2.24ZM478 369.63l-1.27 2.71 1.27 2.3s2.5-3.97 0-5.01ZM445.48 382.76v2.78l4.85.11s.24-3.2-4.85-2.89ZM530.54 308.05s-2.18 3.95 1.94 5.27 3.15 7.37 4.61 0-2.18-13.95-6.55-5.27ZM538.78 316.9s-1 3.79-3.15 4.84.73 4.47 3.15 2.63 2.98-7.17 0-7.47ZM534.87 331.22a3 3 0 0 0 0 4.21c1.98 2.36 3.35-2.9 0-4.21ZM592.34 324.91a4 4 0 0 1-4.6 0c-2.67-1.59 1.86-3.98 4.6 0Z"/><path class="cls-9" d="M556.72 124.07s-2.91-1.06-3.15 3.16 2.18 2.36 3.15-3.16ZM548.72 132.49s3.39-.53 2.42 2.11-2.66 4.21-2.42-2.11ZM556.72 129.53s-.28 4.94-3.17 7.37 1.23 2.43 3.17 2.43 6.28-9.86 0-9.8ZM569.56 24.57S563 25.1 563 28s3.88 5.53 6.54.79c.02-.01-3.82.84.02-4.22ZM574.17 24.57s-4.61 1.32-1.7 2.11 5.33-.53 1.7-2.11ZM569.56 39.31s-.72 4.21 1 4.21 2.15-2.63-1-4.21ZM452.27 25.74s-8-4.64-13.09 1.17 7 6.82 13.09 4.48c0 0-7.51-6.05 0-5.65Z"/><path class="cls-7" d="M69.86 21.68s-5.82-3.95-6.79 0 6.06 6.05 8 3.42 5.59-4.81-1.21-3.42ZM63 29.57s-4 1.58-1.14 3.43S67 32.21 63 29.57ZM36.9 129.07s-2.91 2.63 0 4.74 6.78-.27 0-4.74Z"/><path class="cls-10" d="M112.46 378.52c107.31-2.53 353.18-4.07 450.2.4 2.22.1 5.14.33 6.76-1.07s1.5-4 1.53-6.09c.11-6.74.55-14.48.25-19.86l-21.47-1.77 21.12-4.61q-2.94-55.22-4.05-111.08l-11.45-3.67 11.32-3.48c-.89-53 3.3-102.44 5.33-155.26a183.29 183.29 0 0 0-20-34.71 7.16 7.16 0 0 0-6.38-3.3c-42.87 3.55-403.2 7.44-480.51 3.88a7.39 7.39 0 0 0-7.67 7.1c-.4 15.55 1.45 25.65 2 40.46l8.32 4.84L64 94.83l.68 3.5-4.69 3q2.69 82.7-.55 164.74l6.28 3-3.14 5.31 8.87 4.15-12.66 3c-1 21.9-4.66 44-4.83 65.32 12.81 12.41 38.41 25.58 58.46 31.66Z"/><path class="cls-11" d="M118.19 366.74c15.66 3.45 397.06 1.74 457.31-2.06q-.71-10.55-1.34-21.13l-21.58-1.63 21.23-4.28q-3-51.27-4.07-103.13l-11.51-3.41 11.38-3.23c-.9-49.17-.44-98.5 1.61-147.54L543.8 45.26C540 43.79 119 46.59 57.24 48.69q1.57 23.79 2.58 47.51l8.36 4.5-3.76 4.21.69 3.24-4.72 2.85q2.7 76.77-.55 152.94l6.31 2.8-3.15 4.88 8.92 3.86-12.73 2.76q-1.57 31.59-4.19 63.09l63.16 25.37Z"/><path class="cls-10" d="M118.16 366.72 55 341.35c2-2.76 21.65-17 24.34-17.24s32.28 37.39 38.82 42.61ZM571.22 80.33c-6.31-2.75-33.24-6.76-34.49-9.27-1-2 5.63-18.85 7.07-25.8l27.42 35.07Z"/><path class="cls-11" d="M75.59 330.07c13.27 12.53 28.77 26.41 42.6 36.67-4.65 0-63.19-21.19-63.19-25.39a119.09 119.09 0 0 1 20.59-11.28ZM571.22 80.33c-10.81-4.43-21.67-8.77-32.06-14a190.06 190.06 0 0 0 4.64-21.11c2.67 0 27.42 32.46 27.42 35.07Z"/><path class="cls-12" d="M105 361.44c-3.64-12-31.94-26.68-41.51-25.39a112.18 112.18 0 0 1 12.08-6c13.24 12.5 28.69 26.34 42.5 36.59l.1.08c-1.22 0-6.19-1.47-12.84-3.72a9.17 9.17 0 0 0-.33-1.57ZM543.44 64c3.17 6.7 17 11.44 25.44 13.34l1 .21a9.17 9.17 0 0 1 1.39 2.78l-.88-.36c-10.52-4.31-21.07-8.55-31.18-13.6a190.06 190.06 0 0 0 4.64-21.11 1.53 1.53 0 0 1 .73.35l-.15.4c-1.73 4.76-3.11 13.44-.94 18Z"/><path class="cls-13" d="M125.7 360.26c-7.48-2.73-10.23-8.51-14.25-17.35-11.51-25.3-26.54-20.75-38.59-27.66-8-4.61-10.56-18.52 4.3-37.23 13.73-17.27-11.16-36.36-10.31-72.51.56-23.13 14.15-59.7 16.36-70.51 2.06-10 4.62-15.27-5.71-29.45-4-5.48.49-8-9.28-21.91-5.12-7.24-3.49-12.39 1.52-16.14 29.6-22.08 105.14-8 138.52-5.11 15.21 1.32 26.22-7.55 51.28-5.35 44.82 3.93 37.9-16.12 102.34 8.08 42.09 15.8 49.23-10.07 84.95-7.32 17.94 1.38 24-2.24 35.44-3.44 8.82-.93 18-2.26 25.67-.17 15.81 4.32 8.35 18.65 22 27.44 19.6 12.63 40.92-5 31.22 31.78-4.88 18.48-10.62 40-1.43 62.87 2.66 6.6 2.61 23.27-.38 29.37-12 24.36-23 20.58-7.14 34.49 13 11.35-5.27 20.67 4.06 33.39 9 12.29 4.74 24.25-5.28 49.39-1.36 3.41 5.38 7.59-7.18 14.29-8.76 4.66 22.29 18.07-47.87 18.07-19.91 0-26 6.44-46.15 5.89-34.66-.95-54.79-9.91-97.69-6.43-28 2.27-42 6-71.91 4.82-17.77-.69-21.45 4.48-45.67-2-36.78-9.86-75.46 14.86-108.79 2.7Z"/><path class="cls-13" d="M94.6 312.11C85 304.16 80.32 298.1 87 276c9.87-32.88-9.48-41.19-11.6-61.66-2.72-26.25-.47-13.4 9.88-31.93 6.39-11.44-10.69-15 9.15-36.52 14.76-16 11.19-29-2.26-43.65-10.89-11.85-12.15-28.1-.47-36 18.19-12.24 39.04 1.61 53.3 2.4 4.3.24 9.79-.69 18.83-3.89 10.3-3.64 36.26 9.84 56.58 9.84 24.86 0 51.31-12.93 87.26-12.93 37.47 0 47.95 29 80.28 16.84 3.6-1.35 26.41 12.33 58.94-3.23 25.91-12.39 61.35-7 68.64 5.41 2 3.37 15.65.49 18.08 19.78 1.06 8.41 23.91 13.79 10.39 36.47-2.48 4.16-4.2 28.16.23 35.35 5.08 8.24 5.06 26.68-.23 33.82-15 20.22 6.43 36.82-4.59 51.51-11.16 14.88-1.62 26.74-1.62 38.1 0 23.88-9.27 9.39-4.07 32.69 4.53 20.33-13.83 23.11-33.18 19-5.68-1.2-10.53-2.38-22.62 5.66-18.16 12.1-44.58 4.36-65.39-1.38-28.91-8-48-7.57-78.12.56-20.47 5.52-54.09-13.81-88-2.76-29.64 9.65-42.68-11.33-64.2 1.53-16.5 9.85-32.46 7.39-39.68.72-9.21-8.51 1.54 2.15-12.73-15.77-13.8-17.26-30.29-19.82-35.2-23.85Z"/></g></g></svg>