<svg xmlns="http://www.w3.org/2000/svg" viewBox="0 0 30 30"><defs><linearGradient id="linear-gradient" x1="4.93" y1="19.64" x2="13.76" y2="19.64" gradientUnits="userSpaceOnUse"><stop offset="0" stop-color="#713b23"/><stop offset="1" stop-color="#94543d"/></linearGradient><style>.cls-2{fill:#ad2523}</style></defs><g style="isolation:isolate"><g id="rip"><ellipse class="cls-2" cx="15" cy="15" rx="12.72" ry="12.83"/><circle class="cls-2" cx="14.76" cy="14.65" r="9.84"/><path d="M24.61 14.66v.17a9.68 9.68 0 0 0-9.85-9.3 9.67 9.67 0 0 0-9.83 9.3v-.17a9.84 9.84 0 1 1 19.68 0Z" style="mix-blend-mode:multiply;fill:#ad2523"/><path d="M13.76 24.44A9.61 9.61 0 0 1 4.93 15v-.18a9.85 9.85 0 0 0 8.83 9.62Z" style="fill:url(#linear-gradient);mix-blend-mode:multiply"/><path d="M19.56 20a1.61 1.61 0 0 1-.44-.06.84.84 0 0 1-.39-.25l-4-4.12-.83-.71-4-4a1.05 1.05 0 0 1-.32-.68.76.76 0 0 1 .23-.62 1 1 0 0 1 .75-.25 1.18 1.18 0 0 1 .88.33l3.92 4 .6.48 4.32 4.41a1 1 0 0 1 .33.7.72.72 0 0 1-.3.58 1.17 1.17 0 0 1-.75.19Zm-8.78 0a1 1 0 0 1-.72-.24.79.79 0 0 1-.26-.6 1 1 0 0 1 .32-.71L14 14.29l1.24 1.49-3.65 3.93a1.19 1.19 0 0 1-.81.29Zm5.68-5-1.59-1.16 3.7-4.2a.87.87 0 0 1 .43-.28 1.35 1.35 0 0 1 .46-.07 1 1 0 0 1 .76.26.84.84 0 0 1 .24.64 1.18 1.18 0 0 1-.33.73Z" style="fill:#fff;stroke:#fff;stroke-miterlimit:10"/></g></g></svg>