<svg xmlns="http://www.w3.org/2000/svg" xmlns:xlink="http://www.w3.org/1999/xlink" viewBox="0 0 632.97 743.96"><defs><linearGradient id="linear-gradient" x1="-1546.46" y1="1434.46" x2="-822.87" y2="1434.46" gradientTransform="rotate(-90 -961.685 152.195)" gradientUnits="userSpaceOnUse"><stop offset="0"/><stop offset="1" stop-color="#701e00"/></linearGradient><linearGradient id="linear-gradient-2" x1="-1496.32" y1="1745.33" x2="-854.84" y2="1103.85" xlink:href="#linear-gradient"/><linearGradient id="linear-gradient-3" x1="-1528.94" y1="1420.25" x2="-818.55" y2="1420.25" gradientTransform="rotate(-90 -961.685 152.195)" gradientUnits="userSpaceOnUse"><stop offset="0" stop-color="#ff4d1a"/><stop offset="1" stop-color="#ffa600"/></linearGradient><linearGradient id="linear-gradient-4" x1="-1484.58" y1="1732.83" x2="-860.14" y2="1108.39" gradientTransform="rotate(-90 -961.685 152.195)" gradientUnits="userSpaceOnUse"><stop offset="0" stop-color="#7a2300"/><stop offset="1" stop-color="#d45104"/></linearGradient><linearGradient id="linear-gradient-5" x1="-1480.85" y1="1728.37" x2="-862.55" y2="1110.07" gradientTransform="rotate(-90 -961.685 152.195)" gradientUnits="userSpaceOnUse"><stop offset="0" stop-color="#97390e"/><stop offset="1" stop-color="#ee7c3e"/></linearGradient><clipPath id="clip-path"><path class="cls-1" d="m-25.54-83.59-7.58.06-326.58 1.59-6.72.06a5.82 5.82 0 0 1-4.14-1.68l-4.89-4.81a5.83 5.83 0 0 1-1.75-4.11l-.28-33.09a5.81 5.81 0 0 1 1.67-4.14l4.81-4.9a5.82 5.82 0 0 1 4.11-1.74l7.35-.06L-33-138l7-.06a5.82 5.82 0 0 1 4.14 1.68l4.89 4.8a5.87 5.87 0 0 1 1.75 4.12l.28 33.09a5.85 5.85 0 0 1-1.67 4.14l-4.81 4.89a5.78 5.78 0 0 1-4.12 1.75Z"/></clipPath><style>.cls-1{fill:none}.cls-8{fill:#d76633}.cls-9{fill:#f4825c}.cls-10{fill:#ff8d65}.cls-11{fill:#ba9d68;mix-blend-mode:multiply;fill-rule:evenodd}.cls-12,.cls-13,.cls-14{fill-rule:evenodd;fill:#f2d391}.cls-13,.cls-14{mix-blend-mode:screen}.cls-14{opacity:.5}.cls-18{fill:#ad5500}</style></defs><g style="isolation:isolate"><g id="rip"><path d="M586.74 15.27c18.81 0 34.06 11.27 34.06 25.17l3 28.18-6.72 11.68 3.72 4.39v57.13l-3.8 9.82 3.8 13.36 3.43 88.37-3.43 43.75-5.33 14.65 5.33 6.77 4.23 49.1-4.23 50.89-3.8 7.18 3.82 8.93v76.77l-2.11 16.74 2.11 7.36V606l3.83 7.14-3.85 9.86-3.8 73.2 3.82 11.59c0 13.9-15.25 25.17-34.06 25.17l-13-2.16L567 733h-80.91l-20.54-3.43L442.6 733l-68.06 4-36.34-8.11-17.63 4.11H193.72l-10.88-3.43-15.7 3.43-49.24 2-62-2c-18.9 0-34.11-11.31-34.11-25.21l-1.63-11 1.63-16.65v-25l4.8-5.35-4.8-4.46-2.86-26.19 2.86-55V512.3l4.8-15.18-4.8-9.81V372.14l-3.24-51.49 3.24-40.45 4.8-7.15-4.8-13.39v-54.45l3.6-15.21-3.6-8.94-5.66-47.92 11.08-75.67-5.42-17c0-13.9 15.25-25.17 34.06-25.17h61.75l12.08 4.25 12.08-4.25 32.77-1.89 102.55 1.89h70.07l21.4 3.32 11.22-3.32h100.28l28.74-1.59 11.13 1.59Z" style="opacity:.54;fill:url(#linear-gradient)"/><path d="M576.15 7.24c18.81 0 34.07 11.27 34.07 25.17l3 28.18-6.75 11.68 3.73 4.39v57.13l-3.83 9.82 3.85 13.39 3.42 88.38-3.42 43.75-5.34 14.65 5.34 6.77 4.23 49.1-4.23 50.88-3.83 7.15 3.83 8.92v76.77l-2.12 16.74 2.12 7.37V598l3.82 7.15-3.82 9.85-3.83 73.21 3.83 11.59c0 13.9-15.26 25.17-34.07 25.17l-13-2.16-6.74 2.16h-80.9L455 721.5l-23 3.43-68.06 4-36.34-8.11-17.6 4.11H183.13l-10.87-3.43-15.71 3.43-49.24 2-62-2c-18.81 0-34.06-11.27-34.06-25.17l-1.63-11 1.58-16.66v-25l4.8-5.35-4.8-4.47-2.85-26.18 2.85-55.05v-51.78l4.8-15.18-4.8-9.82V364.11L8 312.62l3.24-40.46L16 265l-4.8-13.39v-54.44L14.81 182l-3.61-8.94-5.66-47.91 11.08-75.71-5.42-17c0-13.9 15.25-25.17 34.06-25.17H107l12.09 4.25 12.08-4.25 32.76-1.89 102.56 1.86h70.08L358 10.56l11.22-3.32h100.25l28.74-1.59 11.13 1.59Z" style="fill:url(#linear-gradient-2)"/><path d="M565.62 10.92C584 10.92 598.8 22 598.8 35.63l2.94 27.66-6.57 11.47 3.63 4.31v56.09l-3.72 9.64 3.72 13.2 3.34 86.76-3.34 43-5.2 14.39 5.2 6.64 4.12 48.21-4.12 50-3.72 7 3.72 8.76V498l-2.06 16.44 2.06 7.23v69.24l3.73 7-3.73 9.64-3.72 71.86 3.72 11.39c0 13.64-14.85 24.71-33.18 24.71L553 713.39l-6.57 2.13h-78.84l-20-3.37-22.36 3.37-66.29 3.93-35.4-8-17.17 4H182.8l-10.6-3.37-15.29 3.37-48 2-60.43-2c-18.33 0-33.18-11.07-33.18-24.71L13.74 680l1.59-16.35v-24.54l4.67-5.26-4.67-4.38-2.78-25.71 2.78-54v-50.88L20 484l-4.67-9.64V361.28l-3.16-50.55L15.33 271l4.67-7-4.67-13.15v-53.47l3.51-14.88-3.51-8.78-5.51-47 10.79-74.37-5.28-16.72c0-13.65 14.85-24.71 33.18-24.71h60.15l11.76 4.17 11.77-4.17 31.92-1.86L264 10.92h68.25l20.85 3.25 10.9-3.25h97.7l28-1.57 10.84 1.57Z" style="fill:url(#linear-gradient-3)"/><path d="m363.34 11.91-8.08 2.41-9.6 11.79-2 17.86 7.25 4.16 20.94 4.76-2 7.44-14.9 8.33.8 8.34-4-11 14.09-6 1.61-4.46L351.7 52l-8.06-4.46-3.22 5.65-2.42-6.25V28.19l3.63-7.44-.81-4.75-5.1-3.46-4-.62h-67.79l-99.27-1.85-31.72 1.85-7.57 2.7-3.63 5.55 2.42 11 9.26 2.38 25.37 20.53h3.63l16.11 20.53-17.32-17.55-4.43-.89-6.65-4.17v6.25l5 12.2-8.46-13.09v-6l-14.05-12.75-10.88-2.68 3.26 8.93-14.9 14.88-11.31 14.87v7.44l-2.42-10.71 8.86-11.6 6-7.44-1.21-3 7.66-7.74-4.84-19.93-4.83-6.55-11.64-1.7-2.07-1.47H49.78c-18.21 0-33 11-33 24.62l5.25 16.66-10.72 74 5.49 46.91 3.5 8.74-3.5 14.83v53.26l1.93 5.42 6.76 3.65 8.06 2.38 9.66-7.73 12.08 1.18 1.61 6.55 2.42 8.93 5.24 3.57L56.1 271l-1.21-5.65-2.82-4.47-5.64-2.23h-4l-7.36 6.4-8.75 1.19-5.11-1.83L16.8 271l-3.13 39.57 3.13 50.36v112.63l4.65 9.61L16.8 498v50.64L14 602.49l2.8 25.61 1 .9 11.2-2.17h7.85l7.25-6.92 3.62-6.69 11.48-2.68-9.06 3.57-3.63 6.7-6.94 6.25 1.2 2 5.44 1.34 3.93 2.68-5.44-.89-6.34-3.13h-8.74l-5.44 2.68-7 5.59-.33.37v24.45l-1.57 16.28 1.52 10.77c0 13.6 14.77 24.62 33 24.62l60.06 1.95 47.66-1.95 12.44-2.75 5.57-13.71-3.33-6.7 3.33-18.74 3-9.16-3.93 27.9 3.93 4 1.81-6.92 8.46-6.92 3.92-18.08-1.81 19.64-8.76 6.7-5.48 22.62 6.56 2.1H306l15.05-3.54-.5-4.89-3.72-4.91v-24.53l3.72 24.33 3.53 3.57 1.5 6.54 32.66 7.36 65.88-3.91 22.22-3.36 19.88 3.36h78.36l5.78-1.88-4-8.56-3-.44-11.78-24.11 11.78 21.88H547l6.49 11.39 10.17 1.72c18.21 0 33-11 33-24.62l-3.3-10.09-10.36-5.19-5.13-5.13-21.75-13.17L579 666.78l3.33 4.24 10.7 4.68 3.59-69.43 3.71-9.6-3.71-7v-69l-1.76-6.19-7.7-1.73-2.39 2.25-6.64 2h-6.34l-7.56 6.47-11.17 4 10.27-5.58 5.13-5.58-4.83-1.31-3.93-2.23s10 2.68 17.52 2.45l4.23-2.45 2.12-1.34-12.39-4.43 23.7 4.28 1.77-14.14v-75.09l-3.7-8.73 3.7-7 4.1-49.77-4.1-48-5.14-6.55-3.72.82-3.32 6.47-7.25 8.93-3.92 8.92 2.7-10.53 6-8 3-6-7.56.67-4.22-.89-6 .89 11.47-3.34 16-7.09 1.87-5.19 3.44-42.84-3.32-86.44-3.7-13.1 3.7-9.6V81.59l-7.38 3.81-.3 8.26-2.41 3.12-1.51 7.37-12.69 10.71 9.67-10.49V89.64l-16.62 13.17-24.16 21.65.3 3.12-12.08 12.72 9.67-13.61v-3.35l18.42-19.86-15.1 5.8 16-8.26h3.62l19-13.83 1.51-5.81L596.78 69l2.8-4.88-2.93-27.56c0-13.6-14.76-24.62-33-24.62H499l-10.77-1.56-27.82 1.56Z" style="fill:url(#linear-gradient-4)"/><path d="m361.22 13.82-8 2.4-9.48 11.7-2 17.72 7.15 4.14 20.68 4.72-2 7.39-14.71 8.27.79 8.27-4-10.93 13.91-5.91 1.59-4.43-15.5-3.54-8-4.43-3.05 5.61-2.39-6.21V30l3.58-7.38-.79-4.75-5-3.43-3.91-.62h-67L165.1 12l-31.31 1.83-7.48 2.68-3.57 5.49 2.38 10.93 9.14 2.36 25.05 20.38h3.58l15.9 20.39-17.1-17.43-4.37-.89-6.56-4.14v6.21l5 12.11-8.35-13V53L133.5 40.3l-10.73-2.66 3.18 8.87-14.74 14.79-11.13 14.77v7.38l-2.39-10.63 8.75-11.52 6-7.39-1.23-2.91 7.55-7.68L114 23.48 109.22 17l-11.53-1.72-2-1.46H51.7c-18 0-32.55 10.94-32.55 24.44l5.18 16.53-10.58 73.51 5.4 46.52 3.45 8.68-3.45 14.72v52.87l1.9 5.38 6.67 3.63 8 2.36 9.54-7.68L57.14 256l1.59 6.5 2.39 8.86 5.17 3.55-8.35-3.91-1.19-5.62L54 261l-5.56-2.21h-4l-7.26 6.35-8.64 1.18-5-1.82-4.39 6.5-3.09 39.3 3.09 50v111.8l4.59 9.53-4.59 14.74v50.27l-2.72 53.44 2.72 25.42 1 .9 11.1-2.15H39l7.15-6.87 3.58-6.65L61 608.08l-9 3.54-3.57 6.65-6.86 6.2 1.19 2 5.37 1.33 3.87 2.66-5.36-.88-6.26-3.11H31.8l-5.37 2.66-7 5.55-.32.37v24.27l-1.51 16.15 1.55 10.69c0 13.5 14.57 24.44 32.55 24.44l59.3 1.94 47-1.94 12.27-2.73 5.5-13.61-3.28-6.65 3.32-18.61 3-9.08-3.88 27.69 3.88 4 1.79-6.87 8.35-6.87 3.87-17.94-1.82 19.48-8.64 6.65-5.36 22.46 6.48 2.08h121.17l14.86-3.51-.5-4.86-3.67-4.87V673l3.66 24.14 3.49 3.54 1.47 6.5 32.24 7.31 65-3.89 21.93-3.34 19.63 3.34h77.35l5.7-1.86-3.92-8.5-3-.44-11.62-23.93L539 697.58h3.58l6.41 11.31 10 1.71c18 0 32.55-10.94 32.55-24.44l-3.26-10L578 671l-5.07-5.1-21.46-13.07 22.66 11.08 3.28 4.21 10.59 4.64 3.55-68.92 3.65-9.54-3.65-6.93V518.9l-1.74-6.15-7.6-1.71-2.39 2.21-6.56 2H567l-7.45 6.42-11 4 10.14-5.54 5.07-5.54-4.77-1.33-3.94-2.26s9.84 2.66 17.3 2.43l4.17-2.43 2.09-1.33-12.22-4.43 23.39 4.25 1.75-14V421l-3.66-8.66 3.66-6.94 4-49.4-4-47.67-5.08-6.54-3.67.81-3.28 6.4-7.15 8.86-3.88 8.86 2.69-10.41 6-8 3-6-7.45.66-4.18-.88-6 .88 11.33-3.32 15.84-7 1.85-5.16L594.8 245l-3.27-85.8-3.66-13 3.66-9.53V83l-7.26 3.78L584 95l-2.39 3.1-1.49 7.31L567.58 116l9.54-10.41V91l-16.4 13.07-23.85 21.5.3 3.1-11.93 12.62 9.54-13.51v-3.32L553 104.72l-14.91 5.76 15.8-8.2h3.58l18.78-13.73 1.49-5.76 13.95-12.33 2.76-4.85-2.89-27.35c0-13.5-14.58-24.44-32.55-24.44h-63.88l-10.63-1.55-27.5 1.55Z" style="fill:url(#linear-gradient-5)"/><path class="cls-8" d="m441.51 702.19-6.85 2.09s-6 0 0-4.77 6.85-2.38 6.85-2.38l2 2.09ZM448.75 701.9l3.63 1.19v-3.87s-5.24-.9-3.63 2.68ZM452.38 686.42s-.4 4.17 5.23 3-.8-4.49-5.23-3ZM529.7 706.06a6.24 6.24 0 0 1 6.45 0c3.22 2.08-1.21 3.57-6.45 0ZM323.91 694.16l2.82 2.38s.51-8.48-2.82-2.38ZM512.79 670.35l4.83 2.38s-.8-8.63-4.83-2.38ZM587.29 590.9v5.36l-6 2.68-10.06-8 4-4.76s10.05-1.53 12.06 4.72ZM571.19 597.15l-7.25-4.69s-7.66 2.91 7.25 4.69ZM574.41 336.18h7.65s3.22-3.87 0-4.76-11.68-2.08-7.65 4.76ZM579.24 342.13h4.25l1.79 3.28s-8.86.89-6.04-3.28Z"/><path class="cls-9" d="m583.49 145.14 1.79-3.87-1.79-1.49s-11.58 5.7 0 5.36ZM581.81 148.71l-8.47 1.49v4.46s-.65 4.76 4.24 2.08-3.33-1.63 4.23-8.03ZM554.67 168.35s6.05 1.78 6.85-1.79-3.42-2.67-3.42-2.67-7.86.59-3.43 4.46ZM557.47 157.56l4.15 1.57 3.52-1.57s-6.08-3.05-7.67 0ZM577.56 197.51h4.25l.17-5.95s-4.89-.3-4.42 5.95ZM463.26 93.06s6 2.68 8.05-2.38 11.28-3.86 0-5.65-21.31 2.68-8.05 8.03ZM476.8 83s5.79 1.19 7.4 3.87 6.84-.9 4-3.87-10.95-3.71-11.4 0ZM498.7 87.76a5.31 5.31 0 0 0 6.44 0c3.62-2.43-4.43-4.12-6.44 0ZM489 17.18s2.43 2.38 0 5.66-6-2.3 0-5.66Z"/><path class="cls-10" d="M181.75 60.93s-1.61 3.57 4.84 3.86 3.62-2.67-4.84-3.86ZM194.64 70.75s-.81-4.17 3.22-3 6.44 3.25-3.22 3ZM190.12 60.93s7.55.33 11.27 3.88 3.72-1.5 3.72-3.88-15.11-7.74-14.99 0ZM29.52 45.15s.81 8 5.24 8 8.45-4.76 1.21-8c.03 0 1.29 4.72-6.45 0ZM29.52 39.5s2 5.65 3.22 2.08-.8-6.58-3.22-2.08ZM52.07 45.15s6.45.9 6.45-1.19-4.03-2.67-6.45 1.19ZM31.31 189.18S24.2 199 33.1 205.25s10.43-8.63 6.85-16.07c.05 0-9.26 9.22-8.64 0Z"/><path class="cls-8" d="M25.09 658.75s-6 7.14 0 8.33 9.26-7.44 5.24-9.82-7.33-6.86-5.24 1.49ZM37.17 667.19s2.42 4.95 5.24 1.38-1.21-6.33-5.24-1.38ZM189.4 699.22s4 3.57 7.25 0-.4-8.33-7.25 0Z"/><path class="cls-11" d="M569.58 619.93c-3.87-131.76-6.23-433.66.61-552.8.15-2.73.51-6.32-1.63-8.31S562.37 57 559.23 57c-10.32-.14-22.15-.67-30.39-.3l-2.7 26.3-7-25.93q-84.5 3.63-170 5l-5.61 14.06-5.33-13.9c-81 1.09-156.73-4.05-237.54-6.55-21 7.39-35.91 14.78-53.12 24.57-3.14 1.79-5.38 4.57-5 7.83 5.42 52.65 11.38 495.1 5.94 590-.29 5.15 4.94 9.29 10.86 9.41 23.79.5 39.24-1.77 61.9-2.48l7.41-10.22 6.94 4.6 5.34-.84 4.63 5.76Q272 681 397.56 685l4.61-7.7 8.12 3.85 6.35-10.89 4.55 15.55c33.5 1.23 67.32 5.72 99.94 5.93 19-15.73 39.14-47.17 48.45-71.79Z"/><path class="cls-12" d="M553.05 599.4c5.29-19.24 2.66-487.55-3.16-561.54q-16.12.87-32.32 1.65L515.07 66l-6.55-26.06q-78.45 3.64-157.79 5l-5.21 14.14-4.94-14c-75.24 1.1-150.71.53-225.74-2L61.18 76.79c-2.25 4.63 2 521.64 5.24 597.45q36.4-1.95 72.7-3.17L146 660.8l6.44 4.62 5-.84 4.3 5.79q117.46-3.32 234 .67l4.26-7.74 7.54 3.87 5.89-10.95 4.23 15.63q48.35 1.93 96.53 5.1h.06l38.82-77.55Z"/><path class="cls-11" d="M553 599.43 514.21 677c-4.23-2.42-26-26.59-26.38-29.89S545 607.47 553 599.43ZM114.84 43.12c-4.21 7.75-10.34 40.82-14.19 42.35-3 1.21-28.84-6.91-39.47-8.68l53.66-33.67Z"/><path class="cls-12" d="M496.94 651.71c19.17-16.3 40.41-35.33 56.11-52.31 0 5.71-32.42 77.59-38.84 77.59a140.5 140.5 0 0 1-17.27-25.28ZM114.84 43.12c-6.79 13.27-13.43 26.61-21.37 39.37-10.59-2.49-21.42-4.17-32.29-5.7 0-3.28 49.65-33.67 53.66-33.67Z"/><path class="cls-13" d="M544.94 615.57c-18.37 4.46-40.82 39.22-38.85 51a128.44 128.44 0 0 1-9.15-14.83c19.12-16.26 40.3-35.23 56-52.18l.12-.13c0 1.5-2.25 7.6-5.68 15.76a18.82 18.82 0 0 0-2.42.41ZM89.85 77.24c10.25-3.9 17.5-20.92 20.41-31.25.11-.39.22-.78.32-1.16a15.61 15.61 0 0 1 4.26-1.71c-.17.32-.36.68-.55 1.08-6.6 12.91-13.1 25.87-20.82 38.29-10.59-2.49-21.42-4.18-32.29-5.7a1.71 1.71 0 0 1 .54-.9l.6.19c7.29 2.12 20.56 3.81 27.53 1.16Z"/><path class="cls-14" d="M543.14 590.17c-4.18 9.19-13 12.57-26.55 17.51-38.71 14.13-31.75 32.59-42.32 47.38-7 9.87-28.34 13-57-5.29-26.43-16.85-55.63 13.75-110.94 12.67-35.4-.69-91.34-17.36-107.83-20.09-15.24-2.53-23.36-5.67-45.06 7-8.39 4.9-12.28-.6-33.53 11.4-11.12 6.28-19 4.29-24.74-1.87C61.42 622.55 83 529.79 87.39 488.8c2-18.68-11.56-32.19-8.19-63 6-55-24.67-46.53 12.36-125.67 24.17-51.67-15.41-60.44-11.2-104.3 2.11-22-3.42-29.47-5.27-43.51-1.42-10.84-3.45-22.16-.25-31.53 6.61-19.41 28.54-10.25 42-27 19.32-24.06-7.65-50.25 48.62-38.33 28.28 6 61.16 13 96.19 1.75 10.11-3.26 35.62-3.2 44.95.47 37.27 14.68 31.48 28.25 52.77 8.76 17.36-15.89 31.63 6.48 51.08-5C429.24 50.43 447.54 55.7 486 68c5.22 1.67 11.62-6.6 21.86 8.82 7.14 10.76 27.65-27.37 27.65 58.78 0 24.45 9.86 32 9 56.67-1.45 42.56-15.15 67.28-9.83 120 3.48 34.39 9.16 51.56 7.38 88.31-1.07 21.82 6.86 26.33-3.07 56.07-15.07 45.16 22.75 92.66 4.14 133.58Z"/><path class="cls-14" d="M469.46 628.36c-12.16 11.85-21.42 17.54-55.27 9.38-50.31-12.13-63 11.63-94.34 14.24-40.16 3.34-20.52.58-48.87-12.13-17.5-7.85-23 13.12-55.86-11.24-24.47-18.12-44.39-13.74-66.8 2.77-18.13 13.37-43 14.92-55 .58C74.5 609.59 95.73 584 97 566.44c.37-5.28-1.06-12-6-23.12-5.57-12.64 15-44.53 15-69.48 0-30.52-19.79-63-19.79-107.14 0-46 44.43-58.88 25.78-98.58-2.08-4.42 18.86-32.43-5-72.38-19-31.8-10.68-75.32 8.27-84.27 5.17-2.44.77-19.22 30.28-22.21 12.86-1.3 21.1-29.36 55.79-12.75 6.36 3 43.1 5.16 54.1-.29 12.6-6.24 40.81-6.21 51.74.29 30.93 18.41 56.32-7.9 78.81 5.63 22.76 13.7 40.91 2 58.29 2 36.54 0 14.36 11.39 50 5 31.1-5.56 35.36 17 29.12 40.74-1.84 7-3.65 12.94 8.66 27.77 18.51 22.31 6.67 54.75-2.11 80.3-12.2 35.5-11.59 58.89.85 95.92 8.45 25.14-21.14 66.42-4.22 108.11 14.77 36.4-17.33 52.41 2.33 78.83 15.08 20.27 11.31 39.85 1.11 48.72-13 11.32 3.28-1.89-24.13 15.63-26.45 16.9-30.36 37.19-36.54 43.21Z"/><g style="clip-path:url(#clip-path)" id="_Группа_" data-name="&lt;Группа&gt;"><path d="M107.5 84.4 69.66 51.73s-70.54 2.81-74 5.19c-.65.44-11.65.14-29.16-.65-74.25-2.36-227.78-8.91-326.53-14-36-2.68-61.21-5-61.55-6-2.24-6.57-2-9-2-71.62 0-29.69-.09-72.91-.51-136.51l2.3-14.7 5.6-35.92s14-20.08 17.48-23.63 26.91-21.34 26.91-21.34 5.24-1.41 12.76-3.32c22.94-3.91 60.19-9.91 73.07-10 19.1-.06 114.49-13.33 142.28-13.43 14.26 0 65.12 2.56 111.28 5.12 29.65 2.38 56.44 4.71 56.44 4.71s89.49 18.23 102.44 21.67 30.76 26.84 39.05 36.2c4.17 4.7 11.69 23.32 18.15 41.74 6.4 18.24 11.76 36.28 11.79 40.38 0 6.08-7.86 75.2-12 110.83-1.45 12.57-2.43 21-2.43 21s-9.08 49.45-11.41 54.17-12.77 24.78-12.77 24.78Z" style="fill:#a5420b"/><path d="M98.14 31.94c-1.57-.77-14.86 5.19-13.71.88s-1.2-3.13-1.21-4.7-6.64 3.57-6.26 2-5.08 2.39-4.7.42-4.3 1.6-5.88 0-1.15 3.54-7.44.44-8.23.06-8.64-2.29-5.48.82-3.15-1.55a7.12 7.12 0 0 0 1.93-5.5s-2-3.51-3.56-3.9-7.07-3.09-7.09-5.44 1.51-9.41 4.63-10.61 1.14-5.85 1.14-5.85-3.15-2.33-3.2-4.29-9 4.37-7.84-.34-5.49 0-2.75 0-7.4 7.1-7.81 3.58-6.22 2.41-5.85-1.51-5.84 6.7-5.49 0-3.92.42-3.93-1.15S1.08-5 1.07-6.23s-7.82 3.19-11 2-9 1.62-10.18 1.24-9 1.63-9.81-1.11a7.41 7.41 0 0 0-3.47-3.83c-.76-.3-1.29-.46-1.29-.46s-7.45 3.2-5.7 4.39-.52 4.69 4.12 5.46a28.26 28.26 0 0 1 2.88.6c1.52.61 2.19 1.34 4 2.5s-2.24 2.52-4 3c-.64.12-1.06.18-1.06.18s-5.76 2-.54 3.53l1.59.47a55.12 55.12 0 0 1 6 3c2.76 1.55 2.76 2.33 5.52 4.66s-.76 2.75 8.27 5.44S-1 31.81-4.55 33s-7.43 3.58-9 3.19c-.26-.06-7.72-.16-19.94-.27-73.43-.54-263.23-1.5-326.56-1.81l-14.17-.11s-4.31-.36-3.18-6.64-.82-5.87-3.58-8.6-10.63-7-9.47-8.56S-396 6.35-396 4.39s-.4-.78-.81-4.31-.4-1.17-2-4.3-5.1-.75-5.51-3.1-3.92.42-6.68-1.91-5.85 3.56-7 1.22-4.67 6.3-4.71 0 .4 1.17 0-6.27-1.2-4.31 1.11-10.59c2.24-6.09 9.73 2.87 5.46-10.45-.14-.42-.28-.87-.45-1.34-5.19-15.26-1.73-23.27-3.32-26s-.8-3.13.36-5.88 2.71-5.51 3.09-6.68 1.57 1.16 3.11-3.16 1.16-2.36 2.7-7.07 5.84-6.71 3.08-9.43 8.15-12.21 8.92-14.17 1.6 2.48 2.37.91a57.52 57.52 0 0 0 1.92-6.28c.38-1.18 1.15-3.93 1.15-3.93a4.28 4.28 0 0 1-.41-2.74c.38-1.18 8.92-13.78 11.27-15s8.61-2 9.41 1.11 5.51 3.1 5.88.36c.28-2 4.67.84 7.56.41a3.71 3.71 0 0 0 3.3-2c2.26-5.11 16.21-.06 17.93-1.24s18 3.07 18 .72S-307-136-307-136s13.37 4.26 13.35 2.7 16.29 7.39 18 3.85 17.3-5.94 17.3-5.94 21.95-4.78 21.93-6.74 14.48.74 16.21-.05 24.93 3.05 24.93 3.05 3 11 4.15 8.61 15.66 2.69 16.8.72 20.86 1.5 22-2.43 9.26-.42 9.8-4 28.92-3.24 28.89-5.59 11 .36 11 .36 5.83 3.11 8.14 2.32 2.39 6.65 8.73 4.28 17.39 1.9 24.28-2.83 12.73-1.22 13.86-3.18 9.33 5.06 11.6 1.53a4.44 4.44 0 0 1 3.08-1.66c2.4-.63 5.85.45 7.26-.68a5.72 5.72 0 0 1 4.7-.82s14.13 2.65 19.2-1.3 6.28 2.7 6.27 0 1.6 5.87 2.77 3.9 8.66 6.6 8.64 2.29 3.57 6.64 3.94 4.29 2.38 3.51 5.09-1.21 9.41.72 9.4-.85.44 7.06.44 6.66 3.58 8.21 3.57 7 5.51 3.49 5.51 3.49l1.21 4.3a5.59 5.59 0 0 1 4.33 3.93c1.2 3.52.78.25 3.91-.56s-.4-.39 3.13-.8 8.6-2.8 9.79-.46a7.43 7.43 0 0 0 4 3.89c1.18.39-.76 3.54 1.19 2.74s-2.33 2.76 4.72 1.93 5.5 1.53 4.33 2.71-1.54 3.93 0 3.14.42 3.92 2.36 1.94.8 1.57 2 1.17-1.19 6.3 3.12 5.83 3.16 4.68 4.72 2.71.8 2 3.91-.81 2 4.3 5.5 1.53 6.28.74 7-.44 10.69 13.8 10.69 13.8a31 31 0 0 0 3.91-2c2-1.19.43 5.49 3.55 3.51s5.94 8.58 7.87 5.43 2 .77 2.74-.8S139.06-64 141-64s4.7 0 11.8 6.58c4.7 4.38 10.48 16.32 13.85 23.88a219.7 219.7 0 0 1 2.82 6.59l-2.71 6.29s-3.87 7.08-5.44 7.48-7 5.93-8.19 5.93S121.11 7.49 116 8.3s-9.32 13.79-9.73 11.83-1.54 4.32-1.54 4.32Z" style="fill:#a14f00"/><path class="cls-18" d="M-370.61-13c.77-2 4.35 5.07 5.51 2.71s2 6.43 5.17 3.8a5.7 5.7 0 0 0 .5-.31c5.17-3.54 15.78 12.88 21.5 6.59s7.5-1.59 7.47-4.73 2.24-7.06 2.24-7.06l6.31-5.12s7.56 3.11 5.81 1.55.06 5.88 1.75 1.56 12.14-2 12.7-3.57 3.5 2.73 5.79.37 2.44 10.58.71 11.37l-1.73.79c1.73-.79 11.57-1.22 12.13-2.4s.08 7.45 5.83 3.12 13.86-2.4 12.1-4.75 2.79-9.42 5.15-5.9 12.15 0 12.15 0a13.64 13.64 0 0 0 11-2.39 20 20 0 0 1 11-4s-1.16.4 1.75 1.57 8.66-2.39 8.66-2.39 9.86 1.93 9.83-1.21 4.09 3.91 11.59 1.14 7 1.93 12.17 1.13 4.62-1.19 9.84-.42 5.75-3.16 9.88 3.49 4.11 5.08 11.7 10.94 1.84 9 7.59 5.85 4.68 3.51 9.86.75 3 5.87 8.09-1.21S-119.17-8-119.17-8l2.38 5.48c1.19 2.74-5.71 6.68 4.68 3.9s8.13 2.32 12.7-2.79S-94.17.88-91.9-3s8-6.69 8-6.69l3.46-1.58a7 7 0 0 0 4-2c2.3-2 0 .79 2.3-2s4.48-12.95 6.28-7.07 3 7.83 5.3 7.82 10.45 2.31 10.42-.82a4.78 4.78 0 0 1 2.84-4.32s8.09-2 8.1-.42.64 5.48.64 5.48-1.13 2 2.89-.4c2.32-1.36 2.89-4.67 4.3-6 .7-.95 1.71-.81 3.72 2 4.75 6.63 4 10.17 7.9 9s1.16-3.14 4.29-3.55-2 2.36 3.13-.41 2.36.37 5.08-2.78 3.13-.81 6.27-.44a5.68 5.68 0 0 1 4.33 2.72s1.19 2 3.14 1.55 1.62 7 3.92-.42.36-4.31 2.3-7.46 2.75 0 3.91-2.77 7.8-5.93 7.8-5.93 3.53.37 4.3-1.6c.35-.89 2.06-1.95 3.83-2.84C32.75-35 35-35.85 35-35.85s2 2 4.3-2 5.87-1.21 7.81-4 7.75-10.78 7.74-12.34 2.36.37 4.31-1.6 8.63 1.9 9.79-.46 3.92.37 5.08-2.38 3.92.36 1.16-2.75 4.63-11.79 1.5-10.6-1.61-5.87-3.17-5.46-5.16-6.56-8.3-6.18 3.1-6.29-.42-4.31 1.11-11-2-7.43-4.31-.37-5.47 2.38S55-94.53 52.24-91s-5.52-5-5.52-5 .73-7.85-1.2-3.91-1.58-.78-2.74.41-.06-9-4.73-3.5-5.51-3.1-8.61 2.41-7.46-1.91-9 4-4.29 2.38-3.87 7.47-6.64 2.33-6.66-1.98.69-12.9-1.25-11.36-8.21 4-8.21 4-4.73-3.5-5.53-6.63 11.73-3.6 9.38-4.37 6.64-2.4 6.64-2.4l2.78 2.48s2.3-7.07-.05-7.45 4.27-5.9-.81-3.52.76-4.32-2.37-3.51-3.16-3.51-7.07-1.52-10.18 1.24-10.95 4 .06 9.41-3.06 11.78S-18-110-18-110s-4.69 3.41-5.85 5.38-4.31.81-4.31.81-3.71 2.74-4.87 2.18a.86.86 0 0 1-.31-.19c-1.18-1.17-7.53 0-5.82-2.33 1.19-1.64 4.35-2.34 6.15-3.66a3.13 3.13 0 0 0 .89-2.25c0-1.08-.39-1.6-.88-1.82a6.73 6.73 0 0 0-3.35.27s1.79 2.89-.52 2.89-14-7.4-16.86-6.21-9.2 6.3-10.39 3.56-8.12-1.93-11.61-3.09-15 7.5-17.34 2.8-9.87-2.32-11-4.27-2.92-2.73-3-5.48-9.28-1.14-11-1.14-20.2 5.56-20.2 5.56-13.26 5.14-14.43 4-13.87 2-13.87 2-4.63.8-5.22-.77-9.27-.36-8.72-3.1-2.35-2.74-2.37-4.7-1.79-4.69-8.15-3.89-14.46 1.62-13.28 3.18-14.47.45-14.47.45-9.28-1.54-11-1.93-9.21 5.13-9.21 5.13-5.14 6.29-8.62 5.91-12.16 0-14.47 0-18.45 8.94-19.06 5.8-6.35.56-4.63-1 1.13-2.75.52-5.49-5.28-6.26-8.18-6.25-11.57.44-11.57.44-7.5 2.77-11 2-14.46.84-16.78.46-12.72 1.61-7.5 3.16 7.57 4.92 4.68 5.32-9.27-.36-9.29-1.53-10.35 4.1-10.36 2.92-2.91-2.45-4.31-3.58a3.14 3.14 0 0 1-.25-.32c-.79-1.17-7 4.36-7 4.36l-3.53.66s-2.31 7.07-3.46 11.39 3.63 14.48 4 15.65-3.95-3.5-3.95-3.5-.79-1.56-3.57-6.64-3.57-7-5.55-9.37-3.17-5.86-7.86-3.87-4.29 4-5.84 7.1-1.88 11.38-3 13.34a94.86 94.86 0 0 0-5.9 12.66c-.69 2.13-.95 6.36-1 9.41-.06 2-.05 3.54-.05 3.54s-6.43 9.43-8 18.81c-.81 5-.23 10 3.48 13.5 10.65 10.12 16.56 14.4 20.1 15.94s9.83 5 13 5.8 7.33-13 7.33-13ZM91 15.92c0-3.14-4.35-1.92-4.35-1.92s-6.24 4-5.47 1.21-4.33-1.93-4.34-3.11-8.21 3.19-7 1.22-5.85 4.74-4.7 1.6-5.93-1.15-3.59-3.92S66.2 2.36 65 2s-3.53-2.74-3.15-5.1-1.21-4.69-1.61-5.9.77-2.75 1.54-5.1.79 2.34.76-2.36.38-2 0-4.7 1.13-7.46 1.13-7.46a38.09 38.09 0 0 0 3.26-5.23c.41-.9.57-1.62.22-1.85-1.18-.77 1.15-3.53.36-5.1s3.91-2 4.69-2 4.76 9 5.14 6.24 7.83-1.23 7.82-3.19 1.15-3.53 1.14-5.49 1.49-9.17 1.87-11.13 4.3-.82 4.28-4 4.69-2.78 4.69-2.78 3.16 3.12 3.15 1.94 4.7.36 4.69-2 5.11 2.71 5.11 2.71 4.32.76 5.09-.81 6.73 7.15 6.71 5.19 6.67 0 7-1.61 4.34 3.89 4.34 3.89 3.59 9.38 4.36 7.42 5.14 6.63 5.51 4.27 5.51 2.32 5.51 2.32l1.22 6.16.8 4 7.93 13.66-4.22 13-2.71 3.24s-39 24.56-41 25.75S91 19.05 91 15.92Z"/><path class="cls-1" d="M-379.23-208.89c.05 5.51.54 4.29 1.45 3.36l18.51-18.83 52.23-36a9.13 9.13 0 0 1 5.06-1.45l269.4-1.3 100.32-.87a4.85 4.85 0 0 1 3.45 1.4L126-208.64a4.91 4.91 0 0 1 1.45 3.43l.18 20.36L129-33.63l.15 17.76a4.9 4.9 0 0 1-1.39 3.45L73.81 42.42a4.79 4.79 0 0 1-3.42 1.45l-103.9.9-264.11 1.28a9.21 9.21 0 0 1-5.1-1.4L-360 6.53l-16.09-15.84c-.93-.92-1.44-2.13-1.51-10.24l-.14-15.62-1.26-151.22Z"/></g></g></g></svg>