<svg xmlns="http://www.w3.org/2000/svg" xmlns:xlink="http://www.w3.org/1999/xlink" viewBox="0 0 632.97 743.96"><defs><style>.cls-1{fill:none;}.cls-2{isolation:isolate;}.cls-3{opacity:0.54;fill:url(#linear-gradient);}.cls-4{fill:url(#linear-gradient-2);}.cls-5{fill:url(#linear-gradient-3);}.cls-6{fill:url(#linear-gradient-4);}.cls-7{fill:url(#linear-gradient-5);}.cls-8{fill:#d76633;}.cls-9{fill:#f4825c;}.cls-10{fill:#ff8d65;}.cls-11{fill:#ba9d68;mix-blend-mode:multiply;}.cls-11,.cls-12,.cls-13,.cls-14{fill-rule:evenodd;}.cls-12,.cls-13,.cls-14{fill:#f2d391;}.cls-13,.cls-14{mix-blend-mode:screen;}.cls-14{opacity:0.5;}.cls-15{clip-path:url(#clip-path);}.cls-16{fill:#a5420b;}.cls-17{fill:#a14f00;}.cls-18{fill:#ad5500;}</style><linearGradient id="linear-gradient" x1="-1546.46" y1="1434.46" x2="-822.87" y2="1434.46" gradientTransform="translate(-1113.88 -809.49) rotate(-90)" gradientUnits="userSpaceOnUse"><stop offset="0"/><stop offset="1" stop-color="#701e00"/></linearGradient><linearGradient id="linear-gradient-2" x1="-1496.32" y1="1745.33" x2="-854.84" y2="1103.85" xlink:href="#linear-gradient"/><linearGradient id="linear-gradient-3" x1="-1528.94" y1="1420.25" x2="-818.55" y2="1420.25" gradientTransform="translate(-1113.88 -809.49) rotate(-90)" gradientUnits="userSpaceOnUse"><stop offset="0" stop-color="#ff4d1a"/><stop offset="1" stop-color="#ffa600"/></linearGradient><linearGradient id="linear-gradient-4" x1="-1484.58" y1="1732.83" x2="-860.14" y2="1108.39" gradientTransform="translate(-1113.88 -809.49) rotate(-90)" gradientUnits="userSpaceOnUse"><stop offset="0" stop-color="#7a2300"/><stop offset="1" stop-color="#d45104"/></linearGradient><linearGradient id="linear-gradient-5" x1="-1480.85" y1="1728.37" x2="-862.55" y2="1110.07" gradientTransform="translate(-1113.88 -809.49) rotate(-90)" gradientUnits="userSpaceOnUse"><stop offset="0" stop-color="#97390e"/><stop offset="1" stop-color="#ee7c3e"/></linearGradient><clipPath id="clip-path"><path class="cls-1" d="M-25.54-83.59l-7.58.06L-359.7-81.94l-6.72.06a5.82,5.82,0,0,1-4.14-1.68l-4.89-4.81a5.83,5.83,0,0,1-1.75-4.11l-.28-33.09a5.81,5.81,0,0,1,1.67-4.14l4.81-4.9a5.82,5.82,0,0,1,4.11-1.74l7.35-.06L-33-138l7-.06a5.82,5.82,0,0,1,4.14,1.68l4.89,4.8a5.87,5.87,0,0,1,1.75,4.12l.28,33.09a5.85,5.85,0,0,1-1.67,4.14l-4.81,4.89A5.78,5.78,0,0,1-25.54-83.59Z"/></clipPath></defs><title>collection-bg</title><g class="cls-2"><g id="rip"><path class="cls-3" d="M586.74,15.27c18.81,0,34.06,11.27,34.06,25.17l3,28.18L617.08,80.3l3.72,4.39v57.13L617,151.64,620.8,165l3.43,88.37-3.43,43.75-5.33,14.65,5.33,6.77,4.23,49.1-4.23,50.89L617,425.71l3.82,8.93v76.77l-2.11,16.74,2.11,7.36V606l3.83,7.14L620.8,623,617,696.2l3.82,11.59c0,13.9-15.25,25.17-34.06,25.17l-13-2.16L567,733H486.09l-20.54-3.43L442.6,733l-68.06,4-36.34-8.11L320.57,733H193.72l-10.88-3.43L167.14,733l-49.24,2-62-2C37,733,21.79,721.69,21.79,707.79l-1.63-11,1.63-16.65v-25l4.8-5.35-4.8-4.46-2.86-26.19,2.86-55V512.3l4.8-15.18-4.8-9.81V372.14l-3.24-51.49,3.24-40.45,4.8-7.15-4.8-13.39V205.21L25.39,190l-3.6-8.94-5.66-47.92L27.21,57.47l-5.42-17c0-13.9,15.25-25.17,34.06-25.17H117.6l12.08,4.25,12.08-4.25,32.77-1.89,102.55,1.89h70.07l21.4,3.32,11.22-3.32H480.05l28.74-1.59,11.13,1.59Z"/><path class="cls-4" d="M576.15,7.24c18.81,0,34.07,11.27,34.07,25.17l3,28.18-6.75,11.68,3.73,4.39v57.13l-3.83,9.82L610.22,157l3.42,88.38-3.42,43.75-5.34,14.65,5.34,6.77,4.23,49.1-4.23,50.88-3.83,7.15,3.83,8.92v76.77l-2.12,16.74,2.12,7.37V598l3.82,7.15L610.22,615l-3.83,73.21,3.83,11.59c0,13.9-15.26,25.17-34.07,25.17l-13-2.16-6.74,2.16H475.51L455,721.5l-23,3.43-68.06,4-36.34-8.11L310,724.93H183.13l-10.87-3.43-15.71,3.43-49.24,2-62-2c-18.81,0-34.06-11.27-34.06-25.17l-1.63-11L11.2,672.1v-25l4.8-5.35-4.8-4.47L8.35,611.1l2.85-55.05V504.27L16,489.09l-4.8-9.82V364.11L8,312.62l3.24-40.46L16,265l-4.8-13.39V197.17L14.81,182l-3.61-8.94L5.54,125.15,16.62,49.44l-5.42-17c0-13.9,15.25-25.17,34.06-25.17H107l12.09,4.25,12.08-4.25,32.76-1.89L266.49,7.24h70.08L358,10.56l11.22-3.32H469.47l28.74-1.59,11.13,1.59Z"/><path class="cls-5" d="M565.62,10.92C584,10.92,598.8,22,598.8,35.63l2.94,27.66-6.57,11.47,3.63,4.31v56.09l-3.72,9.64L598.8,158l3.34,86.76-3.34,43-5.2,14.39,5.2,6.64,4.12,48.21-4.12,50-3.72,7,3.72,8.76V498l-2.06,16.44,2.06,7.23v69.24l3.73,7-3.73,9.64-3.72,71.86,3.72,11.39c0,13.64-14.85,24.71-33.18,24.71L553,713.39l-6.57,2.13H467.59l-20-3.37-22.36,3.37-66.29,3.93-35.4-8-17.17,4H182.8l-10.6-3.37-15.29,3.37-48,2-60.43-2c-18.33,0-33.18-11.07-33.18-24.71L13.74,680l1.59-16.35V639.11L20,633.85l-4.67-4.38-2.78-25.71,2.78-54V498.88L20,484l-4.67-9.64V361.28l-3.16-50.55L15.33,271,20,264l-4.67-13.15V197.38l3.51-14.88-3.51-8.78-5.51-47L20.61,52.35,15.33,35.63c0-13.65,14.85-24.71,33.18-24.71h60.15l11.76,4.17,11.77-4.17,31.92-1.86L264,10.92h68.25l20.85,3.25L364,10.92H461.7l28-1.57,10.84,1.57Z"/><path class="cls-6" d="M363.34,11.91l-8.08,2.41-9.6,11.79-2,17.86,7.25,4.16,20.94,4.76-2,7.44-14.9,8.33.8,8.34-4-11,14.09-6,1.61-4.46L351.7,52l-8.06-4.46-3.22,5.65L338,46.94V28.19l3.63-7.44L340.82,16l-5.1-3.46-4-.62H263.93l-99.27-1.85-31.72,1.85-7.57,2.7-3.63,5.55,2.42,11,9.26,2.38,25.37,20.53h3.63l16.11,20.53L161.21,57.06l-4.43-.89L150.13,52v6.25l5,12.2-8.46-13.09v-6L132.62,38.61l-10.88-2.68L125,44.86l-14.9,14.88L98.79,74.61v7.44L96.37,71.34l8.86-11.6,6-7.44-1.21-3,7.66-7.74-4.84-19.93-4.83-6.55L96.37,13.38,94.3,11.91H49.78c-18.21,0-33,11-33,24.62l5.25,16.66-10.72,74L16.8,174.1l3.5,8.74-3.5,14.83v53.26l1.93,5.42L25.49,260l8.06,2.38,9.66-7.73,12.08,1.18,1.61,6.55,2.42,8.93,5.24,3.57L56.1,271l-1.21-5.65-2.82-4.47-5.64-2.23h-4l-7.36,6.4-8.75,1.19-5.11-1.83L16.8,271l-3.13,39.57,3.13,50.36V473.56l4.65,9.61L16.8,498v50.64L14,602.49,16.8,628.1l1,.9L29,626.83h7.85l7.25-6.92,3.62-6.69,11.48-2.68-9.06,3.57-3.63,6.7-6.94,6.25,1.2,2,5.44,1.34,3.93,2.68-5.44-.89-6.34-3.13H29.62l-5.44,2.68-7,5.59-.33.37v24.45l-1.57,16.28L16.8,689.2c0,13.6,14.77,24.62,33,24.62l60.06,1.95,47.66-1.95,12.44-2.75,5.57-13.71-3.33-6.7,3.33-18.74,3-9.16-3.93,27.9,3.93,4,1.81-6.92,8.46-6.92,3.92-18.08-1.81,19.64-8.76,6.7-5.48,22.62,6.56,2.1H306l15.05-3.54-.5-4.89-3.72-4.91V675.93l3.72,24.33,3.53,3.57,1.5,6.54,32.66,7.36,65.88-3.91,22.22-3.36,19.88,3.36h78.36l5.78-1.88-4-8.56-3-.44-11.78-24.11,11.78,21.88H547l6.49,11.39,10.17,1.72c18.21,0,33-11,33-24.62l-3.3-10.09L583,673.92l-5.13-5.13-21.75-13.17L579,666.78l3.33,4.24,10.7,4.68,3.59-69.43,3.71-9.6-3.71-7v-69l-1.76-6.19-7.7-1.73L584.77,515l-6.64,2h-6.34l-7.56,6.47-11.17,4,10.27-5.58,5.13-5.58L563.63,515l-3.93-2.23s10,2.68,17.52,2.45l4.23-2.45,2.12-1.34L571.18,507l23.7,4.28,1.77-14.14V422.05l-3.7-8.73,3.7-7,4.1-49.77-4.1-48L591.51,302l-3.72.82-3.32,6.47-7.25,8.93-3.92,8.92L576,316.61l6-8,3-6-7.56.67-4.22-.89-6,.89,11.47-3.34,16-7.09,1.87-5.19L600,244.82l-3.32-86.44-3.7-13.1,3.7-9.6V81.59L589.3,85.4l-.3,8.26-2.41,3.12-1.51,7.37-12.69,10.71,9.67-10.49V89.64l-16.62,13.17-24.16,21.65.3,3.12L529.5,140.3l9.67-13.61v-3.35l18.42-19.86-15.1,5.8,16-8.26h3.62l19-13.83,1.51-5.81L596.78,69l2.8-4.88-2.93-27.56c0-13.6-14.76-24.62-33-24.62H499l-10.77-1.56-27.82,1.56Z"/><path class="cls-7" d="M361.22,13.82l-8,2.4-9.48,11.7-2,17.72,7.15,4.14,20.68,4.72-2,7.39-14.71,8.27.79,8.27-4-10.93,13.91-5.91,1.59-4.43-15.5-3.54-8-4.43L338.6,54.8l-2.39-6.21V30l3.58-7.38L339,17.87l-5-3.43-3.91-.62h-67L165.1,12l-31.31,1.83-7.48,2.68L122.74,22l2.38,10.93,9.14,2.36,25.05,20.38h3.58l15.9,20.39-17.1-17.43-4.37-.89-6.56-4.14v6.21l5,12.11-8.35-13V53l-13.91-12.7-10.73-2.66,3.18,8.87L111.21,61.3,100.08,76.07v7.38L97.69,72.82l8.75-11.52,6-7.39L111.21,51l7.55-7.68L114,23.48,109.22,17,97.69,15.28l-2-1.46H51.7c-18,0-32.55,10.94-32.55,24.44l5.18,16.53L13.75,128.3l5.4,46.52,3.45,8.68-3.45,14.72v52.87l1.9,5.38,6.67,3.63,8,2.36,9.54-7.68L57.14,256l1.59,6.5,2.39,8.86,5.17,3.55L57.94,271l-1.19-5.62L54,261l-5.56-2.21h-4l-7.26,6.35-8.64,1.18-5-1.82L19.15,271,16.06,310.3l3.09,50V472.1l4.59,9.53-4.59,14.74v50.27l-2.72,53.44,2.72,25.42,1,.9,11.1-2.15H39l7.15-6.87,3.58-6.65L61,608.08l-9,3.54-3.57,6.65-6.86,6.2,1.19,2,5.37,1.33,3.87,2.66-5.36-.88-6.26-3.11H31.8l-5.37,2.66-7,5.55-.32.37v24.27L17.6,675.47l1.55,10.69c0,13.5,14.57,24.44,32.55,24.44L111,712.54,158,710.6l12.27-2.73,5.5-13.61-3.28-6.65L175.81,669l3-9.08-3.88,27.69,3.88,4,1.79-6.87,8.35-6.87,3.87-17.94L191,679.41l-8.64,6.65L177,708.52l6.48,2.08H304.65l14.86-3.51-.5-4.86-3.67-4.87V673L319,697.14l3.49,3.54,1.47,6.5,32.24,7.31,65-3.89,21.93-3.34,19.63,3.34h77.35l5.7-1.86-3.92-8.5-3-.44-11.62-23.93L539,697.58h3.58l6.41,11.31,10,1.71c18,0,32.55-10.94,32.55-24.44l-3.26-10L578,671l-5.07-5.1-21.46-13.07,22.66,11.08,3.28,4.21L588,672.76l3.55-68.92,3.65-9.54-3.65-6.93V518.9l-1.74-6.15-7.6-1.71-2.39,2.21-6.56,2H567l-7.45,6.42-11,4,10.14-5.54,5.07-5.54-4.77-1.33L555.05,511s9.84,2.66,17.3,2.43l4.17-2.43,2.09-1.33-12.22-4.43,23.39,4.25,1.75-14V421l-3.66-8.66,3.66-6.94,4-49.4-4-47.67-5.08-6.54-3.67.81L579.5,309l-7.15,8.86-3.88,8.86,2.69-10.41,6-8,3-6-7.45.66-4.18-.88-6,.88,11.33-3.32,15.84-7,1.85-5.16L594.8,245l-3.27-85.8-3.66-13,3.66-9.53V83l-7.26,3.78L584,95l-2.39,3.1-1.49,7.31L567.58,116l9.54-10.41V91l-16.4,13.07-23.85,21.5.3,3.1-11.93,12.62,9.54-13.51v-3.32L553,104.72l-14.91,5.76,15.8-8.2h3.58l18.78-13.73,1.49-5.76,13.95-12.33,2.76-4.85-2.89-27.35c0-13.5-14.58-24.44-32.55-24.44H495.13L484.5,12.27,457,13.82Z"/><path class="cls-8" d="M441.51,702.19l-6.85,2.09s-6,0,0-4.77,6.85-2.38,6.85-2.38l2,2.09Z"/><path class="cls-8" d="M448.75,701.9l3.63,1.19v-3.87S447.14,698.32,448.75,701.9Z"/><path class="cls-8" d="M452.38,686.42s-.4,4.17,5.23,3S456.81,684.93,452.38,686.42Z"/><path class="cls-8" d="M529.7,706.06a6.24,6.24,0,0,1,6.45,0C539.37,708.14,534.94,709.63,529.7,706.06Z"/><path class="cls-8" d="M323.91,694.16l2.82,2.38S327.24,688.06,323.91,694.16Z"/><path class="cls-8" d="M512.79,670.35l4.83,2.38S516.82,664.1,512.79,670.35Z"/><path class="cls-8" d="M587.29,590.9v5.36l-6,2.68-10.06-8,4-4.76S585.28,584.65,587.29,590.9Z"/><path class="cls-8" d="M571.19,597.15l-7.25-4.69S556.28,595.37,571.19,597.15Z"/><path class="cls-8" d="M574.41,336.18h7.65s3.22-3.87,0-4.76S570.38,329.34,574.41,336.18Z"/><path class="cls-8" d="M579.24,342.13h4.25l1.79,3.28S576.42,346.3,579.24,342.13Z"/><path class="cls-9" d="M583.49,145.14l1.79-3.87-1.79-1.49S571.91,145.48,583.49,145.14Z"/><path class="cls-9" d="M581.81,148.71l-8.47,1.49v4.46s-.65,4.76,4.24,2.08S574.25,155.11,581.81,148.71Z"/><path class="cls-9" d="M554.67,168.35s6.05,1.78,6.85-1.79-3.42-2.67-3.42-2.67S550.24,164.48,554.67,168.35Z"/><path class="cls-9" d="M557.47,157.56l4.15,1.57,3.52-1.57S559.06,154.51,557.47,157.56Z"/><path class="cls-9" d="M577.56,197.51h4.25l.17-5.95S577.09,191.26,577.56,197.51Z"/><path class="cls-9" d="M463.26,93.06s6,2.68,8.05-2.38,11.28-3.86,0-5.65S450,87.71,463.26,93.06Z"/><path class="cls-9" d="M476.8,83s5.79,1.19,7.4,3.87,6.84-.9,4-3.87S477.25,79.29,476.8,83Z"/><path class="cls-9" d="M498.7,87.76a5.31,5.31,0,0,0,6.44,0C508.76,85.33,500.71,83.64,498.7,87.76Z"/><path class="cls-9" d="M489,17.18s2.43,2.38,0,5.66S483,20.54,489,17.18Z"/><path class="cls-10" d="M181.75,60.93s-1.61,3.57,4.84,3.86S190.21,62.12,181.75,60.93Z"/><path class="cls-10" d="M194.64,70.75s-.81-4.17,3.22-3S204.3,71,194.64,70.75Z"/><path class="cls-10" d="M190.12,60.93s7.55.33,11.27,3.88,3.72-1.5,3.72-3.88S190,53.19,190.12,60.93Z"/><path class="cls-10" d="M29.52,45.15s.81,8,5.24,8,8.45-4.76,1.21-8C36,45.15,37.26,49.87,29.52,45.15Z"/><path class="cls-10" d="M29.52,39.5s2,5.65,3.22,2.08S31.94,35,29.52,39.5Z"/><path class="cls-10" d="M52.07,45.15s6.45.9,6.45-1.19S54.49,41.29,52.07,45.15Z"/><path class="cls-10" d="M31.31,189.18S24.2,199,33.1,205.25s10.43-8.63,6.85-16.07C40,189.18,30.69,198.4,31.31,189.18Z"/><path class="cls-8" d="M25.09,658.75s-6,7.14,0,8.33,9.26-7.44,5.24-9.82S23,650.4,25.09,658.75Z"/><path class="cls-8" d="M37.17,667.19s2.42,4.95,5.24,1.38S41.2,662.24,37.17,667.19Z"/><path class="cls-8" d="M189.4,699.22s4,3.57,7.25,0S196.25,690.89,189.4,699.22Z"/><path class="cls-11" d="M569.58,619.93c-3.87-131.76-6.23-433.66.61-552.8.15-2.73.51-6.32-1.63-8.31S562.37,57,559.23,57c-10.32-.14-22.15-.67-30.39-.3L526.14,83l-7-25.93q-84.5,3.63-170,5l-5.61,14.06-5.33-13.9c-81,1.09-156.73-4.05-237.54-6.55-21,7.39-35.91,14.78-53.12,24.57-3.14,1.79-5.38,4.57-5,7.83,5.42,52.65,11.38,495.1,5.94,590-.29,5.15,4.94,9.29,10.86,9.41,23.79.5,39.24-1.77,61.9-2.48l7.41-10.22,6.94,4.6,5.34-.84,4.63,5.76Q272,681,397.56,685l4.61-7.7,8.12,3.85,6.35-10.89,4.55,15.55c33.5,1.23,67.32,5.72,99.94,5.93,19-15.73,39.14-47.17,48.45-71.79Z"/><path class="cls-12" d="M553.05,599.4c5.29-19.24,2.66-487.55-3.16-561.54q-16.12.87-32.32,1.65L515.07,66l-6.55-26.06q-78.45,3.64-157.79,5l-5.21,14.14-4.94-14c-75.24,1.1-150.71.53-225.74-2L61.18,76.79c-2.25,4.63,2,521.64,5.24,597.45q36.4-1.95,72.7-3.17L146,660.8l6.44,4.62,5-.84,4.3,5.79q117.46-3.32,234,.67L400,663.3l7.54,3.87,5.89-10.95,4.23,15.63q48.35,1.93,96.53,5.1h.06l38.82-77.55Z"/><path class="cls-11" d="M553,599.43,514.21,677c-4.23-2.42-26-26.59-26.38-29.89S545,607.47,553,599.43Z"/><path class="cls-11" d="M114.84,43.12c-4.21,7.75-10.34,40.82-14.19,42.35-3,1.21-28.84-6.91-39.47-8.68l53.66-33.67Z"/><path class="cls-12" d="M496.94,651.71c19.17-16.3,40.41-35.33,56.11-52.31,0,5.71-32.42,77.59-38.84,77.59a140.5,140.5,0,0,1-17.27-25.28Z"/><path class="cls-12" d="M114.84,43.12c-6.79,13.27-13.43,26.61-21.37,39.37C82.88,80,72.05,78.32,61.18,76.79c0-3.28,49.65-33.67,53.66-33.67Z"/><path class="cls-13" d="M544.94,615.57c-18.37,4.46-40.82,39.22-38.85,51a128.44,128.44,0,0,1-9.15-14.83c19.12-16.26,40.3-35.23,56-52.18l.12-.13c0,1.5-2.25,7.6-5.68,15.76a18.82,18.82,0,0,0-2.42.41Z"/><path class="cls-13" d="M89.85,77.24c10.25-3.9,17.5-20.92,20.41-31.25.11-.39.22-.78.32-1.16a15.61,15.61,0,0,1,4.26-1.71c-.17.32-.36.68-.55,1.08-6.6,12.91-13.1,25.87-20.82,38.29C82.88,80,72.05,78.31,61.18,76.79a1.71,1.71,0,0,1,.54-.9l.6.19c7.29,2.12,20.56,3.81,27.53,1.16Z"/><path class="cls-14" d="M543.14,590.17c-4.18,9.19-13,12.57-26.55,17.51-38.71,14.13-31.75,32.59-42.32,47.38-7,9.87-28.34,13-57-5.29-26.43-16.85-55.63,13.75-110.94,12.67-35.4-.69-91.34-17.36-107.83-20.09-15.24-2.53-23.36-5.67-45.06,7-8.39,4.9-12.28-.6-33.53,11.4-11.12,6.28-19,4.29-24.74-1.87C61.42,622.55,83,529.79,87.39,488.8c2-18.68-11.56-32.19-8.19-63,6-55-24.67-46.53,12.36-125.67,24.17-51.67-15.41-60.44-11.2-104.3,2.11-22-3.42-29.47-5.27-43.51-1.42-10.84-3.45-22.16-.25-31.53,6.61-19.41,28.54-10.25,42-27,19.32-24.06-7.65-50.25,48.62-38.33,28.28,6,61.16,13,96.19,1.75,10.11-3.26,35.62-3.2,44.95.47,37.27,14.68,31.48,28.25,52.77,8.76,17.36-15.89,31.63,6.48,51.08-5C429.24,50.43,447.54,55.7,486,68c5.22,1.67,11.62-6.6,21.86,8.82,7.14,10.76,27.65-27.37,27.65,58.78,0,24.45,9.86,32,9,56.67-1.45,42.56-15.15,67.28-9.83,120,3.48,34.39,9.16,51.56,7.38,88.31-1.07,21.82,6.86,26.33-3.07,56.07-15.07,45.16,22.75,92.66,4.14,133.58Z"/><path class="cls-14" d="M469.46,628.36c-12.16,11.85-21.42,17.54-55.27,9.38-50.31-12.13-63,11.63-94.34,14.24-40.16,3.34-20.52.58-48.87-12.13-17.5-7.85-23,13.12-55.86-11.24-24.47-18.12-44.39-13.74-66.8,2.77-18.13,13.37-43,14.92-55,.58C74.5,609.59,95.73,584,97,566.44c.37-5.28-1.06-12-6-23.12-5.57-12.64,15-44.53,15-69.48,0-30.52-19.79-63-19.79-107.14,0-46,44.43-58.88,25.78-98.58-2.08-4.42,18.86-32.43-5-72.38-19-31.8-10.68-75.32,8.27-84.27,5.17-2.44.77-19.22,30.28-22.21,12.86-1.3,21.1-29.36,55.79-12.75,6.36,3,43.1,5.16,54.1-.29,12.6-6.24,40.81-6.21,51.74.29,30.93,18.41,56.32-7.9,78.81,5.63,22.76,13.7,40.91,2,58.29,2,36.54,0,14.36,11.39,50,5,31.1-5.56,35.36,17,29.12,40.74-1.84,7-3.65,12.94,8.66,27.77,18.51,22.31,6.67,54.75-2.11,80.3-12.2,35.5-11.59,58.89.85,95.92,8.45,25.14-21.14,66.42-4.22,108.11,14.77,36.4-17.33,52.41,2.33,78.83,15.08,20.27,11.31,39.85,1.11,48.72-13,11.32,3.28-1.89-24.13,15.63-26.45,16.9-30.36,37.19-36.54,43.21Z"/><g id="_Группа_" data-name="&lt;Группа&gt;"><g class="cls-15"><path class="cls-16" d="M107.5,84.4,69.66,51.73s-70.54,2.81-74,5.19c-.65.44-11.65.14-29.16-.65-74.25-2.36-227.78-8.91-326.53-14-36-2.68-61.21-5-61.55-6-2.24-6.57-2-9-2-71.62,0-29.69-.09-72.91-.51-136.51l2.3-14.7,5.6-35.92s14-20.08,17.48-23.63,26.91-21.34,26.91-21.34,5.24-1.41,12.76-3.32c22.94-3.91,60.19-9.91,73.07-10,19.1-.06,114.49-13.33,142.28-13.43,14.26,0,65.12,2.56,111.28,5.12,29.65,2.38,56.44,4.71,56.44,4.71s89.49,18.23,102.44,21.67,30.76,26.84,39.05,36.2c4.17,4.7,11.69,23.32,18.15,41.74,6.4,18.24,11.76,36.28,11.79,40.38,0,6.08-7.86,75.2-12,110.83-1.45,12.57-2.43,21-2.43,21s-9.08,49.45-11.41,54.17-12.77,24.78-12.77,24.78Z"/><path class="cls-17" d="M98.14,31.94c-1.57-.77-14.86,5.19-13.71.88s-1.2-3.13-1.21-4.7-6.64,3.57-6.26,2-5.08,2.39-4.7.42-4.3,1.6-5.88,0-1.15,3.54-7.44.44-8.23.06-8.64-2.29-5.48.82-3.15-1.55a7.12,7.12,0,0,0,1.93-5.5s-2-3.51-3.56-3.9-7.07-3.09-7.09-5.44,1.51-9.41,4.63-10.61S44.2-4.16,44.2-4.16,41.05-6.49,41-8.45s-9,4.37-7.84-.34-5.49,0-2.75,0-7.4,7.1-7.81,3.58S16.38-2.8,16.75-6.72s-5.84,6.7-5.49,0-3.92.42-3.93-1.15S1.08-5,1.07-6.23s-7.82,3.19-11,2-9,1.62-10.18,1.24-9,1.63-9.81-1.11a7.41,7.41,0,0,0-3.47-3.83c-.76-.3-1.29-.46-1.29-.46S-42.13-5.19-40.38-4-40.9.69-36.26,1.46a28.26,28.26,0,0,1,2.88.6c1.52.61,2.19,1.34,4,2.5s-2.24,2.52-4,3c-.64.12-1.06.18-1.06.18s-5.76,2-.54,3.53l1.59.47a55.12,55.12,0,0,1,6,3c2.76,1.55,2.76,2.33,5.52,4.66s-.76,2.75,8.27,5.44S-1,31.81-4.55,33s-7.43,3.58-9,3.19c-.26-.06-7.72-.16-19.94-.27-73.43-.54-263.23-1.5-326.56-1.81L-374.22,34s-4.31-.36-3.18-6.64-.82-5.87-3.58-8.6-10.63-7-9.47-8.56S-396,6.35-396,4.39s-.4-.78-.81-4.31-.4-1.17-2-4.3-5.1-.75-5.51-3.1-3.92.42-6.68-1.91-5.85,3.56-7,1.22-4.67,6.3-4.71,0,.4,1.17,0-6.27-1.2-4.31,1.11-10.59c2.24-6.09,9.73,2.87,5.46-10.45-.14-.42-.28-.87-.45-1.34-5.19-15.26-1.73-23.27-3.32-26s-.8-3.13.36-5.88,2.71-5.51,3.09-6.68,1.57,1.16,3.11-3.16,1.16-2.36,2.7-7.07,5.84-6.71,3.08-9.43,8.15-12.21,8.92-14.17,1.6,2.48,2.37.91a57.52,57.52,0,0,0,1.92-6.28c.38-1.18,1.15-3.93,1.15-3.93a4.28,4.28,0,0,1-.41-2.74c.38-1.18,8.92-13.78,11.27-15s8.61-2,9.41,1.11,5.51,3.1,5.88.36c.28-2,4.67.84,7.56.41a3.71,3.71,0,0,0,3.3-2c2.26-5.11,16.21-.06,17.93-1.24s18,3.07,18,.72S-307-136-307-136s13.37,4.26,13.35,2.7,16.29,7.39,18,3.85,17.3-5.94,17.3-5.94,21.95-4.78,21.93-6.74,14.48.74,16.21-.05,24.93,3.05,24.93,3.05,3,11,4.15,8.61,15.66,2.69,16.8.72,20.86,1.5,22-2.43,9.26-.42,9.8-4,28.92-3.24,28.89-5.59,11,.36,11,.36,5.83,3.11,8.14,2.32,2.39,6.65,8.73,4.28,17.39,1.9,24.28-2.83,12.73-1.22,13.86-3.18,9.33,5.06,11.6,1.53A4.44,4.44,0,0,1-32.95-141c2.4-.63,5.85.45,7.26-.68a5.72,5.72,0,0,1,4.7-.82s14.13,2.65,19.2-1.3,6.28,2.7,6.27,0,1.6,5.87,2.77,3.9,8.66,6.6,8.64,2.29,3.57,6.64,3.94,4.29,2.38,3.51,5.09-1.21,9.41.72,9.4-.85.44,7.06.44,6.66,3.58,8.21,3.57,7,5.51,3.49,5.51,3.49l1.21,4.3A5.59,5.59,0,0,1,49.38-110c1.2,3.52.78.25,3.91-.56s-.4-.39,3.13-.8,8.6-2.8,9.79-.46a7.43,7.43,0,0,0,4,3.89c1.18.39-.76,3.54,1.19,2.74s-2.33,2.76,4.72,1.93,5.5,1.53,4.33,2.71-1.54,3.93,0,3.14.42,3.92,2.36,1.94.8,1.57,2,1.17S83.62-88,87.93-88.47s3.16,4.68,4.72,2.71.8,2,3.91-.81,2,4.3,5.5,1.53,6.28.74,7-.44,10.69,13.8,10.69,13.8a31,31,0,0,0,3.91-2c2-1.19.43,5.49,3.55,3.51s5.94,8.58,7.87,5.43,2,.77,2.74-.8S139.06-64,141-64s4.7,0,11.8,6.58c4.7,4.38,10.48,16.32,13.85,23.88,1.72,3.86,2.82,6.59,2.82,6.59l-2.71,6.29s-3.87,7.08-5.44,7.48-7,5.93-8.19,5.93S121.11,7.49,116,8.3s-9.32,13.79-9.73,11.83-1.54,4.32-1.54,4.32Z"/><path class="cls-18" d="M-370.61-13c.77-2,4.35,5.07,5.51,2.71s2,6.43,5.17,3.8a5.7,5.7,0,0,0,.5-.31c5.17-3.54,15.78,12.88,21.5,6.59s7.5-1.59,7.47-4.73,2.24-7.06,2.24-7.06l6.31-5.12s7.56,3.11,5.81,1.55.06,5.88,1.75,1.56,12.14-2,12.7-3.57,3.5,2.73,5.79.37,2.44,10.58.71,11.37l-1.73.79c1.73-.79,11.57-1.22,12.13-2.4s.08,7.45,5.83,3.12,13.86-2.4,12.1-4.75,2.79-9.42,5.15-5.9,12.15,0,12.15,0a13.64,13.64,0,0,0,11-2.39,20,20,0,0,1,11-4s-1.16.4,1.75,1.57,8.66-2.39,8.66-2.39,9.86,1.93,9.83-1.21,4.09,3.91,11.59,1.14,7,1.93,12.17,1.13,4.62-1.19,9.84-.42,5.75-3.16,9.88,3.49,4.11,5.08,11.7,10.94,1.84,9,7.59,5.85,4.68,3.51,9.86.75,3,5.87,8.09-1.21S-119.17-8-119.17-8l2.38,5.48c1.19,2.74-5.71,6.68,4.68,3.9s8.13,2.32,12.7-2.79S-94.17.88-91.9-3s8-6.69,8-6.69l3.46-1.58a7,7,0,0,0,4-2c2.3-2,0,.79,2.3-2s4.48-12.95,6.28-7.07,3,7.83,5.3,7.82,10.45,2.31,10.42-.82a4.78,4.78,0,0,1,2.84-4.32s8.09-2,8.1-.42.64,5.48.64,5.48-1.13,2,2.89-.4c2.32-1.36,2.89-4.67,4.3-6,.7-.95,1.71-.81,3.72,2,4.75,6.63,4,10.17,7.9,9s1.16-3.14,4.29-3.55-2,2.36,3.13-.41,2.36.37,5.08-2.78,3.13-.81,6.27-.44a5.68,5.68,0,0,1,4.33,2.72s1.19,2,3.14,1.55,1.62,7,3.92-.42.36-4.31,2.3-7.46,2.75,0,3.91-2.77,7.8-5.93,7.8-5.93,3.53.37,4.3-1.6c.35-.89,2.06-1.95,3.83-2.84C32.75-35,35-35.85,35-35.85s2,2,4.3-2,5.87-1.21,7.81-4,7.75-10.78,7.74-12.34,2.36.37,4.31-1.6,8.63,1.9,9.79-.46,3.92.37,5.08-2.38,3.92.36,1.16-2.75,4.63-11.79,1.5-10.6-1.61-5.87-3.17-5.46S68.36-84,65.22-83.62s3.1-6.29-.42-4.31,1.11-11-2-7.43-4.31-.37-5.47,2.38S55-94.53,52.24-91,46.72-96,46.72-96s.73-7.85-1.2-3.91-1.58-.78-2.74.41-.06-9-4.73-3.5-5.51-3.1-8.61,2.41-7.46-1.91-9,4-4.29,2.38-3.87,7.47S9.93-86.79,9.91-91.1,10.6-104,8.66-102.46s-8.21,4-8.21,4-4.73-3.5-5.53-6.63,11.73-3.6,9.38-4.37,6.64-2.4,6.64-2.4l2.78,2.48s2.3-7.07-.05-7.45,4.27-5.9-.81-3.52.76-4.32-2.37-3.51-3.16-3.51-7.07-1.52-10.18,1.24-10.95,4,.06,9.41-3.06,11.78S-18-110-18-110s-4.69,3.41-5.85,5.38-4.31.81-4.31.81-3.71,2.74-4.87,2.18a.86.86,0,0,1-.31-.19c-1.18-1.17-7.53,0-5.82-2.33,1.19-1.64,4.35-2.34,6.15-3.66a3.13,3.13,0,0,0,.89-2.25c0-1.08-.39-1.6-.88-1.82a6.73,6.73,0,0,0-3.35.27s1.79,2.89-.52,2.89-14-7.4-16.86-6.21-9.2,6.3-10.39,3.56-8.12-1.93-11.61-3.09-15,7.5-17.34,2.8-9.87-2.32-11-4.27-2.92-2.73-3-5.48-9.28-1.14-11-1.14-20.2,5.56-20.2,5.56-13.26,5.14-14.43,4-13.87,2-13.87,2-4.63.8-5.22-.77-9.27-.36-8.72-3.1-2.35-2.74-2.37-4.7-1.79-4.69-8.15-3.89-14.46,1.62-13.28,3.18-14.47.45-14.47.45-9.28-1.54-11-1.93-9.21,5.13-9.21,5.13-5.14,6.29-8.62,5.91-12.16,0-14.47,0-18.45,8.94-19.06,5.8-6.35.56-4.63-1,1.13-2.75.52-5.49-5.28-6.26-8.18-6.25-11.57.44-11.57.44-7.5,2.77-11,2-14.46.84-16.78.46-12.72,1.61-7.5,3.16,7.57,4.92,4.68,5.32-9.27-.36-9.29-1.53-10.35,4.1-10.36,2.92-2.91-2.45-4.31-3.58a3.14,3.14,0,0,1-.25-.32c-.79-1.17-7,4.36-7,4.36l-3.53.66s-2.31,7.07-3.46,11.39,3.63,14.48,4,15.65-3.95-3.5-3.95-3.5-.79-1.56-3.57-6.64-3.57-7-5.55-9.37-3.17-5.86-7.86-3.87-4.29,4-5.84,7.1-1.88,11.38-3,13.34A94.86,94.86,0,0,0-405.47-67c-.69,2.13-.95,6.36-1,9.41-.06,2-.05,3.54-.05,3.54s-6.43,9.43-8,18.81c-.81,5-.23,10,3.48,13.5,10.65,10.12,16.56,14.4,20.1,15.94s9.83,5,13,5.8S-370.61-13-370.61-13Z"/><path class="cls-18" d="M91,15.92C91,12.78,86.65,14,86.65,14s-6.24,4-5.47,1.21-4.33-1.93-4.34-3.11-8.21,3.19-7,1.22-5.85,4.74-4.7,1.6S59.21,13.77,61.55,11,66.2,2.36,65,2,61.47-.74,61.85-3.1,60.64-7.79,60.24-9s.77-2.75,1.54-5.1.79,2.34.76-2.36.38-2,0-4.7,1.13-7.46,1.13-7.46a38.09,38.09,0,0,0,3.26-5.23c.41-.9.57-1.62.22-1.85-1.18-.77,1.15-3.53.36-5.1s3.91-2,4.69-2,4.76,9,5.14,6.24,7.83-1.23,7.82-3.19,1.15-3.53,1.14-5.49,1.49-9.17,1.87-11.13,4.3-.82,4.28-4,4.69-2.78,4.69-2.78,3.16,3.12,3.15,1.94,4.7.36,4.69-2,5.11,2.71,5.11,2.71,4.32.76,5.09-.81,6.73,7.15,6.71,5.19,6.67,0,7-1.61,4.34,3.89,4.34,3.89,3.59,9.38,4.36,7.42,5.14,6.63,5.51,4.27,5.51,2.32,5.51,2.32l1.22,6.16.8,4,7.93,13.66-4.22,13L151.63.23s-39,24.56-41,25.75S91,19.05,91,15.92Z"/><path class="cls-1" d="M-379.23-208.89c.05,5.51.54,4.29,1.45,3.36l18.51-18.83,52.23-36a9.13,9.13,0,0,1,5.06-1.45l269.4-1.3,100.32-.87a4.85,4.85,0,0,1,3.45,1.4L126-208.64a4.91,4.91,0,0,1,1.45,3.43l.18,20.36L129-33.63l.15,17.76a4.9,4.9,0,0,1-1.39,3.45L73.81,42.42a4.79,4.79,0,0,1-3.42,1.45l-103.9.9-264.11,1.28a9.21,9.21,0,0,1-5.1-1.4L-360,6.53-376.09-9.31c-.93-.92-1.44-2.13-1.51-10.24l-.14-15.62L-379-186.39Z"/></g></g></g></g></svg>