<svg id="rip" xmlns="http://www.w3.org/2000/svg" viewBox="0 0 171.5 156"><defs><clipPath id="clip-path"><path class="cls-1" d="m151 207.44-105.38.94a2.46 2.46 0 0 1-1.86-.88l-2.17-2.5a3.21 3.21 0 0 1-.78-2.13l-.12-17.21a3.37 3.37 0 0 1 .75-2.15L43.6 181a2.43 2.43 0 0 1 1.84-.9l105.38-.94a2.45 2.45 0 0 1 1.86.87l2.18 2.5a3.25 3.25 0 0 1 .78 2.14l.12 17.21A3.34 3.34 0 0 1 155 204l-2.15 2.54a2.44 2.44 0 0 1-1.85.9Z"/></clipPath><style>.cls-1{fill:none}.cls-3{stroke:#000;stroke-miterlimit:10;stroke-width:.75px}.cls-5{fill:#ad5110}.cls-7{fill:#fdfdfc}.cls-8{fill:#ccc}.cls-10{fill:#d4701b}.cls-11{fill:#f6f9f2}.cls-14{fill:#984715}.cls-22{fill:#ad5500}</style></defs><ellipse cx="99.54" cy="142.37" rx="9.95" ry="57.15" transform="rotate(-88.61 99.533 142.37)" style="opacity:.43"/><path class="cls-3" d="M95.62 22.22c.26-6.25 1.32-8.59-.24-10.69s-5.71-3.21-7.74-4.39-1.81-2.57-5.88-4.45-8.89 4.59-11.17 11.62-.77 8.82.63 9.86 12.15-5.3 13.59-6.12.22 4.24.74 5.92 10.03-.87 10.07-1.75Z"/><path d="m95 12.08-10 5.84V18c1.13-.26 0 4.38.55 6 .4 1.31 6.17.08 8.79-1a26.67 26.67 0 0 0 .93-6c.09-1.16.88-3.52-.27-4.92Z" style="opacity:.39"/><path d="M95.37 12.73c-.31-.73-1.48-1.87-2.17-1.35-1.53 1.14-3.48 2.79-5.94 4.5a60.58 60.58 0 0 1-9.69 5.8 52.5 52.5 0 0 1-6.42 2.45h.07c1.4 1 12.15-5.3 13.59-6.12a.45.45 0 0 1 .36-.06 48.79 48.79 0 0 1 5.06-2.17c2.37-.84 5.46-2.32 5.14-3.05Z"/><path class="cls-5" d="M94.8 22.4c.25-6 1.26-8.21-.23-10.21S89.13 9.12 87.19 8s-1.73-2.45-5.61-4.24-8.49 4.37-10.66 11.08-.74 8.42.6 9.42 11.59-5.07 13-5.85.21 4 .7 5.66 9.55-.83 9.58-1.67Z"/><path d="m94.16 12.71-9.48 5.58v.06c1.08-.24 0 4.18.52 5.72.39 1.24 5.9.06 8.39-.92a25.67 25.67 0 0 0 .89-5.77c.08-1.08.83-3.33-.32-4.67Z" style="fill:#82320d;opacity:.39"/><path d="M94.57 13.33c-.3-.69-1.41-1.77-2.07-1.28-1.47 1.09-3.33 2.66-5.67 4.29a57.31 57.31 0 0 1-9.25 5.53 48.11 48.11 0 0 1-6.12 2.34l.06.05c1.33 1 11.59-5.07 13-5.85a.4.4 0 0 1 .34-.05 43.93 43.93 0 0 1 4.83-2.07c2.23-.84 5.18-2.29 4.88-2.96Z"/><path class="cls-7" d="M139.94 139.58a3 3 0 0 1-2.15-.64c-2-1.62-2.14-5.11-1.43-7.84a11.07 11.07 0 0 1 .87-2.31 6.67 6.67 0 0 1 2.84-3 3.93 3.93 0 0 1 1.77-.41 9.65 9.65 0 0 1 1.45.15 17.23 17.23 0 0 0 2.4.21H147.08a17.09 17.09 0 0 0 7.43-2.39c5.58-3.47 7.71-11.56 6.89-17.41a26 26 0 0 0-1.11-4.39c-.53-1.63-.91-2.81.12-3.38A1.33 1.33 0 0 1 161 98c1.64 0 4.29 3.41 5.49 5.78 4.21 8.27.87 18.14-.25 21a21.2 21.2 0 0 1-6.19 8.69c-1.63 1.4-3.55 2.33-6.89 3.31l-.94.27c-1.52.42-3.32.87-5.52 1.41-2 .5-3.59.84-4.84 1a14.67 14.67 0 0 1-1.92.12Z"/><path d="M161 99c.81 0 3.16 2.41 4.6 5.23 3.89 7.66.94 17-.29 20.14a20 20 0 0 1-5.92 8.3 16.67 16.67 0 0 1-6.51 3.11c-.29.09-.6.18-.92.26-1.55.44-3.36.89-5.5 1.41s-3.63.84-4.75 1a13.42 13.42 0 0 1-1.81.16 2.1 2.1 0 0 1-1.52-.41c-1.52-1.25-1.78-4.19-1.1-6.82a10.6 10.6 0 0 1 .8-2.1 5.61 5.61 0 0 1 2.39-2.57 2.9 2.9 0 0 1 1.33-.31c.93 0 2 .34 3.83.36h1.48a18.33 18.33 0 0 0 7.89-2.54c5.94-3.7 8.22-12.18 7.35-18.4-.52-3.67-2.11-6.41-1.49-6.75a.29.29 0 0 1 .14 0m0-2a2.23 2.23 0 0 0-1.11.28c-1.76 1-1.14 2.88-.59 4.56a24.82 24.82 0 0 1 1.07 4.22c.78 5.53-1.21 13.18-6.43 16.42a16.09 16.09 0 0 1-7 2.25h-1.32a15.75 15.75 0 0 1-2.26-.2 10.71 10.71 0 0 0-1.6-.16 4.93 4.93 0 0 0-2.2.51 7.63 7.63 0 0 0-3.3 3.45 12.44 12.44 0 0 0-1 2.51c-.73 2.83-.71 6.84 1.76 8.87a4.08 4.08 0 0 0 2.79.87 14 14 0 0 0 2.11-.19c1.28-.19 2.9-.53 4.94-1s4-1 5.55-1.42l1-.28c3.42-1 5.52-2 7.24-3.51a22 22 0 0 0 6.47-9.07c1.16-2.92 4.61-13.14.22-21.79-.84-1.64-3.81-6.32-6.39-6.32Z"/><path class="cls-5" d="M152 136c-1.55.44-3.36.89-5.5 1.41s-3.63.84-4.75 1c-2.4.36-2.95.06-3.33-.25-1.52-1.25-1.78-4.19-1.1-6.82a10.6 10.6 0 0 1 .8-2.1 5.61 5.61 0 0 1 2.39-2.57c1.45-.7 2.42 0 5.16 0a12.39 12.39 0 0 0 1.37 0h.11a22.16 22.16 0 0 0 2.21 5.25c.95 1.48 1.84 2.83 2.64 4.08Z"/><path class="cls-7" d="M79.64 142.8c-2.63 0-4.17-.6-4.71-1.82s0-2.52 1.44-4.13c2-2.25 2.53-4.61 2.61-12.6v-7.26c0-9.82-.11-24.66 1-32.6l.27-2 1.42 1.37c.47.45 11.41 11.13 10.63 18.24-.77 6.92-3.65 34.36-3.82 36.77-.25 3.5-4.58 4-8.78 4Z"/><path d="M80.94 84.52S92 95.22 91.27 101.93s-3.64 34.38-3.82 36.81-3.27 3-7.78 3.06c-4.48 0-4.78-1.79-2.53-4.28s2.78-5 2.87-13.26-.44-29.57 1-39.74m-1.51-4.17-.5 3.9c-1.1 8-1 22.89-1 32.74v7.25c-.08 8.15-.63 10-2.35 11.94s-2.29 3.68-1.62 5.2c1.08 2.42 4.51 2.42 5.63 2.42 2.85 0 9.45 0 9.81-4.92.17-2.39 3-29.8 3.81-36.73.83-7.47-9.72-17.9-10.93-19.07l-2.85-2.73Z"/><path class="cls-7" d="M124.78 144.15c-2.9 0-6.21-.22-9.71-.44-4.33-.28-9.24-.59-14.57-.59h-1c-3.89 0-5.24-1.86-5.24-3.45a4.49 4.49 0 0 1 2.42-3.62 11.51 11.51 0 0 1 6.17-1.51h1.21a17.23 17.23 0 0 1-2.56-3.54c-2.45-4.4-1.17-9.14-.47-11.06a59.3 59.3 0 0 1-2-1.28 58.37 58.37 0 0 1-13.84-13.57c-7-9.48-6.29-21.29-4.9-30.52l.27-1.75c1.08-6.92 1.88-20.36 1.88-20.49a1 1 0 0 1 .88-.93l30.84-3.9h.13a1 1 0 0 1 1 1.13 27.94 27.94 0 0 0 .32 9.63 28.84 28.84 0 0 0 5 10.91c.52.77 1.07 1.54 1.63 2.34 4.72 6.63 7.45 10.35 9.43 13.07s3.22 4.41 4.9 6.89c1.2 1.76 2.27 3.34 3.22 4.8 1.51 2.27 2.57 4 3.47 5.58a42.28 42.28 0 0 1 3.85 9c1.08 3.67 2.89 9.8 1.25 17-.09.38-.19.77-.29 1.16-.66 2.45-2 7.53-6.48 11.15-4.11 3.33-8.92 3.73-15.26 3.92-.47.06-1 .07-1.55.07Z"/><path d="M114.31 48.47a29.24 29.24 0 0 0 .33 10 29.84 29.84 0 0 0 5.19 11.26c.53.77 1.08 1.56 1.65 2.36 9.54 13.4 11 15.06 14.31 19.94 1.2 1.75 2.26 3.33 3.22 4.78 1.33 2 2.46 3.81 3.42 5.53a40.85 40.85 0 0 1 3.77 8.84c1.14 3.89 2.78 9.7 1.23 16.52-.08.37-.17.74-.28 1.12-.65 2.43-2 7.23-6.15 10.63-3.71 3-7.91 3.49-14.66 3.7h-1.55c-6.4 0-14.58-1-24.29-1h-1c-6.81 0-4.95-6.58 3.44-6.58a18 18 0 0 1 1.89.1c1.21.14 2.86.28 3.26.31-.5-.11-3.09-.82-5.68-5.47-2.88-5.16-.08-11-.08-11a28.81 28.81 0 0 1-2.67-1.66A57.89 57.89 0 0 1 86 104.46c-7.23-9.8-5.83-22.35-4.71-29.77.09-.62.19-1.21.27-1.75 1.1-7 1.89-20.58 1.89-20.58l30.85-3.89m0-2h-.25l-30.84 3.9a2 2 0 0 0-1.75 1.87c0 .14-.79 13.53-1.87 20.39v.38c-.07.44-.14.9-.22 1.38-1.42 9.42-2.13 21.49 5.08 31.26a59.83 59.83 0 0 0 14.08 13.81c.51.35 1 .64 1.35.89-.74 2.4-1.55 6.89.8 11.11a21.36 21.36 0 0 0 1.33 2.1c-3.71.21-6.74 1.66-8 3.9a4.07 4.07 0 0 0-.1 4.15c.54.94 2 2.51 5.63 2.51h1c5.3 0 10.19.31 14.51.59 3.52.22 6.84.44 9.78.44h1.61c6.55-.2 11.52-.62 15.87-4.14 4.69-3.83 6.12-9.12 6.81-11.67.11-.41.22-.82.3-1.22 1.7-7.46-.16-13.75-1.26-17.51a43.23 43.23 0 0 0-3.94-9.25c-.9-1.6-2-3.35-3.5-5.65-.94-1.42-2-3-3.23-4.8-1.69-2.49-2.9-4.16-4.92-6.92s-4.71-6.44-9.42-13.06a84.77 84.77 0 0 1-1.62-2.32A27.67 27.67 0 0 1 116.6 58a27.28 27.28 0 0 1-.31-9.3 2 2 0 0 0-2-2.26Z"/><path class="cls-8" d="M86 104.47a25.29 25.29 0 0 1-2.34-3.84 33.12 33.12 0 0 0 2.41 3.14c.62.72 3.33 3.85 4.32 3.3.36-.21.32-.82.39-2.08.12-1.87.26-1 .7-4.68.68-5.78 1-13.2 1.53-13.23 1.09-.07 2.23 27.12 5.35 27.25 2.43.11 4.89-16.24 6.17-16 .71.12.82 5.24.66 8.65s-.62 5.37.09 5.69 1.49-1.09 4.72-3.83a15.9 15.9 0 0 1 4.12-2.92 8.58 8.58 0 0 1 5.27-.62 16.78 16.78 0 0 0-4 1.23c-1.63.84-3.23 2.18-3 2.66s2.35-.62 5.44-.16c2.26.33 4.13 1.38 4.06 1.6s-2-.46-4.09-.62a15.31 15.31 0 0 0-12.91 5.78c-3 4-3.2 8.87-3.15 11.38a18.37 18.37 0 0 0 .66 3.34c-2.88-5.17-.08-11-.08-11s-8.48-4.42-16.32-15.04Z"/><path class="cls-8" d="M121.94 136.29c-.91 0-9.19-.22-14-.39-.76-.2-3.14-1.14-5.52-5.42a10.14 10.14 0 0 1-1-2.55 16.32 16.32 0 0 0 2.9 4.4c1.53 1.37 4.1 2.53 7.79 3s10.82.99 9.83.96ZM106.79 135.84h.49-.41Z"/><path d="M93 69.49a49.54 49.54 0 0 1-6.84-.49c-5-.68-12.4-3.38-12.66-8a4.09 4.09 0 0 1 1.35-2.93c4.09-4.32 16.22-8.11 26-8.11 6.26 0 11 1.51 13.82 4.36a9.47 9.47 0 0 1 1.83 7c-.29 1.66-.66 3.81-6.45 5.59A57.7 57.7 0 0 1 93 69.49Z" style="fill:#00aa9d"/><path d="M100.81 50.46c5.51 0 10.52 1.19 13.46 4.21A8.92 8.92 0 0 1 116 61.2c-.25 1.47-.48 3.47-6.1 5.21A57.27 57.27 0 0 1 93 69a51 51 0 0 1-6.8-.45c-5.17-.72-12-3.45-12.23-7.56-.25-4.61 14.51-10.52 26.81-10.52m0-1c-9.86 0-22.15 3.86-26.32 8.26A4.52 4.52 0 0 0 73 61c.28 4.94 8 7.79 13.09 8.5A50.56 50.56 0 0 0 93 70a58 58 0 0 0 17.13-2.63c5.62-1.73 6.42-3.86 6.77-5.89v-.1a9.86 9.86 0 0 0-2-7.4c-2.88-2.95-7.78-4.51-14.18-4.51Z"/><path class="cls-10" d="M81 69.16c-5.66 0-9.61-4.48-9.61-8.5 0-2.92 2.44-7.26 4.11-9.57a38 38 0 0 1-13.29-4.43c-8-4.51-10.72-14.56-10.59-19.83 0-.43.28-10.4 2.78-12 1.64-1.05 4.32-1.56 8.2-1.56 1.5 0 3.21.08 5.06.24 11.28.95 25.57 4.47 31.19 5.94 12.9 3.39 14.15 5.21 15.86 10 .86 2.38 1.1 7.34.78 16.11-.08 2.34-.19 4.69-.3 6.86l-.19 2.81C114.73 62 104 62 97 62a30.76 30.76 0 0 0-4.36.16c-.89 1.78-3 5.91-10.07 6.88a10.19 10.19 0 0 1-1.55.11Z"/><path d="M62.57 14.26c1.53 0 3.21.08 5 .23 9.87.84 22.73 3.75 31 5.92 13.06 3.44 13.68 5.2 15.18 9.34 1 2.7 1 9.22.71 15.72-.12 3.42-.3 6.85-.43 9.72-.36 8.31-21.42 4.73-22.21 6.29s-2.53 5.64-9.43 6.58a10 10 0 0 1-1.42.1c-5.23 0-8.61-4.11-8.61-7.5 0-3.68 4.47-10 5-10.25s-6.85-.2-14.64-4.62-10.25-14.32-10.13-18.94c.09-3.88.84-10.24 2.32-11.19s4.26-1.4 7.66-1.4m0-2c-4.08 0-6.94.56-8.74 1.72-2.76 1.78-3.18 10.26-3.24 12.82-.14 5.51 2.76 16 11.1 20.73a38.31 38.31 0 0 0 12.08 4.3c-1.66 2.58-3.42 6.21-3.41 8.83 0 4.5 4.36 9.5 10.61 9.5a14 14 0 0 0 1.69-.11c7-1 9.54-5 10.59-7C94.07 63 95.64 63 97 63c7 0 18.74 0 19.08-7.73 0-.92.09-1.89.13-2.9.1-2.11.22-4.5.3-6.84.33-9 .08-14-.83-16.47-1.89-5.22-3.59-7.18-16.56-10.59-5.64-1.48-20-5-31.35-6-1.88-.16-3.62-.24-5.15-.24Z"/><path class="cls-7" d="M52.59 26.85c-.12 4.62 2.29 14.52 10.08 18.94s15.13 4.36 14.65 4.62-5 6.57-5 10.25 4 8.23 10 7.4c6.9-.94 8.64-5 9.43-6.58s21.84 2 22.21-6.29c.13-2.87.31-6.3.43-9.72-3 1.22-6.88 3.23-12.13 2.09S97 43.63 89.7 39.39c-11.14-6.47-15.56-2.73-19.79-7.63s-2.23-11.64-2.36-17.27c-5.69-.48-10.39-.27-12.64 1.17-1.48.95-2.23 7.34-2.32 11.19Z"/><path d="M55.76 17.44c1.47-1.76 13.14-1.3 13.85 2.94.46 2.81-5.34 8.14-8.28 8.65 0 2.11.09 4.22.23 6.33 0 .46-.69.44-.72 0q-.2-3.14-.22-6.29a1.66 1.66 0 0 1-.21-.06c-2.36-.87-6.12-9.8-4.65-11.57ZM92.38 28.19c.35-2.3 1.75-4 3.13-3.77s2.23 2.23 1.88 4.52-1.75 4-3.13 3.77-2.26-2.23-1.88-4.52Z"/><path class="cls-11" d="M93.25 29.77c.13-.89.66-1.55 1.17-1.47s.81.86.68 1.75-.65 1.54-1.17 1.46-.81-.86-.68-1.74Z"/><path d="M82.1 26.63c.34-2.29 1.74-4 3.12-3.77s2.23 2.24 1.88 4.53-1.74 4-3.13 3.76-2.22-2.23-1.87-4.52Z"/><ellipse class="cls-11" cx="83.89" cy="28.35" rx="1.62" ry=".94" transform="rotate(-81.45 83.887 28.35)"/><path d="M77.32 50.41c-.49.26-5 6.57-5 10.25a7.66 7.66 0 0 0 3.6 6c.79-.32 1.54-.64 2.23-1a26.76 26.76 0 0 0 7.78-5c1.48-1.46 3.24-3.37 5.29-8.24 1.57-3.7 2-5.61 1.82-5.87s-.62.29-7.44 3.07a13.47 13.47 0 0 1-8.28.79Z"/><path d="M88.83 56.14c0-.66-2.14-1.06-3.17-1.26a16.1 16.1 0 0 0-6.49.11s-1.08-1.08-3.83-1.15a4.63 4.63 0 0 0-2.14.41c-1 .5-2.51 1.46-3.78 4.73A21.8 21.8 0 0 0 67.9 69.4c.2 2.16.86 4.13 2.49 4.94a4.3 4.3 0 0 0 5.07-1.19c1.32-2 .93-3.59 2.48-7.85a12.93 12.93 0 0 1 2.6-4.44c3.46-3.77 8.34-3.67 8.29-4.72Z" style="fill:#f7767a"/><path d="M88.83 56.14c0-.66-2.14-1.06-3.17-1.26a16.1 16.1 0 0 0-6.49.11s-1.08-1.08-3.83-1.15H75a8 8 0 0 1 1.93.43c.54.19 1.27.52 1.27.81s-2.11 1.69-3.08 3a9.18 9.18 0 0 0-1.81 4.62 17 17 0 0 1 1.68-3.47A9.38 9.38 0 0 1 77 56.84a6.82 6.82 0 0 1 2.75-1.41 6.28 6.28 0 0 1 2.82 0c.67.12 1.8.62 1.56 1.37a3.11 3.11 0 0 1-1.7 1.64c-2.17 1.05-3.81 3.8-4.44 5a13.13 13.13 0 0 0-1.55 4.33 12.07 12.07 0 0 1-.77 3.66 5.65 5.65 0 0 1-1.19 1.87 5.47 5.47 0 0 1-3.57 1.32 4.29 4.29 0 0 0 4.52-1.39c1.32-2 .93-3.59 2.48-7.85a12.93 12.93 0 0 1 2.6-4.44c3.49-3.85 8.37-3.75 8.32-4.8Z" style="fill:#d3565f"/><path d="M93.81 51.48a16.76 16.76 0 0 0-.15-2.55c-.79-3.09-4.22-4.34-4-4.86.17-.34 1.72 0 2.84.71a4.83 4.83 0 0 1 1.86 2.46c.76 2.17-.36 4.28-.55 4.24Z"/><path class="cls-10" d="M124.79 90.19c.15 2.61 2.21 5.85 4.15 7.57 1.68 1.49 3.88 2.32 3.87 4.07a3.26 3.26 0 0 1-.84 2c-2.18 2.8-2.87 8.86-1.8 13.21 1.38 5.62 6.1 9.92 11.13 11.63a16.76 16.76 0 0 0 4.8 1 12.45 12.45 0 0 0 1.33-2c1.55-6.82-.09-12.63-1.23-16.52a40.85 40.85 0 0 0-3.77-8.84c-1-1.72-2.09-3.51-3.42-5.53-3.43-3.52-7.23-6.08-13.3-10a6.33 6.33 0 0 0-.92 3.41Z"/><path class="cls-3" d="M108 24.24c3.75-4.53 5.44-5.84 8-6s6 2.14 8.16 2.87 3-.3 7 1.49 2.33 9.47-1.35 15.63-6 6.22-7.62 5.86-3.55-11.67-3.88-13.25-2.86 1.92-4.42 2.62-6.4-8.56-5.89-9.22Z"/><path class="cls-5" d="M107.76 25.28C112 21.21 113 19 115.5 18.81s5.82 2.08 7.92 2.79 3-.3 6.8 1.44 2.27 9.19-1.3 15.17-5.78 6-7.39 5.69-3.78-12-4.1-13.5-3.14 2.47-4.66 3.15-5.61-7.7-5.01-8.27Z"/><path class="cls-14" d="m115.38 19.46 2 10.72c-.52-1-3.14 2.68-4.59 3.33-1.17.52-3.88-4.36-4.77-6.87a24.57 24.57 0 0 1 3.71-4.41c.72-.73 1.91-2.76 3.65-2.77Z"/><path d="M114.65 19.56c.72-.23 2.25-.1 2.31.71.14 1.81.18 4.22.49 7a57.64 57.64 0 0 0 1.91 10.5 47.08 47.08 0 0 0 2.24 6.1h-.07c-1.62-.35-3.82-11.24-4.14-12.77a5.58 5.58 0 0 0-.14-1 44.78 44.78 0 0 0-1.6-5c-.84-2.19-1.71-5.32-1-5.54Z"/><path class="cls-14" d="M88.49 17.1a8.74 8.74 0 0 0-6.76 1.21c-1.15 2.31-.78 3-.58 3.17.5.51 1.54-.05 4.24-.86 3.9-1.16 5.58-1.15 5.64-1.83s-1.55-1.4-2.54-1.69ZM101.09 21.94a8.68 8.68 0 0 0-5.94-3.44c-2.37 1-2.5 1.76-2.48 2 0 .71 1.21 1 3.79 2.09 3.73 1.63 5 2.72 5.49 2.25s-.29-2.04-.86-2.9Z"/><path d="M57.76 20c1.67-.17 3.33-1 4.65-1.13a7.14 7.14 0 0 1 3.48.8 7.14 7.14 0 0 0-2.62-1.34c-.51-.17-4.62-1.5-5.88.12-.3.37-.57 1.08-.32 1.39s.52.16.69.16Z" style="opacity:.56;fill:#fdfdfc"/><path d="M86 104.46a57.89 57.89 0 0 0 13.61 13.35 16.29 16.29 0 0 1 2.21-5.55c3.07-4.74 7.91-6.7 10.17-7.61 4.64-1.88 8.07-1.7 14.31-1.8 7.17-.11 12.48-.21 16.12-.54-1.66-3-3.79-6.12-6.64-10.31-3.3-4.88-4.77-6.54-14.31-19.94-.57-.8-1.12-1.59-1.65-2.36a40.56 40.56 0 0 1-20 7.48c-8.71.64-14.42-2.18-18.53-2.49-1.11 7.42-2.51 19.97 4.71 29.77Z" style="fill:#283c69;stroke:#000;stroke-miterlimit:10"/><path class="cls-7" d="M95.1 143.27h-3.64c-2.63 0-4.17-.6-4.71-1.82s0-2.52 1.44-4.13c2-2.25 2.53-4.6 2.61-12.6v-7.26c0-9.82-.11-24.66 1-32.6l.2-1.5 1.28.74c.57.32 14 8.11 13.17 15.39-.37 3.36-1.63 12.87-2.85 22.07s-2.33 17.61-2.41 18.8c-.21 2.91-3.86 2.91-6.06 2.91Z"/><path d="M92.76 85s13.42 7.71 12.68 14.42-5.1 38.47-5.27 40.9c-.13 1.75-2.23 2-5.07 2h-3.64c-4.48 0-4.78-1.79-2.53-4.28s2.79-5 2.87-13.26-.44-29.57 1-39.74m-1.57-3.21-.41 2.94c-1.1 8-1 22.89-1 32.74v7.25c-.08 8.15-.63 10-2.35 11.94s-2.29 3.68-1.62 5.21c1.08 2.41 4.51 2.41 5.63 2.41h3.62c2.2 0 6.79 0 7.06-3.84.09-1.16 1.27-10.09 2.41-18.73 1.22-9.21 2.49-18.73 2.86-22.1.86-7.79-12.18-15.51-13.67-16.37l-2.57-1.48ZM76 140.92a22.24 22.24 0 0 1 3.09-2.48c.39-.26.73.37.35.62a22.43 22.43 0 0 0-3 2.38c-.32.32-.81-.2-.44-.52ZM79.55 141.89c.65-1.2 1.31-2.38 2-3.55.23-.4.84 0 .6.37-.69 1.17-1.36 2.35-2 3.55-.21.41-.81.03-.6-.37Z"/><path d="m88 141.35 2.29-2.23c.33-.32.82.2.49.52l-2.29 2.23c-.29.32-.78-.2-.49-.52ZM91.77 142.36c.78-1.12 1.61-2.21 2.48-3.26.29-.35.78.17.49.52-.83 1-1.62 2-2.36 3.11-.26.38-.87.01-.61-.37ZM113.65 86.43l9.64 11.86 7.82-6.39-9.64-11.87-7.82 6.4z"/><path style="fill:#00ace4" d="m118.09 83.89 8.57 10.55 3.36-2.74-8.57-10.55-3.36 2.74z"/><path style="fill:#fe0" d="m114.74 86.63 8.57 10.54 3.35-2.73-8.57-10.55-3.35 2.74z"/><g style="clip-path:url(#clip-path)"><path d="m210.5 294.83-16.93-17s-31.58 1.43-33.15 2.66-139-8.88-139.56-10.71c-1.47-5-.55-5.37-1.05-108.18l3.56-26.31s6.26-10.43 7.83-12.29 12.06-11.08 12.06-11.08 22.08-6.87 27.87-6.91 34.71-7 43.13-7 59 5.11 59 5.11 40.05 9.52 45.85 11.32 13.76 14 17.46 18.83 13.35 38.43 13.37 42.7-6.51 68.51-6.51 68.51-4.09 25.69-5.13 28.15-5.73 12.87-5.73 12.87Z" style="fill:#a5420b"/><path d="M34.77 104.43c.71.4 6.66-2.69 6.14-.45s.54 1.63.54 2.44 3-1.85 2.81-1 2.27-1.23 2.1-.21 1.93-.83 2.63 0 .52-1.84 3.33-.23 3.69 0 3.87 1.2 2.46-.42 1.41.81a4.09 4.09 0 0 0-.86 2.86s.88 1.82 1.58 2 3.17 1.61 3.18 2.83-.68 4.9-2.08 5.52-.51 3.06-.51 3.06 1.41 1.21 1.41 2.23 4-2.27 3.51.18 2.46 0 1.23 0 3.32-3.69 3.5-1.85 2.8-1.24 2.64.8 2.61-3.49 2.45 0 1.76-.22 1.76.6 2.8-1.45 2.8-.83 3.51-1.66 4.91-1 4-.85 4.56-.65 4-.84 4.39.59a4.08 4.08 0 0 0 1.93 2.11s2.28-1.65 1.75-2.26.16-2.44-1.25-2.84a6.24 6.24 0 0 1-2.64-1.61c-1.05-.81 2.1-1.65 2.1-1.65s1.75-1 .17-1.83a25.49 25.49 0 0 1-3.13-1.82c-1.23-.8-1.23-1.21-2.47-2.42s.35-1.43-3.7-2.83-5.63-3.63-4-4.26 3.32-1.85 4-1.65S199 103.36 199 103.36s1.93.19 1.42 3.45.36 3.06 1.6 4.47 4.75 3.64 4.23 4.46 2.47 2 2.47 3 .18.41.37 2.24.17.61.88 2.23 2.29.4 2.47 1.62 1.75-.22 3 1 2.62-1.85 3.15-.63 2.09-3.28 2.11 0a19.53 19.53 0 0 0 0 3.26c.2 3.87.54 2.24-.5 5.51s-4.57-1.81-2.25 6.12.74 8.56 1.45 10 .36 1.62-.16 3-1.21 2.86-1.38 3.48-.71-.61-1.4 1.64-.52 1.22-1.21 3.67-2.62 3.48-1.38 4.9-3.66 6.34-4 7.36-.69 2.25-1 3.06a31.51 31.51 0 0 0-.86 3.27c-.17.61-.52 2-.52 2a2.51 2.51 0 0 1 .18 1.43c-.17.61-4 7.15-5.05 7.77s-3.85 1.05-4.21-.58-2.47-1.62-2.63-.19-3.7-1.81-4.39.84-4.91 0-5.43.65-5.45-1.59-5.45-.37-4-.38-4-.38-4.05-2.22-4.05-1.4-4.93-3.84-5.45-2-5.24 3.09-5.24 3.09-6.66 2.48-6.66 3.5-4.38-.38-4.91 0-7.55-1.59-7.55-1.59-.91-5.69-1.25-4.47-4.75-1.4-5.09-.37-6.32-.78-6.67 1.26-2.8.22-3 2.06-8.76 1.69-8.76 2.91-3.33-.18-3.33-.18-1.77-1.62-2.47-1.21-.71-3.46-2.64-2.22-5.27-1-7.36 1.47-3.86.64-4.21 1.66-2.82-2.63-3.51-.79-3.33.42-4.2 1.24a2.27 2.27 0 0 1-2.11.43s-6.32-1.39-8.59.66-2.82-1.4-2.81 0-.72-3.05-1.24-2-3.88-3.44-3.87-1.2-1.59-3.45-1.76-2.22-1.06-1.83-2.28.62-4.21-.38-4.21.44-.19-3.67-.19-3.47-1.6-4.26-1.6-3.65-2.5-1.7-2.5-1.7l-.54-2.24a2.59 2.59 0 0 1-1.94-2c-.54-1.83-.37-3.67-1.77-3.25s.18.2-1.4.41-3.86 1.46-4.39.24a3.61 3.61 0 0 0-1.76-2c-.53-.2.34-1.84-.54-1.42s1-1.43-2.11-1-2.46-.8-1.93-1.41.69-2 0-1.63-.19-2-1.06-1-.35-.81-.88-.61.51-3.26-1.42-3-1.41-2.44-2.11-1.42-.36-1-1.75.42-.89-2.23-2.46-.8-2.81-.39-3.16.23-4.78-3.75-4.78-3.75a13.2 13.2 0 0 0-1.75 1c-.87.62-.19-2.85-1.59-1.82s-2.66-4.46-3.49-2.8-.88-.4-1.23.41-.53-.81-1.4-.8-2.11 0-5.28-3.43S2.81 135 2.81 135L4 131.73s1.74-3.68 2.44-3.89 3.14-3.08 3.67-3.08 14.35-7.63 16.63-8.06 4.18-7.15 4.36-6.14.69-2.24.69-2.24Z" style="fill:#a14f00"/><path class="cls-22" d="M195.86 139.85c-.35 1-1.94-2.64-2.46-1.41s-.9-3.66-2.47-1.82-4.77-6.69-6.51-3.42-2.28.83-2.27 2.46a13.64 13.64 0 0 1-.68 3.67l-1.92 2.67s-2.29-1.61-1.76-.8 0-3.06-.53-.81-3.68 1-3.85 1.86-1.06-1.42-1.76-.2-.72-5.49-.2-5.9l.52-.41c-.52.41-3.5.63-3.67 1.24s0-3.87-1.77-1.62-4.2 1.25-3.67 2.47-.85 4.9-1.56 3.07-3.69 0-3.69 0-1.76-.8-3.33 1.25a4.63 4.63 0 0 1-3.32 2.06s.35-.21-.53-.81-2.63 1.23-2.63 1.23-3-1-3 .64-1.24-2-3.51-.59-2.11-1-3.69-.59-1.4.62-3 .22-1.75 1.64-3-1.81-1.24-2.64-3.54-5.68-.55-4.69-2.3-3-1.41-1.83-3-.39-.89-3.05-2.45.62-2.27 3.28-2.27 3.28l-.72-2.85c-.35-1.42 1.74-3.47-1.41-2s-2.46-1.2-3.85 1.45-1.59-1.21-2.28.83a8.67 8.67 0 0 1-2.44 3.48l-1 .83s-.52 0-1.22 1 0-.4-.7 1-1.37 6.73-1.91 3.68-.9-4.07-1.6-4.07-3.16-1.2-3.16.43a2.71 2.71 0 0 1-.86 2.25s-2.45 1-2.46.22-.19-2.86-.19-2.86.35-1-.87.21-.86 5.51-3 2.06-1.78-5.28-3.53-4.66-.48 1.67-1.84 1.83.87-1.22-1.4.22-1.06-.2-2.28 1.44-1.4.41-2.8.22a2.57 2.57 0 0 1-1.94-1.41s-.53-1-1.41-.81-.72-3.66-1.75.22-.17 2.24-1 3.87-1.23 0-1.75 1.44-3.49 3.08-3.49 3.08-1.58-.19-1.93.83-3.67 2.47-3.67 2.47-.88-1-1.92 1-2.63.63-3.5 2.06-3.5 2.06-3.5 2.87-1-.19-1.93.83-3.86-1-4.38.23-1.84-.16-2.35 1.28-1.75-.19-.52 1.43-2.07 6.13-.67 5.51.71 3 1.42 2.84 2.29 3.45 3.7 3.24-1.39 3.26.18 2.24-.5 5.7.9 3.86 1.93.19 2.45-1.24 1.06.81 2.28-1 2.46 2.63 2.46 2.63-.33 4.08.54 2 .7.4 1.23-.22 0 4.69 2.11 1.82 2.47 1.62 3.86-1.24 3.34 1 4-2.07 1.93-1.23 1.74-3.88 3-1.24 3 1-.32 6.72.55 5.9a19.92 19.92 0 0 1 3.68-2.06s2.11 1.82 2.47 3.45-5.25 1.87-4.2 2.27-3 1.24-3 1.24L71 190s-1 3.67 0 3.87-1.91 3.07.36 1.83-.36-1.29 1-1.71 1.42 1.82 3.16.79 4.59 2.9 4.93 1.47 0-4.89 1.38-6.12 3.33.18 3.33.18S87.28 185 87.8 184s1.93-.42 1.93-.42 1.92-1.64 2.28-1 2.28 0 1.76 1.21-2.28 1.44-2.27 3.07 1.41.81 1.41.81-.52 2 .18 2 4.23 3.85 5.11 3.23 2.79-3.28 3.15-1.86 2.46 1 3.52 1.61 4.54-3.9 5.25-1.46 3 1.2 3.35 2.22.88 1.42.89 2.85 2.79-3 3.31-3 6.15.64 6.15.64 4-2.67 4.38-2.06 4.21-1.05 4.21-1.05 1.4-.41 1.58.4 2.81.18 2.64 1.61.71 1.42.71 2.44.52-1.1 2.45-1.52 4.4 2.7 4.05 1.89 4.38-.23 4.38-.23 2.79-2.75 3.32-2.55 2.82.88 2.82.88 1.56-3.27 2.61-3.08a30.17 30.17 0 0 0 4.39 0c.7 0 5.58-8.18 5.76-6.55s1.95 3.24 1.42 4.06-.34 1.43-.16 2.86 1.6 3.24 2.47 3.24 3.51-.23 3.51-.23 2.28-1.44 3.33-1 4.39-.43 5.09-.23 3.86-.84 2.27-1.65-2.31-6.1-1.43-6.31 2.81.19 2.81.8 3.16 1.41 3.17 2 1.06 1.42 1.41 2 3.15-2.27 3.15-2.27l1.56-3.88s1-3.67 1.55-5.92-1.62-7.52-1.79-8.13 1.76 1.82 1.76 1.82.35.81 1.6 3.45a28.47 28.47 0 0 0 2.48 4.87c.88 1.22 1.41 3.05 3.52 2s1.92-2.05 2.61-3.69.85-5.91 1.37-6.93a54.2 54.2 0 0 0 2.6-6.54 25.42 25.42 0 0 0 .47-4.89v-1.84s6.81-8 2.05-13.25-7.41-7.49-9-8.3-4.4-2.62-5.81-3-3.27 6.73-3.27 6.73ZM38 112.76c0 1.63 1.94 1 1.94 1s2.8-2.06 2.45-.63 1.94 1 1.94 1.62 3.68-1.66 3.16-.64 2.62-2.46 2.1-.82 2.63.59 1.59 2-2.09 4.5-1.56 4.7a2.88 2.88 0 0 1 1.38 2.67 6.81 6.81 0 0 0 .71 3c.18.61-.34 1.43-.69 2.65s-.35-1.22-.34 1.23-.17 1 0 2.44a13.07 13.07 0 0 1-.51 3.88s-2.09 3.27-1.56 3.68-.52 1.83-.16 2.65-1.75 1-2.1 1-2.13-4.67-2.3-3.25-3.51.64-3.5 1.66-.52 1.83-.51 2.85-.7 1.23-.87 2.25-1.93.42-1.92 2.05-2.1 1.44-2.1 1.44-1.41-1.62-1.41-1-2.1-.19-2.1 1-2.29-1.41-2.29-1.41-1.93-.4-2.28.42-3-.18-3 .84-3 0-3.16.83S19 149 19 149s-1.6-4.88-1.95-3.86-2.3-3.45-2.47-2.23-2.46-1.2-2.46-1.2l-.9-5.29-3.52-7.16 1.89-6.74 1.22-1.64s17.49-12.74 18.36-13.36 8.83 3.61 8.83 5.24Z"/><path d="M186.33 165.38c1 0 2.45-1.44 3-1.45a2.38 2.38 0 0 1 2.28 1c.54 1-3.85 2.06-3.85 2.06s-1.4.21-1.22 1.23 2.12 2.23 2.12 2.84a10 10 0 0 1-.69 2.25 6.91 6.91 0 0 1-2.28.21 2.85 2.85 0 0 0-2.45.63 3.88 3.88 0 0 1-1.93.83l-1.23-.4s-1.07-3.46-1.06-2-2.29-.19-2.45 1.24-1.94-1-1.93.42-.7 0-1.05 1-3-1.2-3-.18-2-2.84-2.12-1.62a3.89 3.89 0 0 1-1.57 2.46c-.52.41-.9-4.89-1.07-3.46s-.53-.81-1.22.62-1.94-2.64-2.29-.8-1 2-1.21 3.68-2.09 2.45 0 2.44 3.85-1.86 3.5-.23-3.5 1.86-2.79 2.87.2 4.69.2 4.69-.19-1.83-.87.82-3-.59-3-.59a4.8 4.8 0 0 1-2.1 1.44c-1.05.21-1.59-1.62-1.59-1.62s-3.69-1.2-3.16-.8 2.12 2 1.42 3.25-2.11-.8-3.16-.38-.88.41-1.22 1.64a2.24 2.24 0 0 1-1.75 1.43l-1.59-1.41s-.74-6.72-1.78-3.25-.72-4.89-1-1.22 0 .65-1.93 1c-1.05.22-.36-1.42-1.05.22s-1.59-2.85-2.11-1.21-4.38 1.86-2.62 2.46.36 2.64 1.24 2.84-1.4.83-1.4.83-2.64-1.82-2.64-.8v-5.3s-2.29-1.21-1.76-.39-1.25-4.07-1.59-2.23a2.44 2.44 0 0 1-1.74 2c-.18.21-1.94-1.61-1.94-.8s-.19-2.65-.7-1-.88-.2-1.23 1-.35-.81-.87.21-1.07-2-.54-1-1.23-1.83-1 1.63-1.57 1.65-.52 2.45-.51 1.64-.51 1.64.51-2.66-.19-2.45-1.59-1.62-1.41-1 .34-1.83.34-1.83l.34-2.45.7-.82s-2.46-.8-1.75 1.23-.35.41-.52 1-.71-1.63-1.06-.2-.87.82-.34 1.43-.52 1.63.19 2.65-1.41-.4-1.4.62-1.23 0-1.23 0c-.16 2.45-1.75 2-1.92 2.67s-.36-2.85-.36-2.85-1.77-.44-3.2-.72c-1.12-.22-2-.33-1.72-.07.71.61 2.48-3.76 2.1-1.85s-1.24-1.41-1.41-.39-1.75-.2-1.22 1-1.23-.4-1.23.21-2.81-1.4-2.8 1-2.11-.6-2.28 1.65-.7-1-1.4.62-.54-3.26-.88-1.22-1.41-1-1.58.62-2.64-2-1.76-2.43-1.42-2.84-.89-2.64-3.34 0-1.76-1.22-.54-2.84-.54-2.84-2.29-1.82-2.11.42-1.57.62-1.56 2.45.52-.21 0 1.84-2.45-.4-2.45.62-2.01.98-2.16 2.38-.53.82-1.22 2-.53-.2-1.58 1.24-3-.39-2.45-.19-1.76-.81-.89-1.42.52-2 .52-2 0-6.93.67-6.53-.52 1 .7.41-2.46-1.21-1.06-1.42-1.41-2.24-.71-2.44-.71-1.63-.35-.82-2.52-.44-1.24-2.23c.87-1.23-3.34-.59-2.47-2s-2.81.63-2.11-.4-2.46-.59-1.24-2-.89-2.44-.36-2.85-2.82-2.43-.37-3.06.16-3.46 1.39-3.47-.55-4.48.86-2.66.17-2.44 1.4-1.23.87-2.45 1.4-1.64-.2-3.87 1.22-1 2.64 1.2.9 4.07l-1.74 2.86 2.27-1.22s.51-4.89 1-2.65 3-.43 3.17.79a8 8 0 0 0 .71 2.24c.36 1.22-.68 3.87 0 3.46a6.08 6.08 0 0 0 2.09-2.25c.17-.62-.72-3.67-.37-3.06s-1.23-1-1.23-1-1.07-3.25.86-3.67 1-.62 1.93-.42.52-.62 1.4-.62 1.57-2.46 1.75-1 .35-.82 1 .2 1.75-.83 1.93 0 1.22-2.25 1.58 0 1.41.6 1.06 1.83 1.4-2.66 1.41 1 1.42 1.62 2.29 2 1.92-3.07 2.45-2.26-.36-2 .7-1 .87-.82 1.93-.42 3.88-1.08 4.55-1.86c.87-1 .67-5.71 1.38-4.29s.52-1.84 1.22-1.23 1.75-2.05 1.93-.62 2.28-1.45 1.76.8.53 1.63.36 2.24.87-1.84 1.4-1 .87-1.84 1.57-1.23.88-1 1.58-1 .69-2.25 1.22-1.44 1.93-.62 1.93.2 1.76 0 1.41 1-.18-1.43-.35 1 1.75-1.44 1.77 2.43.72 3.05 1.6 3.25 2.26-3.07 2.8-1.65 2.8-.22 3.16 1.81.53 1.22.55 3.46 2.1-1 2.45.19 1.24.81 1.07 2.44.35.2.19 2.65 1.24 2.23 1.24 2.23 2.27-2.26 1.57 0 1.75-2.25 1.58-.62 2.45-1.24 1.58.6 1.23-.62.18 1.22.54 1.42-1 3.27.35.61.36 2.44-2.26 3.48-1 3.47a9.93 9.93 0 0 0 3.51-.84c1.05-.41.51-2.85 2.09-2.86s2.62-2.67 3.32-2.47.16-3.26.87-2.45-3.7-2.83-2.12-2.43.34-3.06.34-3.06 0-4.48.33-3.67.16-3.46.87-2.25 0-3.66.69-2.24 1.38-3.88 1.74-1.85 2.27-2.46 2.11-.83 1.38-3.26 1.57-1.23 2.44-3.07 2.28-.62 2.27-1 2.11.8 1.74-2.46 1.58-.22 3.32-2.06 3.51.39 3.51 0 3.16 1.61 1.93-.42 1.07 2 .36 2.44.19 3 .89 4.07.89 4.07S172 147.14 172 149s.35-.82.7.2 1.4-1.84 1.58-.62 1.74-2.26 1.58-.42 1.92-.83 1.93.39 1.75-.21 1.75-.21 1.57-1.23 1.93.19 4-1 3.69.59 2.63-1 2.46.19 3.5-1.86 2.81 0 3.15-.84 2.45.39 1.76 0 1.41.8 1-.21.71 2a19.74 19.74 0 0 1-1 3.87c-.35 1.23-3-3.44-2.29-1.81s-3.16.22-1.75 1.23-2.45.63-1.22 1.64-.18 0 0 2.24-4.77-5.88-4.75-3.23-2.28.63-1.92 2.25-1.58 1-.35 1.64.19 1.22.19 1.83-3.32 2.87-3.32 2.87-1.92 2.26.18 2 .19 1.22 1.42 1.42 1.23 1.82 2.11 1.82 2.98-4.88 4.03-4.89Z" style="fill:#b35701"/><path class="cls-1" d="M40 142.36c0 2.86.24 2.22.64 1.74l24.16-28.48a2 2 0 0 1 1.54-.75l126.56-1.12a2 2 0 0 1 1.54.72l24.53 28.05a2.8 2.8 0 0 1 .65 1.78l.64 98.42a2.74 2.74 0 0 1-.62 1.79L195.43 273a2.05 2.05 0 0 1-1.53.76l-126.56 1.11a2.07 2.07 0 0 1-1.55-.73l-24.52-28c-.42-.47-.65-1.1-.68-5.32Z"/></g><g id="Axonometric_Cube" data-name="Axonometric Cube"><g id="Cube_face_-_top" data-name="Cube face - top"><path d="M47.34 71.38a.78.78 0 0 1-.22 0l-4.59-1a1 1 0 0 1-.76-.83 1 1 0 0 1 .48-1l4.08-2.36a1 1 0 0 1 .5-.13.82.82 0 0 1 .22 0l4.59 1a1 1 0 0 1 .76.83 1 1 0 0 1-.49 1l-4.07 2.36a1 1 0 0 1-.5.13Z" style="fill:#6e7175"/><path d="m46.83 67 4.58 1-4.07 2.35-4.58-1L46.83 67m0-2a2 2 0 0 0-1 .27l-4.08 2.33a2 2 0 0 0 .56 3.68l4.58 1a1.73 1.73 0 0 0 .45 0 2 2 0 0 0 1-.26l4.07-2.36a2 2 0 0 0-.55-3.68l-4.59-1a1.61 1.61 0 0 0-.44 0Z"/></g><g id="Cube_face_-_left" data-name="Cube face - left"><path d="M58.21 143.59a1.11 1.11 0 0 1-.43-.09 1 1 0 0 1-.56-.76L46.35 70.53a1 1 0 0 1 .49-1l4.07-2.36a1 1 0 0 1 .5-.13 1 1 0 0 1 .44.1 1 1 0 0 1 .55.75l10.87 72.21a1 1 0 0 1-.48 1l-4.07 2.36a1 1 0 0 1-.51.13Z" style="fill:#575c59"/><path d="m51.41 68 10.88 72.21-4.08 2.35-10.87-72.18L51.41 68m0-2a2 2 0 0 0-1 .27l-4.07 2.35a2 2 0 0 0-1 2l10.88 72.21a2 2 0 0 0 2 1.7 2.11 2.11 0 0 0 1-.26l4.07-2.27a2 2 0 0 0 1-2l-10.9-72.27a2 2 0 0 0-1.11-1.5 1.91 1.91 0 0 0-.87-.2Z"/></g><g id="Cube_face_-_right" data-name="Cube face - right"><path d="M58.21 143.59a.82.82 0 0 1-.22 0l-4.58-1a1 1 0 0 1-.77-.83L41.77 69.48a1 1 0 0 1 .31-.88 1 1 0 0 1 .68-.27h.22l4.58 1a1 1 0 0 1 .77.83l10.87 72.29a1 1 0 0 1-1 1.14Z" style="fill:#65696b"/><path d="m42.76 69.33 4.58 1 10.87 72.21-4.58-1.05-10.87-72.16m0-2a2 2 0 0 0-2 2.3l10.87 72.21a2 2 0 0 0 1.53 1.65l4.59 1a1.65 1.65 0 0 0 .44.05 2 2 0 0 0 2-2.29L49.32 70.09a2 2 0 0 0-1.53-1.66l-4.59-1.05a2.28 2.28 0 0 0-.44 0Z"/></g></g><path style="fill:#c60d0d" d="m6.5 102.21 37.61-28.58 6.41 42.57L6.5 102.21z"/><path d="m43.38 75.44 5.92 39.32-40.66-12.92 34.74-26.4m1.47-3.63L4.36 102.58l47.39 15.06-6.9-45.83Z"/></svg>