<svg id="rip" xmlns="http://www.w3.org/2000/svg" viewBox="0 0 200 214.67"><defs><style>.cls-2,.cls-4{fill:#fdfdfc}.cls-3{fill:#ad5110}.cls-10,.cls-17,.cls-19,.cls-20,.cls-21,.cls-25,.cls-4{stroke:#000}.cls-10,.cls-17,.cls-4{stroke-miterlimit:10}.cls-10,.cls-4{stroke-width:2px}.cls-5{fill:#d4701b}.cls-13{fill:#f6f9f2}.cls-17{fill:#f6edc8}.cls-17,.cls-19,.cls-20,.cls-21,.cls-25{stroke-width:.5px}.cls-17,.cls-19,.cls-20,.cls-25{fill-rule:evenodd}.cls-19{fill:#9f9c71}.cls-19,.cls-20,.cls-21,.cls-25{stroke-linecap:round;stroke-linejoin:round}.cls-20{fill:#888556}.cls-21{fill:#e8c970}.cls-25{fill:#625f30}</style></defs><path d="M116.36 132.8c19.2 10.17 28 23.72-6.78 23.72s-90.37-12.69-90.37-19.2-2-14.69 32.76-14.69 58.63 7.12 64.39 10.17Z" style="opacity:.43"/><path class="cls-2" d="M48 58.31a4.7 4.7 0 0 1-1.2-.15c-1-.27-1.84-.94-3.16-3.55-.68-1.32-1.45-3.07-2.35-5.35-1-2.45-1.78-4.48-2.43-6.28-.14-.37-.27-.74-.39-1.09-1.34-3.84-1.77-6.32-1.54-8.81a24.67 24.67 0 0 1 4-11.84c1.93-3 9.07-12.93 19.83-14.54a20.85 20.85 0 0 1 3.1-.22c1.42 0 6.07.15 6.3 2.09.15 1.25-1.12 1.65-3 2.25a30.28 30.28 0 0 0-5 1.95C55.89 16 49.54 23.69 50 31.51a20.75 20.75 0 0 0 2.85 8.89l-.75.6.86-.51c.25.41.53.84.84 1.26A19.53 19.53 0 0 0 55.68 44a5.71 5.71 0 0 1 1.91 3.17 7.57 7.57 0 0 1-.93 4.69 12.82 12.82 0 0 1-1.58 2.39c-2.12 2.53-4.85 4.1-7.13 4.1Z"/><path d="M63.86 7.48c2.85 0 5.23.57 5.31 1.21.1.83-3.63 1.18-7.51 3.19C55.09 15.3 48.51 23.32 49 31.58a21.76 21.76 0 0 0 3 9.33.75.75 0 0 0 .07.12 15.69 15.69 0 0 0 .9 1.34c1.92 2.62 3.28 3.05 3.6 4.93a6.63 6.63 0 0 1-.83 4.07 12 12 0 0 1-1.46 2.2C52.53 55.71 50 57.31 48 57.31a3.23 3.23 0 0 1-.94-.12c-.56-.15-1.23-.47-2.53-3-.61-1.2-1.37-2.88-2.31-5.26s-1.77-4.47-2.42-6.26c-.14-.37-.27-.73-.38-1.07-1.2-3.44-1.73-5.91-1.5-8.4a23.57 23.57 0 0 1 3.9-11.38c2.13-3.32 9.11-12.6 19.14-14.1a19.89 19.89 0 0 1 3-.21m0-2a22.92 22.92 0 0 0-3.25.23c-11.18 1.68-18.53 11.9-20.52 15A25.72 25.72 0 0 0 35.88 33c-.24 2.61.22 5.29 1.6 9.24.12.35.25.73.4 1.11.64 1.77 1.45 3.81 2.44 6.3.9 2.29 1.68 4.07 2.38 5.43 1.32 2.59 2.31 3.65 3.78 4a5.49 5.49 0 0 0 1.47.19c3.07 0 6.09-2.3 7.89-4.45a14.23 14.23 0 0 0 1.71-2.58 8.6 8.6 0 0 0 1-5.31 6.69 6.69 0 0 0-2.18-3.71 18.18 18.18 0 0 1-1.79-2.07c-.3-.41-.57-.8-.8-1.19v-.07A19.74 19.74 0 0 1 51 31.45c-.48-7.4 5.59-14.69 11.55-17.79a29.23 29.23 0 0 1 4.84-1.89c1.95-.61 4-1.25 3.72-3.31-.29-2.47-4.12-3-7.29-3Z"/><path class="cls-3" d="M39.75 42.64c.65 1.79 1.46 3.84 2.42 6.26s1.7 4.06 2.31 5.26c1.3 2.56 2 2.88 2.53 3 2.24.61 5.24-1.15 7.3-3.62a12 12 0 0 0 1.46-2.2 6.63 6.63 0 0 0 .83-4.07c-.32-1.88-1.68-2.31-3.6-4.93a15.69 15.69 0 0 1-.9-1.34.75.75 0 0 1-.07-.12 25.92 25.92 0 0 1-6.56 1.48c-2.07.12-3.97.19-5.72.28Z"/><path class="cls-4" d="M127.24 82.75c-.8 13.09-7.76 44.2-8.24 50.29s.63 10 2.29 12.53 1.25 3.6-4.05 4.25-12.63-2.07-13.63-3.22c-1.3-1.49-.84-5.67-1-7.41-.4-4.93-.69-9.87-.93-14.81-.79-16.42-7.44-43.12 9.47-54.77 10-6.88 16.55 5.54 16.09 13.14Z"/><path d="M116.47 144.44a15.79 15.79 0 0 1 3.4 4.85c.3.68-.84 1.16-1.14.48a15 15 0 0 0-3.21-4.61c-.52-.54.4-1.26.95-.72ZM109.75 143.91a15.76 15.76 0 0 1 3.39 4.85c.3.68-.83 1.16-1.13.48a15.07 15.07 0 0 0-3.22-4.61c-.55-.54.41-1.26.96-.72Z"/><path class="cls-4" d="M65.76 83.23A31.9 31.9 0 0 1 63 95.49c-1.07 2.38-2.46 4.69-2.72 7.33a16.38 16.38 0 0 0 1.34 7.06c1.84 5.07 2.51 7.67 4.75 12.18.28.55 3.93.47 4.05 2.94 0 1-2.49 2.45-3.41 2.79-4.07 1.49-9 3.21-11.24 1.53a25.07 25.07 0 0 1-5.17-6.25 148 148 0 0 1-13.95-27.83c-1.87-5-4.49-17-4.76-22.29Z"/><path class="cls-2" d="M94.79 117.63a41.34 41.34 0 0 1-15.37-3.15c-8-3.28-14.81-8.6-19.81-12.87a169 169 0 0 1-18.16-18 3 3 0 0 1-.29-.35C38.31 80 35.54 76.46 33 72.92c-1.59-2.18-2.53-10-1.44-12.1 1.9-3.72 7.86-9 9.82-10.46a27.24 27.24 0 0 1 17.2-6h1a23.07 23.07 0 0 1 10.08 2.24c3.61 1.83 6.28 4.86 9.4 9.13 1.51 2.06 3.92 2.44 6.72 2.87a30.48 30.48 0 0 1 4.24.88c1.74.54 3.31 1 4.74 1.43a112.1 112.1 0 0 0 15.41 3.47c3.35.55 3.82 2.57 4.19 4.19.33 1.39.58 2.49 2.51 3.15a2.15 2.15 0 0 0 .75.13 5.4 5.4 0 0 0 2.54-1 5.3 5.3 0 0 1 2.62-1 2.79 2.79 0 0 1 2.27 1.3c.51.44 3.81 1.09 6 1.51 4.51.88 6.41 1.33 7 2.25s.7 1-3.56 7.57c-.83 1.28-1.84 2.83-3 4.71-1.35 2.08-2.59 4.3-3.79 6.45a75.35 75.35 0 0 1-6.7 10.48s-.26.33-.26.33a36.27 36.27 0 0 1-14.78 11.16c-.8.31-1.62.59-2.51.85a31.16 31.16 0 0 1-8.66 1.17Z"/><path d="M58.53 45.34h1a21.85 21.85 0 0 1 9.65 2.13c3.49 1.77 6 4.69 9.06 8.83 2.56 3.51 7.17 2.78 11.47 4.12 1.74.54 3.32 1 4.75 1.43A114.15 114.15 0 0 0 110 65.36c5.25.86 1.53 5.56 6.53 7.3a3.22 3.22 0 0 0 1.08.18c2.09 0 3.71-2 5.16-2a1.83 1.83 0 0 1 1.47.88c1 1.42 12.08 2.37 13 3.73.4.59 0 .94-6.62 11.18-3.57 5.53-6.25 11.7-10.41 16.88l-.28.35a35.41 35.41 0 0 1-14.34 10.83c-.79.31-1.6.58-2.43.82a30.12 30.12 0 0 1-8.34 1.13 40.13 40.13 0 0 1-15-3.08c-7.31-3-13.65-7.68-19.54-12.7a167.84 167.84 0 0 1-18-17.92l-.28-.32q-4.32-5-8.19-10.29c-1.47-1.94-2.27-9.33-1.41-11.06 1.74-3.4 7.41-8.49 9.54-10.11a26.32 26.32 0 0 1 16.59-5.82m0-2a28.48 28.48 0 0 0-17.8 6.23c-2 1.53-8.14 6.92-10.11 10.79-1.25 2.44-.29 10.64 1.52 13.15 2.59 3.55 5.37 7 8.27 10.39l.29.35A170.76 170.76 0 0 0 59 102.37c5.06 4.32 11.92 9.71 20.08 13a42.32 42.32 0 0 0 15.75 3.22 32.35 32.35 0 0 0 8.89-1.2c.93-.28 1.78-.56 2.6-.88a37.33 37.33 0 0 0 15.17-11.44.18.18 0 0 0 0-.07l.09-.1.17-.22a75.91 75.91 0 0 0 6.75-10.62c1.2-2.13 2.43-4.34 3.76-6.39 1.21-1.88 2.22-3.43 3-4.71 1.9-2.92 2.85-4.39 3.36-5.3a3 3 0 0 0 .18-3.38c-.84-1.25-2.67-1.7-7.66-2.67a37.68 37.68 0 0 1-5.54-1.32 3.66 3.66 0 0 0-2.92-1.5A6.19 6.19 0 0 0 119.6 70a4.66 4.66 0 0 1-2 .86 1.09 1.09 0 0 1-.43-.08c-1.4-.48-1.54-1.09-1.85-2.43-.38-1.6-1-4.29-5-4.95A111.18 111.18 0 0 1 95 59.94l-4.71-1.42a29.41 29.41 0 0 0-4.39-.92c-3-.46-4.86-.82-6.06-2.47-3.21-4.39-6-7.51-9.77-9.44a24 24 0 0 0-10.49-2.34Z"/><path class="cls-2" d="M26.17 134.24a11.37 11.37 0 0 1-2.74-.34c-5.1-1.47-9.76-3-10.66-6.09a25.87 25.87 0 0 1-.51-8.44 149.14 149.14 0 0 1 5.23-30.88c1-3.51 6.37-21.44 16.2-30.66a1 1 0 0 1 .46-.25 28.77 28.77 0 0 1 6.25-.87c2.27 0 3.89.53 5 1.63 1.68 1.72 1.62 4.43 1.55 7.3-.07 3.15-.14 6.41 1.82 9 4.34 5.81 6.2 15.56 1.09 22.18a33.08 33.08 0 0 1-9.08 8.1l-.7.41-1.5.82a16.59 16.59 0 0 0-4.77 3.29 15.78 15.78 0 0 0-2.88 6.1c-.36 1.25-.7 2.35-1 3.36l-.11.39a61.24 61.24 0 0 0-2.16 8.51c.08.12.21.28.31.41.83 1 2.36 3 1 5-.44.67-1.35 1-2.77 1Z"/><path d="M40.4 57.71c9.86 0 2.4 10.71 7.53 17.56 4.46 6 5.66 15.07 1.1 21a31.75 31.75 0 0 1-8.81 7.86l-.68.39c-2.27 1.29-4.75 2.33-6.51 4.31a16.55 16.55 0 0 0-3.1 6.49c-.41 1.41-.78 2.62-1.12 3.74a62.8 62.8 0 0 0-2.23 8.9c-.11.6 2.88 2.7 1.53 4.76-.27.41-1.07.54-1.94.54a10.44 10.44 0 0 1-2.46-.3c-4.17-1.2-9.2-2.75-10-5.41a25.19 25.19 0 0 1-.48-8.1 147.28 147.28 0 0 1 5.2-30.67c1.44-5.15 6.85-21.69 15.93-30.2a27.71 27.71 0 0 1 6-.85m0-2a29.56 29.56 0 0 0-6.47.9 2 2 0 0 0-.92.49C23 66.5 17.52 84.67 16.53 88.22a150.49 150.49 0 0 0-5.27 31.1 26.71 26.71 0 0 0 .55 8.78c1 3.53 6 5.21 11.35 6.76a12.38 12.38 0 0 0 3 .38c.66 0 2.65 0 3.6-1.44 1.74-2.64-.22-5.12-1.06-6.17a64.61 64.61 0 0 1 2-8l.14-.47c.31-1 .63-2.07 1-3.3a14.64 14.64 0 0 1 2.67-5.72 15.82 15.82 0 0 1 4.49-3.07c.51-.27 1-.54 1.52-.83q.36-.19.72-.42a34.07 34.07 0 0 0 9.37-8.35c5.41-7 3.47-17.28-1.09-23.39-1.76-2.35-1.69-5.43-1.62-8.42s.14-6-1.84-8c-1.27-1.3-3.12-1.93-5.67-1.93Z"/><path class="cls-5" d="M41.94 51.58v.06a7.85 7.85 0 0 0 3.9 4.26 14.61 14.61 0 0 0 5.72 1.37A25.28 25.28 0 0 0 70.68 50q.43-.44.84-.9a25.91 25.91 0 0 0-12-3.75c-6.13-.21-11.81 1.52-17.58 6.23Z"/><path d="M38.21 55.62c-3 .48-4.84 5-6 8.09a20.92 20.92 0 0 0 6 23.38c3.62 3 13.57 9.06 15 5.39 11.4-29.24-6.54-38.21-15-36.86Z" style="fill:#fff"/><path d="M94.79 117.63a41.52 41.52 0 0 1-15.37-3.14c-9.73-4-17.12-8.87-22-14.6-5.42-6.49-7-15.89-8.35-24.15-.25-1.56-.5-3.09-.77-4.55a22.55 22.55 0 0 1-.48-8c1.39-8.09 13.75-13.83 21-16.53a.84.84 0 0 1 .35-.07 1 1 0 0 1 .45.11 33.92 33.92 0 0 1 5.1 3.42 47.47 47.47 0 0 0 6 4l2.5 1.37a27 27 0 0 0 7.31 3.2 17.29 17.29 0 0 0 2.64.5 16.64 16.64 0 0 1 2.35.42 1 1 0 0 1 .67.66 36.43 36.43 0 0 1 1.11 5.36 41.41 41.41 0 0 0 3.83 13.1c3.18 6.34 6.18 12.33 12.78 18.31 1.63 1.48 3.1 2.6 4.4 3.6 1 .76 1.85 1.42 2.57 2.07a1 1 0 0 1 .11 1.36 36.49 36.49 0 0 1-15 11.47c-.79.31-1.61.58-2.51.85a31.59 31.59 0 0 1-8.69 1.24Z" style="fill:#283c69"/><path d="M69.16 47.63c3.49 1.77 6.41 4.91 11 7.44 6 3.28 5.7 3.32 10 4.65 1.74.54 3.57.52 5 .93 1.46 4.55 1 10.62 5 18.61 3.13 6.25 6.26 12.5 13 18.6 2.92 2.64 5.37 4.21 7 5.67a35.59 35.59 0 0 1-14.62 11.16c-.79.3-1.6.57-2.43.82a30.49 30.49 0 0 1-8.34 1.12 40.32 40.32 0 0 1-15-3.07c-8-3.24-16.14-7.89-21.58-14.31C51.88 91.77 51 80.15 49.28 71a22 22 0 0 1-.48-7.61c1.32-7.65 13.49-13.2 20.36-15.77m0-2a1.85 1.85 0 0 0-.7.13c-9.09 3.39-20.22 9.15-21.63 17.3a23.68 23.68 0 0 0 .48 8.31c.27 1.45.52 2.95.78 4.53 1.37 8.41 2.93 17.94 8.6 24.64 5 5.85 12.47 10.85 22.35 14.87a42.32 42.32 0 0 0 15.75 3.22 32.35 32.35 0 0 0 8.89-1.2c.93-.27 1.78-.56 2.6-.88a37.46 37.46 0 0 0 15.46-11.77 2 2 0 0 0-.22-2.73c-.75-.68-1.62-1.35-2.63-2.13-1.28-1-2.74-2.09-4.34-3.54-6.46-5.85-9.42-11.76-12.55-18a40.12 40.12 0 0 1-3.74-12.8A37.09 37.09 0 0 0 97.11 60a2 2 0 0 0-1.34-1.31 17.7 17.7 0 0 0-2.5-.45 15.19 15.19 0 0 1-2.47-.47 26.36 26.36 0 0 1-7.13-3.11l-2.5-1.38a45.63 45.63 0 0 1-5.86-4 34.81 34.81 0 0 0-5.25-3.51 1.9 1.9 0 0 0-.9-.22Z"/><path transform="rotate(22.74 68.732 63.53)" d="M62.31 59.27h12.86v8.5H62.31z"/><path transform="rotate(22.74 69.451 61.833)" style="fill:#00ace4" d="M63.73 60.02h11.43v3.64H63.73z"/><path transform="rotate(22.74 68.032 65.197)" style="fill:#fe0" d="M62.32 63.38h11.43v3.64H62.32z"/><path class="cls-10" d="M151.31 59.69c6.9-5.39 8.69-8.5 12.36-8.43S172 55.15 175 56.5s4.41 0 9.86 3.09 2 13.87-4.08 22.19-9.4 8.07-11.74 7.33-3.89-18.19-4.14-20.49-5 3.2-7.34 4-7.22-12.17-6.25-12.93Z"/><path d="m163.4 52.19 1.47 16.1-.07.06c-.64-1.5-5 3.51-7.26 4.25-1.81.61-5.12-7-6.08-10.81 1.51-2.26 5-5 6.11-6s3.25-3.79 5.83-3.6Z" style="opacity:.39;stroke-width:2px;stroke-miterlimit:10;stroke:#000"/><path class="cls-10" d="M162.31 52.24c1.09-.24 3.33.17 3.3 1.37 0 2.69-.33 6.25-.26 10.45a85 85 0 0 0 1.32 15.77 73.06 73.06 0 0 0 2.46 9.31h-.11c-2.33-.75-3.89-18.19-4.14-20.49a.63.63 0 0 0-.22-.46 66.08 66.08 0 0 0-1.66-7.57c-.94-3.42-1.78-8.15-.69-8.38Z"/><path class="cls-3" d="M151.78 60.76c6.58-5.14 8.3-8.11 11.79-8s7.94 3.71 10.8 5 4.2 0 9.4 2.95 2 13.24-3.89 21.18-9 7.7-11.2 7-3.71-17.35-4-19.55-4.76 3-7 3.8-6.83-11.65-5.9-12.38Z"/><path d="m163.32 53.61 1.4 15.39-.06.07c-.61-1.44-4.8 3.34-6.93 4-1.73.58-4.89-6.66-5.81-10.31 1.45-2.16 4.78-4.81 5.84-5.71s3.09-3.66 5.56-3.44Z" style="fill:#82320d;opacity:.39"/><path d="M162.28 53.65c1-.22 3.17.16 3.15 1.31 0 2.56-.31 6-.25 10a82 82 0 0 0 1.26 15 69 69 0 0 0 2.34 8.88h-.1c-2.23-.71-3.71-17.35-4-19.55a.56.56 0 0 0-.21-.44 61.75 61.75 0 0 0-1.6-7.19c-.87-3.27-1.63-7.79-.59-8.01Z"/><path class="cls-5" d="M162.15 115c-.57 0-1.15 0-1.73-.06a21.12 21.12 0 0 1-6.61-1.52 20.65 20.65 0 0 1-5.2-3.12 28 28 0 0 1-5.14-5.24c-.31-.41-.61-.81-1-1.22a12.54 12.54 0 0 0-1-1 3.25 3.25 0 0 0-2.35-.6 5.06 5.06 0 0 1-3.49-1 32 32 0 0 1-3.12-3.53 181 181 0 0 1-14.17-21.12C113 67 110.81 60.46 112 57a4 4 0 0 1 2.24-2.49l3.34-1.51 5.19-2.27c8.09-3.52 16.92-7.14 21-7.22h2.71c4.79 0 8.63 2 16.33 12.65 3.57 5 7.42 10.91 10.85 16.77 1.82 3.11 3.47 6.11 4.92 8.94 1.54 3 2.84 5.8 3.86 8.26 2.63 6.32 3.66 11 3.05 14s-7.87 7-11.65 8.52a31.29 31.29 0 0 1-11.7 2.46Z"/><path d="M146.5 44.46c4 0 7.53 1.16 15.51 12.23 3.31 4.61 7.19 10.53 10.8 16.7 1.72 2.94 3.38 6 4.89 8.89s2.75 5.58 3.83 8.19c2.33 5.59 3.6 10.4 3 13.37-.42 2.11-6.66 6-11.05 7.79a30.34 30.34 0 0 1-11.33 2.37c-.55 0-1.1 0-1.66-.06a19.89 19.89 0 0 1-6.3-1.45 19.09 19.09 0 0 1-4.94-3c-4.1-3.38-4.56-4.71-6-6.34a14.19 14.19 0 0 0-1.1-1.12c-1.77-1.6-4.11-.14-5.87-1.63a28.2 28.2 0 0 1-3-3.38 180.09 180.09 0 0 1-14.09-21c-5.42-9.59-9-18.75-4.62-20.65 2.56-1.13 5.52-2.44 8.57-3.76 8-3.5 16.73-7.06 20.63-7.14.95 0 1.84-.07 2.7-.07m0-2h-2.74c-4.25.09-12.79 3.56-21.39 7.3-1.76.76-3.48 1.53-5.12 2.25l-3.45 1.51a5 5 0 0 0-2.79 3.1c-1.26 3.79.86 10.45 6.47 20.37a182.94 182.94 0 0 0 14.26 21.26A33.07 33.07 0 0 0 135 102a6.09 6.09 0 0 0 4.13 1.24c1 0 1.38.06 1.7.34s.63.61.93 1 .62.75.94 1.18a28.23 28.23 0 0 0 5.29 5.39 21.26 21.26 0 0 0 5.46 3.28 21.91 21.91 0 0 0 6.93 1.59c.58 0 1.19.07 1.79.07a32.18 32.18 0 0 0 12.08-2.54c.12 0 11.37-4.88 12.25-9.24.66-3.2-.36-7.95-3.1-14.54-1-2.49-2.35-5.29-3.9-8.33a181.07 181.07 0 0 0-4.95-9c-3.44-5.89-7.31-11.87-10.89-16.85-8-11.05-12-13.07-17.14-13.07Z"/><path class="cls-2" d="M117.79 78.7c4.52 8 12 13.91 15.66 18.5a29.13 29.13 0 0 0 3 3.37c1.76 1.48 4.09 0 5.86 1.61a13.89 13.89 0 0 1 1.09 1.11c1.43 1.63 1.89 3 6 6.32a19.07 19.07 0 0 0 4.92 3 19.79 19.79 0 0 0 6.29 1.43 29.34 29.34 0 0 0 12.95-2.35c4.39-1.82 10.61-5.69 11.05-7.8.61-3-.65-7.76-3-13.34-21.13 10.9-55.78-16.69-58.17-21.71-2.74-5.76 6-15.53 0-16.88-3 1.33-6 2.65-8.55 3.77-4.35 1.86-2.49 13.41 2.9 22.97Z"/><path d="M173.32 89.08c5.21-.83 11.16 12 8.79 15-2.13 2.72-13.32 1.47-15.23-.95s2.58-13.45 6.44-14.05ZM153.31 65.47c2.47-1.41 3.78-3.75 2.93-5.25s-3.54-1.56-6-.15-3.77 3.75-2.92 5.24 3.53 1.56 5.99.16Z"/><path class="cls-13" d="M153.55 64.17c1-.55 1.47-1.43 1.16-2s-1.34-.55-2.3 0-1.47 1.43-1.16 2 1.35.54 2.3 0Z"/><path d="M164 78.22c2.47-1.41 3.78-3.76 2.93-5.25s-3.54-1.56-6-.15-3.77 3.75-2.92 5.24 3.53 1.56 5.99.16Z"/><path class="cls-13" d="M164.24 76.92c.95-.55 1.47-1.44 1.16-2s-1.34-.55-2.3 0-1.47 1.43-1.16 2 1.35.54 2.3 0Z"/><path class="cls-10" d="M152 45.4c-.9-8.2-1.86-11-4.68-13.22s-8.67-2.14-11.76-3-3.33-2.71-9.35-3.69-10 9.25-10.49 19.29 2.17 11.85 4.4 12.72 13.16-10.87 14.76-12.46 1.86 4.46 3.15 6.49 14.08-4.94 13.97-6.13Z"/><path class="cls-3" d="M151.5 46.82c-1.87-8-1.34-11.4-4.07-13.53S139 31.21 136 30.42s-3.22-2.63-9.07-3.58-9.74 9-10.17 18.72 2.1 11.5 4.26 12.34 13.65-11 15.2-12.58 1.77 5.31 3 7.28 12.54-4.6 12.28-5.78Z"/><path d="m147.07 34.14-10.63 10.94v.09c1.36-.73 1.61 5.56 2.81 7.43 1 1.52 7.9-2.09 10.88-4.33.23-2.55-.69-6.67-.94-8s-.09-4.77-2.12-6.13Z" style="fill:#984715"/><path d="M147.85 34.82c-.67-.82-2.55-1.85-3.25-1-1.56 2-3.46 4.78-6 7.82a80.3 80.3 0 0 1-10.34 10.79 66.15 66.15 0 0 1-7.32 5.38h.09c2.16.84 13.13-10.15 14.69-11.69.16-.16.82-1.1.95-1.1a64.73 64.73 0 0 1 5.7-4.54c2.71-1.87 6.14-4.85 5.48-5.66Z"/><path class="cls-5" d="M161.51 68c4.34-.62 7.88 2 9.13 3 1.13 3.43.48 4.26.16 4.5-.78.6-2.12-.38-5.71-2-5.18-2.4-7.51-2.72-7.46-3.67s2.44-1.61 3.88-1.83ZM155.61 54.68c3.51 2.63 4.17 7 4.33 8.6-1.61 3.23-2.66 3.36-3.05 3.31-1-.13-1.24-1.77-2.61-5.48-2-5.35-3.41-7.22-2.71-7.86s2.88.56 4.04 1.43Z"/><path d="M160.88 105.45a26.35 26.35 0 0 0 8.34-3.43c.3-.2.6.28.3.48A26.68 26.68 0 0 1 161 106c-.31.07-.48-.47-.12-.55ZM155.55 57.13a23.9 23.9 0 0 1 1.09 3.52 5.7 5.7 0 0 0 .86 2.35c.68 1 1.14 1.07 2.29 1.15.59 0 .49.93-.09.9-1.27-.08-2.58-.29-3.25-1.5a7.27 7.27 0 0 1-.57-2.15 23.33 23.33 0 0 0-1.16-3.93c-.21-.47.62-.89.83-.34ZM169.49 72.94a23.91 23.91 0 0 0-3.16-1.26 6 6 0 0 1-2.13-.94 2 2 0 0 1-1-2c0-.5-.83-.5-.81 0a3.21 3.21 0 0 0 1.29 2.88 7.42 7.42 0 0 0 1.93.69 22.74 22.74 0 0 1 3.52 1.34.37.37 0 1 0 .36-.71ZM144.36 93.27c1.76-.84 3.51.26 4.51 1.76 1.22 1.84 1.32 4.19-.47 5.67-.56.46-1.15-.5-.6-1 2-1.66-.23-6.77-2.85-5.53-.65.36-1.25-.59-.59-.9Z"/><path d="M125.71 100.18a2 2 0 0 1-1.44-.55 6.89 6.89 0 0 1-1.12-2.74 11.4 11.4 0 0 0-.84-2.39l-.81-.91c-5.68-6.47-16.26-18.52-14.79-36.51.15-1.71 5.37-4.06 6.4-4.06a1.14 1.14 0 0 1 .87.37l.29.33v.49c-1.78 17.78 11.66 35.59 17 41a1.25 1.25 0 0 1 .22 1.41c-.52 1.25-3.74 3.6-5.74 3.6Z" style="fill:#00aa9d"/><path d="M113.11 54c.1 0 .15 0 .14.09-2 19.54 13.56 38 17.27 41.76.55.55-3 3.31-4.81 3.31a1 1 0 0 1-.73-.25c-.6-.61-1.18-4.23-1.92-5.08-5.49-6.31-16.86-18.27-15.35-36.68.08-.9 4.55-3.15 5.4-3.15m0-2c-1.25 0-7.18 2.43-7.39 5-1.51 18.41 9.25 30.66 15 37.25l.76.86a14.58 14.58 0 0 1 .68 2.06c.48 1.65.75 2.54 1.36 3.16a3 3 0 0 0 2.16.85c2.33 0 6-2.51 6.67-4.21a2.26 2.26 0 0 0-.45-2.51c-5.23-5.27-18.43-22.75-16.69-40.15a2.09 2.09 0 0 0-.52-1.6 2.17 2.17 0 0 0-1.61-.69Z"/><path d="M179.14 102.73c-.62-2.28-.38-4.85-.84-6.66-.67-2.65-2.92-4-2.78-4.15s1.65 1 3.06 2.77c.47.58 4.26 5.3 2.78 7.76-.35.57-1.14 1.28-1.67 1.11-.35-.12-.49-.56-.55-.83Z" style="opacity:.56;fill:#fdfdfc"/><path class="cls-2" d="M111 134.81a4.34 4.34 0 0 1-2.2-.57c-2.6-1.52-3.71-5.61-3.09-8.32a19 19 0 0 1 1.77-4.71c.56-1.09.64-1.33.5-1.54-.25-.39-1.35-.48-2.63-.59-.64 0-1.36-.11-2.15-.22a29.16 29.16 0 0 1-11.35-4c-7-4.64-7.88-13.6-7.91-14a16.17 16.17 0 0 1 1.9-9.38c1.06-1.9 3.28-5.86 7.07-5.86a7.69 7.69 0 0 1 2.9.67c4 1.63 5.5 4.1 7.1 6.72.51.85 1 1.72 1.69 2.62.33.47.67.91 1 1.35a32.2 32.2 0 0 1 2.31 3.37 2.69 2.69 0 0 0 .36.53 3.29 3.29 0 0 0 .68.39l1.94.87c5.13 2.29 11 4.9 13.71 10 4 7.45-2.43 15.39-3.18 16.27-2.64 3.1-7 6.44-10.41 6.44Z"/><path d="M92.92 86.59a6.93 6.93 0 0 1 2.48.6c4.87 2 5.65 5.22 8.34 9 1.14 1.6 2.27 2.93 3.26 4.64a2.9 2.9 0 0 0 .53.75 3.21 3.21 0 0 0 1 .57c5.39 2.49 12.24 5 15.18 10.43 3.75 6.93-2.51 14.5-3.06 15.15-2.37 2.78-6.56 6.09-9.65 6.09a3.35 3.35 0 0 1-1.69-.43c-2.14-1.26-3.17-4.85-2.63-7.24 1-4.48 3-5.64 2.14-7-.72-1.09-2.66-.87-5.49-1.25a28.11 28.11 0 0 1-10.92-3.9c-6.56-4.34-7.43-12.79-7.47-13.23a15.29 15.29 0 0 1 1.78-8.8c1.2-2.14 3.15-5.35 6.2-5.35m0-2c-4.37 0-6.87 4.47-7.94 6.37a17.16 17.16 0 0 0-2 10c0 .39 1 9.82 8.36 14.72a29.69 29.69 0 0 0 11.76 4.21c.82.11 1.56.17 2.21.23s1.15.1 1.58.17c-.08.16-.17.34-.26.5a20.59 20.59 0 0 0-1.86 4.94c-.71 3.12.55 7.65 3.56 9.41a5.27 5.27 0 0 0 2.71.71c4.25 0 9-4.27 11.17-6.79.8-.94 7.65-9.36 3.3-17.4-2.92-5.39-8.9-8.06-14.18-10.42l-1.93-.87a3.14 3.14 0 0 1-.42-.22l-.17-.29a36.19 36.19 0 0 0-2.38-3.47c-.32-.43-.65-.87-1-1.33-.62-.87-1.14-1.73-1.65-2.56-1.69-2.76-3.29-5.37-7.57-7.12a8.6 8.6 0 0 0-3.21-.82h-.07Z"/><path d="M107.07 126.6c1.44.88 2.76-.43 3.54-1.23.54-.56 1.67.28 1.12.85-1.33 1.38-3.19 2.68-5.42 1.33-.78-.47-.01-1.41.76-.95ZM106.36 129.9a5 5 0 0 0 3.6-.12c.72-.34 1.62.72.88 1.06a6.25 6.25 0 0 1-4.58.3c-.86-.26-.76-1.5.1-1.24Z"/><path class="cls-17" d="m58.7 127.05 39.51-7.8-43.98 42.66-39.52 7.81 43.99-42.67z"/><path style="fill:#ddcc9a;fill-rule:evenodd;stroke-width:.5px;stroke-miterlimit:10;stroke:#000" d="m98.21 119.25 43.43 30.37-43.99 42.66-43.42-30.37 43.98-42.66z"/><path class="cls-17" d="m141.38 149.67 47.63 12.9-43.99 42.66-47.63-12.9 43.99-42.66z"/><path class="cls-19" d="m59.87 129.27 35.09-6.92-37.37 36.24-35.09 6.92 37.37-36.24z"/><path class="cls-20" d="m95 122.29 43.42 30.37-37.48 36.29-43.42-30.37L95 122.29z"/><path class="cls-19" d="m138.38 152.45 42.33 11.3-37.56 36.34-42.33-11.29 37.56-36.35z"/><path class="cls-21" d="M160.45 183.35c-1.07-4.47-2.15-5.19-10.23-3.56-1.54.31-2.19-.3-2.43-1.47-1.51-7.45 2.89-15.32-3.69-21.86l-.14-.15h-.2c-5.21-1.07-9.15.86-13 3.54l-6.92 6.7c1.64-1.06 3.17-2.22 4.67-3.35 4.59-3.48 8.87-6.72 14.77-5.6 5.93 6.14 1.75 14 3.17 21 .41 2 1.5 3 4 2.53 5.76-1.17 7.77.06 8.85 3.31ZM68.21 148.29c-4.71-5.25-9.95-9.64-16.39-11.21l-2.18 2.11c6.9 1 12.42 5.17 17.33 10.3Z"/><path d="M132 159c-1.42.92-2.82 2-4.25 3.06-3.86 2.92-7.94 6-13.37 6.83-2.93.44-5.47 2.14-8 3.83-2.75 1.83-5.48 3.66-8.52 3.65-4.61 0-6.64-2.25-8.71-4.55a16.35 16.35 0 0 0-4.65-4c-5.5-5.34-10.5-13.06-16.26-19.49L67 149.52c5.94 6.22 11 13.91 16.56 19.38l.08.07.09.05a15 15 0 0 1 4.35 3.72c2.28 2.53 4.51 5 9.72 5 3.45 0 6.35-1.94 9.27-3.89 2.41-1.6 4.83-3.22 7.46-3.61a24.75 24.75 0 0 0 10.53-4.55Z" style="fill:#d6b35f;stroke-linecap:round;stroke-linejoin:round;stroke-width:.5px;stroke:#000"/><path d="M107.73 139.27c-6.85-4.13-22.81-.36-26.41 7.48-2 4.44 8.67 19.05 11.91 21.47 8 6 10.58-11 16.15-6.4 6.76 5.56 9.25.59 13.25-2.89 2.77-2.4 8.89-1.79 7.1-7.35-2.19-6.79-17.66-3.47-22.35-4.27-6.05-1.04 4.54-5.52.35-8.04Z" style="fill:#d6b35f;stroke-linecap:round;stroke-linejoin:round;fill-rule:evenodd;stroke-width:.5px;stroke:#000"/><path d="M99.53 144.31c-12.47-1.74-14.29 7.26-8.22 16.45 4 6 7.73 5 13.56.32 1.43-1.15 5.28-.91 6.49-.29 4.77 2.44 23.93-7.86 12.23-10.91-4.89-1.28-10.72 1.43-16.32-.3-3-.93-5.88-5.35-7.74-5.27Z" style="fill:#4e8290;stroke-linecap:round;stroke-linejoin:round;fill-rule:evenodd;stroke-width:.5px;stroke:#000"/><path class="cls-20" d="m41.38 147.2.17.09c1.36.8.83 2.54 1.16 3.85.42 1.62 2.92-2.82 3.39-2.95 4.07-1-.53 3.83.6 4.34.65.3 5.15-2.08 6.32-2.31 2.84-.56 3.08 2.49.3 3.2-1.3.34-5.65 2-3.14 3.23 2 1 2.52 2 2.3 2.95l-30 5.91ZM135.35 173.8c-1.36 0-2.47-1.43-4.79-.84s.5 2.46-1.77 3.22c-1.89.63-3.81.11-5.63.93-1.41.63-4.63 2.86-1.16 2.89 1 0 3.71-.7 4.22.3.93 1.79-4.56 4.71.41 6.28 2.51.8 2.56-5.71 6.94-.57 1.34 1.58 6.85 3.08 8.78 2.58.66-.17.3-1.43.55-1.87 1.06-1.79 9.65 7.27 7.71-.25-.29-1.13-5.3-2.76-6.55-3.33-2.34-1 1.27-9.28-1.9-11.43-3.38-2.29-4.64 2.02-6.81 2.09ZM155.28 157c-.14.74-.78 1.3-1.84 2.87-2.2 3.25-.81 3.32 2.7 2.41 4.31-1.1-.38 4-.74 5.2-1.62 5.23 8.42-3.41 9.78.43 1 2.68 6.06.73 8.28-.06.67-.24 2.08-3.56 2.58-5.31ZM135.81 163.84c-1.25.42-2.47 1.13-1 2.32s-.46 1.11-.35 2c.3 2.44 3.47-1.13 4.42-1 .56.09 1.41.76 1.83.39.91-.79 1.18-3.47.9-4.55-.48-1.87-1.33-2.42-3.26-1.93a2.53 2.53 0 0 0-1.57 1.27c-.19.34-1.28 1.5-.97 1.5ZM73.3 130.32c-2.33 2.76-4-.72-4.73 2.43 0 .08-5.39 7.43-.33 6.13 2-.51 2.94-2.14 5.5-2.8 2.24-.57 6.71-3.73 8.06-2.93 3.15 1.86 9.37 3.64 13.94 2.46 1.08-.28 11.89 1.48 6.68-2.23-2.08-1.48-5.68-2.59-6.29-4.95-1.73-6.74-6.78-3.27-11.74-2-2.82.73-8.51.85-11.09 3.89Z"/><path class="cls-25" d="M83.09 133.82c3.36 1.58 8.64 2.82 12.65 1.79 1.08-.28 11.89 1.48 6.68-2.23-2.08-1.48-5.68-2.59-6.29-4.95-.68-2.65-1.87-3.72-3.37-4ZM113 139.9c1.73 1.46-1 2.59 0 3.55.35.33 2.77-.12 3.49.14 2.15.79 6.24 2.09 8.61-.13l.09-.09-10.88-7.61a5.26 5.26 0 0 0-1.31 4.14Z"/></svg>