<svg xmlns="http://www.w3.org/2000/svg" xmlns:xlink="http://www.w3.org/1999/xlink" viewBox="0 0 20 20"><defs><style>.cls-1{isolation:isolate;}.cls-2,.cls-5{fill:#9c7d75;}.cls-3{fill:#cda997;}.cls-4{fill:#ad2523;}.cls-5,.cls-6,.cls-7{mix-blend-mode:multiply;}.cls-6{fill:url(#linear-gradient);}</style><linearGradient id="linear-gradient" x1="3.13" y1="13.16" x2="9.15" y2="13.16" gradientUnits="userSpaceOnUse"><stop offset="0" stop-color="#94543d"/><stop offset="1" stop-color="#a46e5a"/></linearGradient></defs><title>info-icon</title><g class="cls-1"><g id="rip"><ellipse class="cls-2" cx="10" cy="10" rx="8.67" ry="8.75"/><circle class="cls-3" cx="9.84" cy="9.76" r="8.51"/><circle class="cls-4" cx="9.84" cy="9.76" r="6.71"/><path class="cls-5" d="M16.55,9.77v.12A6.6,6.6,0,0,0,9.84,3.54,6.6,6.6,0,0,0,3.13,9.89V9.77a6.71,6.71,0,1,1,13.42,0Z"/><path class="cls-6" d="M9.15,16.44a6.56,6.56,0,0,1-6-6.43V9.89A6.72,6.72,0,0,0,9.15,16.44Z"/><g class="cls-7"><path class="cls-2" d="M9.85,12.39a.51.51,0,0,1-.54-.54,2.34,2.34,0,0,1,.21-.91,2.4,2.4,0,0,1,.66-.88c.2-.17.38-.33.55-.5a2.14,2.14,0,0,0,.4-.58,1.86,1.86,0,0,0,.15-.79,1.32,1.32,0,0,0-.16-.64,1.22,1.22,0,0,0-.45-.48A1.33,1.33,0,0,0,10,6.88a1.74,1.74,0,0,0-.86.2,1.17,1.17,0,0,0-.5.53,1.77,1.77,0,0,0-.17.79.53.53,0,0,1-.15.39A.5.5,0,0,1,7.88,9a.51.51,0,0,1-.39-.16.53.53,0,0,1-.15-.39,2.61,2.61,0,0,1,.32-1.3,2.25,2.25,0,0,1,.92-.89A2.75,2.75,0,0,1,10,5.88a2.44,2.44,0,0,1,1.23.3A2.12,2.12,0,0,1,12,7a2.3,2.3,0,0,1,.32,1.21,2.67,2.67,0,0,1-.19,1,2.78,2.78,0,0,1-.52.79,8.66,8.66,0,0,1-.76.68,1.16,1.16,0,0,0-.38.58,2.21,2.21,0,0,0-.11.58.51.51,0,0,1-.54.54Zm0,2a.75.75,0,0,1-.74-.73.75.75,0,0,1,.74-.75.73.73,0,0,1,.52.22.71.71,0,0,1,.22.53.67.67,0,0,1-.22.51A.69.69,0,0,1,9.85,14.36Z"/><path class="cls-2" d="M9.85,14.62a1,1,0,0,1-.7-.29,1,1,0,0,1,0-1.41.89.89,0,0,1,.54-.28.78.78,0,0,1-.41-.22.79.79,0,0,1-.23-.57,2.66,2.66,0,0,1,.23-1,2.7,2.7,0,0,1,.73-1c.19-.17.37-.33.53-.49a1.82,1.82,0,0,0,.36-.51A1.68,1.68,0,0,0,11,8.19a1.14,1.14,0,0,0-.13-.51,1.06,1.06,0,0,0-.37-.39A1,1,0,0,0,10,7.14a1.55,1.55,0,0,0-.73.16,1,1,0,0,0-.4.42,1.59,1.59,0,0,0-.14.68A.77.77,0,0,1,8.46,9,.85.85,0,0,1,7.31,9a.8.8,0,0,1-.23-.58A2.79,2.79,0,0,1,7.44,7a2.6,2.6,0,0,1,1-1A3.16,3.16,0,0,1,10,5.63,2.76,2.76,0,0,1,11.31,6a2.64,2.64,0,0,1,.95.9,2.57,2.57,0,0,1,.35,1.34,2.73,2.73,0,0,1-.22,1.14,2.88,2.88,0,0,1-.57.85,7.76,7.76,0,0,1-.78.71,1,1,0,0,0-.3.46,2,2,0,0,0-.09.5.83.83,0,0,1-.22.57.78.78,0,0,1-.42.22.94.94,0,0,1,.55.28,1,1,0,0,1,.29.71,1,1,0,0,1-.29.7A1,1,0,0,1,9.85,14.62Zm0-1.48a.45.45,0,0,0-.33.14.47.47,0,0,0-.15.35.44.44,0,0,0,.15.33.46.46,0,0,0,.67,0,.43.43,0,0,0,.14-.33.48.48,0,0,0-.48-.49ZM10,6.63a1.57,1.57,0,0,1,.86.22,1.5,1.5,0,0,1,.54.58,1.56,1.56,0,0,1,.19.76,2.11,2.11,0,0,1-.18.91,2.24,2.24,0,0,1-.45.64c-.17.17-.36.35-.56.52a2.25,2.25,0,0,0-.79,1.59.27.27,0,0,0,.29.29.28.28,0,0,0,.21-.08.28.28,0,0,0,.07-.21,2.32,2.32,0,0,1,.12-.65,1.39,1.39,0,0,1,.47-.71,8,8,0,0,0,.73-.66,2.58,2.58,0,0,0,.47-.71,2.38,2.38,0,0,0,.17-.93,2,2,0,0,0-.28-1.07,2,2,0,0,0-.75-.72A2.33,2.33,0,0,0,10,6.14a2.62,2.62,0,0,0-1.25.29,2.08,2.08,0,0,0-.81.8A2.23,2.23,0,0,0,7.6,8.4a.25.25,0,0,0,.08.21.26.26,0,0,0,.2.08.24.24,0,0,0,.21-.08.28.28,0,0,0,.07-.21,2.06,2.06,0,0,1,.2-.91A1.4,1.4,0,0,1,9,6.85,2,2,0,0,1,10,6.63Z"/></g><path class="cls-3" d="M9.44,12.13A.53.53,0,0,1,9.05,12a.56.56,0,0,1-.15-.39,2.34,2.34,0,0,1,.21-.91,2.4,2.4,0,0,1,.66-.88c.2-.17.38-.34.55-.5a2.14,2.14,0,0,0,.4-.58,1.85,1.85,0,0,0,.16-.79,1.41,1.41,0,0,0-.16-.64,1.25,1.25,0,0,0-.46-.48,1.23,1.23,0,0,0-.71-.19,1.87,1.87,0,0,0-.87.19,1.27,1.27,0,0,0-.5.53,1.85,1.85,0,0,0-.17.8.52.52,0,0,1-.14.39.54.54,0,0,1-.4.15.56.56,0,0,1-.39-.15.53.53,0,0,1-.15-.39,2.67,2.67,0,0,1,.32-1.31A2.36,2.36,0,0,1,8.17,6a2.76,2.76,0,0,1,1.38-.33,2.6,2.6,0,0,1,1.23.29,2.36,2.36,0,0,1,.85.81,2.29,2.29,0,0,1,.31,1.21,2.49,2.49,0,0,1-.19,1,2.73,2.73,0,0,1-.52.78,7.46,7.46,0,0,1-.76.69,1.16,1.16,0,0,0-.38.58,2.21,2.21,0,0,0-.11.58.56.56,0,0,1-.15.39A.53.53,0,0,1,9.44,12.13Zm0,2a.7.7,0,0,1-.52-.22.71.71,0,0,1-.21-.51.72.72,0,0,1,.21-.53.74.74,0,0,1,1.05,0,.72.72,0,0,1,.21.53.73.73,0,0,1-.74.73Z"/><path class="cls-3" d="M9.44,14.36a1,1,0,0,1-1-1,1,1,0,0,1,.29-.71,1,1,0,0,1,.54-.29.71.71,0,0,1-.41-.21.79.79,0,0,1-.23-.57,2.66,2.66,0,0,1,.23-1,2.73,2.73,0,0,1,.73-1c.19-.17.37-.33.53-.5a1.64,1.64,0,0,0,.36-.5,1.68,1.68,0,0,0,.13-.68,1.06,1.06,0,0,0-.13-.52A1.09,1.09,0,0,0,10.13,7a1.06,1.06,0,0,0-.58-.15A1.48,1.48,0,0,0,8.81,7a1,1,0,0,0-.4.42,1.59,1.59,0,0,0-.14.68.78.78,0,0,1-.22.57.84.84,0,0,1-1.15,0,.78.78,0,0,1-.23-.57A2.79,2.79,0,0,1,7,6.71a2.6,2.6,0,0,1,1-1,3.07,3.07,0,0,1,1.51-.36,2.75,2.75,0,0,1,1.35.33,2.49,2.49,0,0,1,.95.9,2.55,2.55,0,0,1,.35,1.34A2.73,2.73,0,0,1,12,9.07a2.82,2.82,0,0,1-.57.85,6.81,6.81,0,0,1-.78.71.86.86,0,0,0-.29.45,1.78,1.78,0,0,0-.1.51.83.83,0,0,1-.22.57.71.71,0,0,1-.41.21,1,1,0,0,1,.54.29,1,1,0,0,1,.29.71,1,1,0,0,1-.29.69A.94.94,0,0,1,9.44,14.36Zm0-1.48a.42.42,0,0,0-.33.14.47.47,0,0,0-.15.35.44.44,0,0,0,.15.33.46.46,0,0,0,.67,0,.44.44,0,0,0,.15-.33A.47.47,0,0,0,9.78,13,.42.42,0,0,0,9.44,12.88Zm.11-6.52a1.54,1.54,0,0,1,.85.23,1.43,1.43,0,0,1,.54.58,1.53,1.53,0,0,1,.19.76,2.22,2.22,0,0,1-.17.9,2.32,2.32,0,0,1-.46.65c-.17.17-.36.34-.56.52a2.19,2.19,0,0,0-.78,1.59.26.26,0,0,0,.07.2.26.26,0,0,0,.21.08.28.28,0,0,0,.21-.07.3.3,0,0,0,.07-.21,2.26,2.26,0,0,1,.12-.65,1.46,1.46,0,0,1,.47-.71A6.83,6.83,0,0,0,11,9.56a2.21,2.21,0,0,0,.47-.7,2.38,2.38,0,0,0,.17-.93,2,2,0,0,0-.28-1.07,1.86,1.86,0,0,0-.75-.72,2.32,2.32,0,0,0-1.1-.26,2.66,2.66,0,0,0-1.26.29A2.05,2.05,0,0,0,7.48,7a2.37,2.37,0,0,0-.29,1.18.27.27,0,0,0,.28.29.28.28,0,0,0,.21-.08.29.29,0,0,0,.08-.21A2,2,0,0,1,8,7.23a1.45,1.45,0,0,1,.61-.64A2,2,0,0,1,9.55,6.36Z"/></g></g></svg>