<svg id="rip" xmlns="http://www.w3.org/2000/svg" viewBox="0 0 364.33 263.33"><defs><style>.cls-1,.cls-2{font-size:119.8px;}.cls-1,.cls-16,.cls-17,.cls-18,.cls-19,.cls-20,.cls-21,.cls-22,.cls-23,.cls-24,.cls-25,.cls-26,.cls-3,.cls-5,.cls-6{stroke:#000;}.cls-1,.cls-3{stroke-linecap:round;stroke-linejoin:round;stroke-width:8px;}.cls-1,.cls-2,.cls-3,.cls-4{font-family:Bangers-Regular, Bangers;}.cls-2,.cls-4{fill:#fff;}.cls-3,.cls-4{font-size:139.15px;}.cls-16,.cls-17,.cls-18,.cls-19,.cls-20,.cls-21,.cls-22,.cls-23,.cls-24,.cls-25,.cls-26,.cls-5,.cls-6{stroke-miterlimit:10;}.cls-26,.cls-5,.cls-6{stroke-width:2px;}.cls-6,.cls-8{opacity:0.39;}.cls-7{fill:#ad5110;}.cls-8{fill:#82320d;}.cls-9{fill:#d4701b;}.cls-10,.cls-14,.cls-26{fill:#fdfdfc;}.cls-11{fill:#f6f9f2;}.cls-12{fill:#984715;}.cls-13{fill:#00aa9d;}.cls-14{opacity:0.56;}.cls-15{fill:#8c8157;}.cls-16{stroke-width:0.25px;}.cls-17{fill:#bbae76;}.cls-19{fill:#887e56;}.cls-19,.cls-20,.cls-21,.cls-22,.cls-23,.cls-24,.cls-25{stroke-width:0.75px;}.cls-21{fill:#b3a265;}.cls-22{fill:#58644b;}.cls-23{fill:#75835c;}.cls-24{fill:#6a765b;}.cls-25{fill:#232023;}</style></defs><title>logo-about-game</title><text class="cls-1" transform="matrix(0.98, -0.09, 0.09, 1, 154.6, 40.36)"> <tspan x="-141.06" y="82.2">SNIFFER</tspan></text><text class="cls-2" transform="matrix(0.98, -0.09, 0.09, 1, 152.39, 31.85)"> <tspan x="-141.06" y="82.2">SNIFFER</tspan></text><text class="cls-3" transform="translate(68.26 53.35) rotate(-5.75) scale(0.98 1)"> <tspan x="-99.7" y="190.96" xml:space="preserve"> DOG</tspan></text><text class="cls-4" transform="translate(63.82 43.49) rotate(-5.75) scale(0.98 1)"> <tspan x="-113.27" y="190.96" xml:space="preserve">  DOG</tspan></text><path class="cls-5" d="M256.57,107.73C257.78,95,256.28,90,260,86.19s12.46-4.91,16.89-6.73,4.4-4.69,13.16-7.34,16.75,11.74,19.41,26.57-.88,18-4,19.78-23.15-14.12-25.85-16.16-1.62,8.49-3.14,11.76S256.4,109.52,256.57,107.73Z"/><path class="cls-6" d="M260.75,87.41,279.27,102v.13c-2.23-.83-1.33,8.84-2.78,11.95-1.17,2.53-12.53-1.57-17.54-4.39-.88-3.87-.32-10.35-.21-12.47C258.86,94.9,257.92,89.91,260.75,87.41Z"/><path class="cls-5" d="M259.7,88.6c.85-1.38,3.52-3.35,4.78-2.11,2.79,2.74,6.28,6.61,10.79,10.75a123.84,123.84,0,0,0,18,14.41,106.39,106.39,0,0,0,12.32,6.74l-.14.08c-3.13,1.73-23.15-14.12-25.85-16.16a.93.93,0,0,0-.71-.23,98,98,0,0,0-9.66-5.79C264.71,93.85,258.86,90,259.7,88.6Z"/><path class="cls-7" d="M258.18,108.31c1.15-12.13-.28-16.93,3.3-20.56s11.89-4.69,16.12-6.43,4.2-4.46,12.55-7,16,11.21,18.52,25.36-.83,17.22-3.82,18.87-22.09-13.47-24.67-15.42-1.54,8.11-3,11.23S258,110,258.18,108.31Z"/><path class="cls-8" d="M262.17,88.91l17.67,13.91V103c-2.13-.79-1.27,8.44-2.65,11.41-1.12,2.41-12-1.51-16.75-4.2-.83-3.69-.3-9.88-.19-11.9C260.36,96.06,259.47,91.3,262.17,88.91Z"/><path d="M261.17,90.05c.8-1.32,3.35-3.19,4.55-2,2.67,2.62,6,6.31,10.3,10.27A118.5,118.5,0,0,0,293.23,112,98.7,98.7,0,0,0,305,118.47l-.13.08c-3,1.65-22.09-13.47-24.67-15.42a.81.81,0,0,0-.67-.21,92.94,92.94,0,0,0-9.22-5.53C266,95.06,260.36,91.38,261.17,90.05Z"/><path class="cls-9" d="M249.65,173.05c-9.5-.11-14.44-2.54-14.67-7.24-.09-1.72-.18-3.56-.28-5.48-.13-2.61-.28-5.36-.41-8.15-.6-12.85-.94-26.75,1.06-32.36.19-.53.37-1,.54-1.54,2.57-7.59,5.07-12.16,26.45-17.86,8.6-2.29,18.71-4.45,28.48-6.09,5.17-.86,10.13-1.56,14.73-2.06,4.91-.54,9.38-.87,13.27-1,1.5-.05,3-.07,4.36-.05,7.62.08,13.08,1.13,16.21,3.12,3.57,2.26,5.37,14.3,5.54,20.25a44.76,44.76,0,0,1-3.69,19.53,30.72,30.72,0,0,1-5.49,8.21,29.73,29.73,0,0,1-6.94,5.45,39.44,39.44,0,0,1-9.79,4.29c-.73.21-1.42.42-2.17.7a16.18,16.18,0,0,0-2,.85c-1.06.54-1.47,1.46-2.06,2.91a7.38,7.38,0,0,1-3.16,4.22,44.65,44.65,0,0,1-6.41,2.41,262.92,262.92,0,0,1-36.13,8.36,111.89,111.89,0,0,1-17.48,1.51Z"/><path d="M323.17,92.64c6.85.08,12.36.94,15.47,2.9,2.65,1.68,4.69,12.18,4.89,19.11a43.06,43.06,0,0,1-3.56,18.9,29.47,29.47,0,0,1-5.24,7.84,28.45,28.45,0,0,1-6.62,5.2c-6.73,3.83-8.78,3.77-11.75,4.88a19.33,19.33,0,0,0-2.1.92c-3.1,1.58-2.32,5.53-5.26,7.16a43.22,43.22,0,0,1-6.15,2.29,263.78,263.78,0,0,1-35.92,8.32,110.91,110.91,0,0,1-17.26,1.48c-7.73-.08-13.09-1.7-13.29-5.89s-.46-8.8-.68-13.63c-.6-12.79-.94-26.47,1-31.83,2.64-7.4,2.64-12.28,26-18.51,8-2.13,18.07-4.34,28.35-6.06,4.91-.82,9.87-1.53,14.65-2,4.61-.51,9.05-.86,13.16-1,1.48,0,2.92-.06,4.31,0m0-2.81c-1.4,0-2.89,0-4.43,0-3.91.12-8.41.45-13.37,1-4.64.5-9.62,1.2-14.81,2.07-9.8,1.64-20,3.81-28.61,6.11-22,5.88-24.77,11-27.42,18.76-.17.5-.34,1-.53,1.53-2.08,5.82-1.78,19.25-1.14,32.9.13,2.8.27,5.55.41,8.17.1,1.91.19,3.74.27,5.46.28,5.57,5.68,8.45,16.07,8.57a113.38,113.38,0,0,0,17.71-1.52,265.81,265.81,0,0,0,36.35-8.41,47.4,47.4,0,0,0,6.65-2.51,8.79,8.79,0,0,0,3.79-4.93c.54-1.32.81-1.89,1.4-2.19a15.87,15.87,0,0,1,1.79-.78c.7-.27,1.34-.46,2.09-.67A41.49,41.49,0,0,0,329.5,149a31.55,31.55,0,0,0,7.28-5.72,32.19,32.19,0,0,0,5.74-8.59,45.41,45.41,0,0,0,3.81-20.15c-.1-3.76-1.47-18.41-6.19-21.4-3.4-2.16-8.94-3.25-16.94-3.34Z"/><path class="cls-10" d="M269.75,173.47c13.27-2,25.2-9.16,33.35-11.75a42.46,42.46,0,0,0,6.12-2.28c2.93-1.63,2.14-5.57,5.23-7.14a19.24,19.24,0,0,1,2.09-.92c3-1.1,5-1,11.7-4.86a27.89,27.89,0,0,0,6.58-5.18,29.06,29.06,0,0,0,5.21-7.83,43.07,43.07,0,0,0,3.52-18.87c-.21-6.92-2.26-17.42-4.91-19.1-3.72-2.37-10.92-3.14-19.72-2.88,3.91,34.44-51.67,67.37-59.77,68-9.26.75-18-16.26-23-8.8.23,4.83.49,9.55.7,13.62C237.22,172.4,253.93,175.86,269.75,173.47Z"/><path d="M312.7,103.16c1.58-7.53,22.1-9,25-4.2,2.61,4.3-4.9,18.91-9.19,20.26S311.53,108.73,312.7,103.16Z"/><path d="M270.15,118.18c-.64-4.09-3.16-7.09-5.64-6.7s-4,4-3.33,8.1,3.16,7.09,5.64,6.71S270.79,122.27,270.15,118.18Z"/><path class="cls-11" d="M268.5,117.18c-.25-1.58-1.19-2.75-2.11-2.6s-1.45,1.54-1.21,3.12,1.19,2.75,2.11,2.61S268.74,118.77,268.5,117.18Z"/><path d="M293.07,110.23c-.64-4.09-3.16-7.1-5.63-6.71s-4,4-3.33,8.1,3.16,7.1,5.63,6.71S293.71,114.32,293.07,110.23Z"/><path class="cls-11" d="M291.42,109.23c-.25-1.58-1.19-2.75-2.1-2.61s-1.46,1.54-1.21,3.12,1.18,2.75,2.1,2.61S291.66,110.81,291.42,109.23Z"/><path class="cls-5" d="M247.44,113c-9.67-7.15-13.66-8.92-18.79-8.07s-10.88,7.17-14.81,9.68-6.19.88-13.2,6.37,0,19.9,10.29,30.32,14.85,9.39,18,7.87,1.38-24.86,1.27-28.15,6.61,2.42,10.06,3S248.85,114.08,247.44,113Z"/><path class="cls-7" d="M248.49,115c-10.48-6-13.54-9.85-18.52-9s-10.56,7-14.37,9.39-6,.85-12.82,6.17,0,19.32,10,29.43,14.41,9.12,17.45,7.64,1.67-25.55,1.56-28.74,7.44,3.36,10.79,4S250,115.8,248.49,115Z"/><path class="cls-12" d="M230.52,107.16l1.2,22.21.11.08c.57-2.17,7.55,3.77,10.74,4.34,2.59.47,5.59-10.53,6.13-15.93-2.51-2.78-7.82-5.87-9.52-6.94C237.33,109.76,234,106.33,230.52,107.16Z"/><path d="M232,107c-1.53-.1-4.5.89-4.23,2.53.6,3.65,1.7,8.44,2.45,14.18a118.16,118.16,0,0,1,1.34,21.75,99.74,99.74,0,0,1-1.49,13.17l.14-.06c3-1.48,2.11-24.12,2-27.31a11.55,11.55,0,0,1-.23-2.1,91.21,91.21,0,0,1,.77-10.61C233.35,113.72,233.54,107.09,232,107Z"/><path class="cls-9" d="M277.87,108.34c1.42-6.24,6.84-9.7,8.88-10.87,5.27.23,6.06,1.55,6.23,2.11.41,1.38-1.63,2.7-5.75,6.73-6,5.81-7.61,8.82-8.87,8.26S277.4,110.4,277.87,108.34Z"/><path class="cls-9" d="M256.64,109.45c5.4-3.42,11.69-2,14-1.44,3.57,3.88,3.21,5.37,2.93,5.89-.69,1.27-3.06.77-8.82.71-8.33-.07-11.61.9-12.12-.39S254.85,110.59,256.64,109.45Z"/><path d="M328.57,128.61a38.22,38.22,0,0,0-.36-13.15.41.41,0,0,1,.81-.16,39,39,0,0,1,.37,13.37C329.31,129.19,328.49,129.14,328.57,128.61Z"/><path d="M259.94,110.81a35.78,35.78,0,0,1,5.37.34,8.5,8.5,0,0,0,3.69.07c1.76-.39,2-1,2.75-2.54.35-.77,1.53-.18,1.18.6-.77,1.69-1.73,3.36-3.74,3.65a10.3,10.3,0,0,1-3.22-.34,33,33,0,0,0-6-.46C259.17,112.14,259.08,110.82,259.94,110.81Z"/><path d="M288.72,100a35,35,0,0,0-3.35,3.65,8.7,8.7,0,0,1-2.39,2.41c-1.4.91-1.93.74-3.3.29-.68-.22-1.11.88-.43,1.11,1.5.49,3.11.85,4.6-.27a10.47,10.47,0,0,0,1.93-2.27,33.75,33.75,0,0,1,3.65-4.1C290,100.28,289.28,99.46,288.72,100Z"/><path d="M303.39,144.81c-.22-2.84,2.18-4.65,4.74-5.23,3.15-.72,6.4.37,7.49,3.58.34,1-1.27,1.31-1.61.32-1.22-3.58-9.34-3.2-9,1C305.09,145.54,303.48,145.87,303.39,144.81Z"/><path class="cls-13" d="M259.33,183.06a58.58,58.58,0,0,1-24.76-5.76c-2.32-1.11-2.58-9.17-2.29-10.43a1.59,1.59,0,0,1,1.57-1.38h.33l.33.16c7.41,3.7,16.16,5.63,26,5.74a103.21,103.21,0,0,0,38.67-7.65l.28-.12.43,0c1.8,0,2.75,2.83,3.23,5.19.42,2.05.78,5.64-1.51,6.65a4.28,4.28,0,0,1-1.77.26c-.71,0-1.59-.09-2.51-.16s-1.84-.16-2.6-.17a3.38,3.38,0,0,0-1.11.09l-1.67.62c-7.62,2.84-19.14,7.13-32.63,7Z"/><path d="M299.88,165c1.24,0,3.45,8.16,1.18,9.16a3.38,3.38,0,0,1-1.2.13c-1.39,0-3.53-.3-5.11-.32a4.79,4.79,0,0,0-1.61.17c-7.48,2.76-19.55,7.68-33.8,7.52A57,57,0,0,1,235.18,176c-1.29-.62-2.06-9.16-1.34-9.15h0c8.44,4.22,17.72,5.8,26.61,5.9A105.17,105.17,0,0,0,299.76,165l.12,0m0-2.8a3,3,0,0,0-1.29.26A102,102,0,0,1,260.54,170c-9.64-.11-18.18-2-25.4-5.6l-.58-.29-.69,0a3,3,0,0,0-3,2.47c-.24,1-.38,10.38,3.05,12a59.91,59.91,0,0,0,25.34,5.89c13.76.16,25.42-4.19,33.14-7.07l1.58-.59a4.69,4.69,0,0,1,.69,0c.71,0,1.62.08,2.5.16s1.83.15,2.61.16a5.59,5.59,0,0,0,2.36-.37c1.37-.61,3.49-2.48,2.32-8.22-.85-4.17-2.4-6.29-4.6-6.31Z"/><path class="cls-14" d="M334.33,102.31c-3.42-.34-6.8-2-9.51-2.31-4-.46-7,1.89-7.1,1.63s2.28-1.71,5.36-2.73c1-.34,9.44-3.05,12,.24.6.77,1.16,2.21.65,2.84C335.41,102.4,334.69,102.34,334.33,102.31Z"/><path class="cls-15" d="M298.82,229.69c-4.37.94-8.91,1.68-13.48,2.2-29.18,3.29-55.53-3.14-62.67-15.29a.68.68,0,0,1-.11-.32l-3.34-24.35a.88.88,0,0,1,.68-1H220a.87.87,0,0,1,1,.74l.05.38a13.89,13.89,0,0,0,4.5,7.91c6.28,6,18.5,10.08,33.52,11.29a127.35,127.35,0,0,0,24.52-.48c4.52-.51,9-1.24,13.31-2.17,3.69-.8,7.29-1.75,10.71-2.83,13.86-4.36,24.68-10.85,29.68-17.79a14.83,14.83,0,0,0,3.13-8.37l-.06-1.43a.86.86,0,0,1,.68-.88l.12,0a.87.87,0,0,1,.92.75v0a13,13,0,0,1,.07,1.53l1,23.09a1,1,0,0,1,0,.3C339.49,214.18,322.14,224.65,298.82,229.69Z"/><path d="M220.08,191.83l0,.38c0-.13,0-.26,0-.38m0,.38a14.77,14.77,0,0,0,4.77,8.42c6.46,6.14,18.82,10.3,34,11.53a129.73,129.73,0,0,0,24.69-.49c4.63-.53,9.12-1.26,13.4-2.19q5.64-1.22,10.78-2.84c14.1-4.44,25-11,30.12-18.11a15.71,15.71,0,0,0,3.29-8.89l1,23.12c-3.44,10.87-20.64,21.14-43.56,26.08a133.33,133.33,0,0,1-13.4,2.19c-29.41,3.32-55-3.19-61.83-14.86l-3.28-24m121-14.05h0v0m0,0a11.72,11.72,0,0,1,.06,1.45l-.06-1.45M219.72,190.14a1.71,1.71,0,0,0-1.35,1.89c0,.15,0,.29,0,.43l3.28,23.94a1.8,1.8,0,0,0,.22.64c3.59,6.1,12,11,23.54,13.86s25.67,3.46,40,1.84c4.6-.52,9.17-1.26,13.56-2.21,23.62-5.1,41.23-15.79,44.85-27.25a1.77,1.77,0,0,0,.08-.6l-1-23.06a14.17,14.17,0,0,0-.07-1.6,1.76,1.76,0,0,0-1.93-1.58l-.16,0a1.73,1.73,0,0,0-1.35,1.85l.06,1.34a14.09,14.09,0,0,1-3,7.86c-4.9,6.79-15.56,13.16-29.24,17.47-3.39,1.07-7,2-10.63,2.8A133.47,133.47,0,0,1,283.44,210a126.5,126.5,0,0,1-24.36.48c-14.83-1.19-26.85-5.22-33-11.05a13.08,13.08,0,0,1-4.25-7.42l-.05-.37a1.72,1.72,0,0,0-1.93-1.48l-.14,0Z"/><path d="M298.79,229.88c-4.38,1-8.9,1.68-13.43,2.2-14.23,1.6-28.34.95-39.74-1.83S226,222.64,222.5,216.7a1.2,1.2,0,0,1-.13-.36S219.05,192.09,219,192a.85.85,0,0,1,.67-1l.45-.07a.87.87,0,0,1,1,.74l.05.39a13.7,13.7,0,0,0,4.44,7.8c6.25,5.93,18.43,10,33.41,11.23a126.93,126.93,0,0,0,24.48-.48,133.45,133.45,0,0,0,13.29-2.17c3.67-.79,7.26-1.74,10.69-2.82,13.82-4.35,24.6-10.81,29.59-17.72a14.7,14.7,0,0,0,3.09-8.27l-.06-1.4,0-.16a.87.87,0,0,1,.68-.94h.08l.39,0a.86.86,0,0,1,1,.81v.23a12.74,12.74,0,0,1,.07,1.54l1,23.07a1.06,1.06,0,0,1,0,.31c-2.09,6.6-9,13.12-19.53,18.38A107.25,107.25,0,0,1,298.79,229.88Zm-74.36-14.07c6.93,11.41,32.4,17.37,60.7,14.17a131.8,131.8,0,0,0,13.21-2.16c22.58-4.87,39.35-14.75,42.8-25.21l-.68-16.16a22.34,22.34,0,0,1-1.67,2.69c-5.25,7.27-16.42,14-30.66,18.5-3.49,1.1-7.15,2.07-10.88,2.87a134.77,134.77,0,0,1-13.5,2.2,129.61,129.61,0,0,1-24.89.5c-15.46-1.25-28.1-5.55-34.69-11.82a21.64,21.64,0,0,1-2-2.2Z"/><path d="M219.89,191.85l.38,0,0,.38a14.51,14.51,0,0,0,4.71,8.31c6.39,6.07,18.75,10.25,33.93,11.48a128.72,128.72,0,0,0,24.65-.49c4.58-.52,9.05-1.25,13.37-2.18q5.56-1.2,10.77-2.84c14-4.41,24.94-11,30-18.05a15.43,15.43,0,0,0,3.25-8.76L341,178.2v0l0-.19.39-.05v.23a12.21,12.21,0,0,1,.06,1.48l1,23.13v0c-2,6.35-8.79,12.69-19.08,17.85a105.91,105.91,0,0,1-24.7,8.38c-4.33.93-8.81,1.66-13.35,2.18-14.13,1.59-28.13.95-39.43-1.81s-19.21-7.41-22.58-13.15l0,0v0L220,192.24l-.06-.39m78.64,36.82c22.55-4.87,40-15,43.48-25.94l-.87-20.64a17.44,17.44,0,0,1-3.05,6.55c-5.14,7.12-16.16,13.75-30.22,18.18q-5.22,1.65-10.81,2.85a134.91,134.91,0,0,1-13.41,2.19,129.43,129.43,0,0,1-24.72.49c-15.26-1.23-27.71-5.45-34.16-11.58a16.44,16.44,0,0,1-4.06-5.74l2.89,21.07c7,11.79,32.87,18,61.62,14.74,4.58-.52,9-1.25,13.31-2.17m-79-38.51a1.72,1.72,0,0,0-1.35,1.89l.06.45,3.27,23.93a1.84,1.84,0,0,0,.23.67l0,0c3.61,6.14,12,11.1,23.66,13.94,11.49,2.81,25.71,3.47,40,1.85A133.48,133.48,0,0,0,299,230.72a107.34,107.34,0,0,0,25.11-8.52c10.72-5.37,17.8-12.07,19.95-18.87a1.86,1.86,0,0,0,.09-.62l-1-23.08a12.09,12.09,0,0,0-.07-1.59v-.18a1.76,1.76,0,0,0-.61-1.23,1.7,1.7,0,0,0-1.31-.4l-.39,0-.18,0a1.73,1.73,0,0,0-1.35,1.87l0,.16.05,1.34a13.8,13.8,0,0,1-2.92,7.73c-4.88,6.76-15.5,13.11-29.15,17.41-3.4,1.07-7,2-10.61,2.8-4.26.92-8.7,1.64-13.2,2.15a126.09,126.09,0,0,1-24.32.48c-14.79-1.19-26.77-5.2-32.88-11a12.87,12.87,0,0,1-4.19-7.32l-.05-.35a1.73,1.73,0,0,0-1.93-1.48l-.38,0-.14,0Zm5.73,25.35-1.87-13.67.19.18c6.73,6.4,19.56,10.79,35.21,12a130.56,130.56,0,0,0,25.06-.5,136.85,136.85,0,0,0,13.58-2.21c3.75-.81,7.44-1.78,11-2.89,14.41-4.55,25.75-11.41,31.1-18.82l.22-.32.56,13.16c-3.43,10-20.28,19.78-42.11,24.49-4.27.92-8.69,1.64-13.13,2.14-13.71,1.55-27.35.95-38.39-1.69-10.58-2.53-18.15-6.75-21.38-11.92Z"/><path class="cls-16" d="M341.78,197.44l-.26,0-.06.17c-4.12,13-28,24.83-56.72,28.08s-54.63-2.95-61.55-14.72l-.1-.16-.31,0a2.69,2.69,0,0,1,.21.89c3.54,5.54,11.44,10.05,22.34,12.71,11.32,2.77,25.33,3.41,39.47,1.82s27.67-5.35,38.08-10.57c10.19-5.11,16.94-11.38,19.05-17.67C341.87,197.85,341.82,197.64,341.78,197.44Z"/><path class="cls-16" d="M284.84,226.57c-14.18,1.6-28.23,1-39.57-1.82-11-2.67-19-7.24-22.53-12.84l0-.07v-.07a2.07,2.07,0,0,0-.18-.78l-.15-.36.88-.1.18.32c6.87,11.69,32.64,17.82,61.28,14.59s52.39-15,56.48-27.88l.11-.36.7-.07.06.25c0,.2.09.4.14.59l0,.09,0,.08c-2.13,6.37-8.95,12.7-19.2,17.84C312.56,221.21,299,225,284.84,226.57Zm-.09-.56h0Zm.06,0h0Zm-.08,0h0Zm.1,0Zm-.12,0h0Zm45.76-15.08c-7.24,5-17.31,9.25-28.93,12.1a101.43,101.43,0,0,0,21.21-7.57A63.38,63.38,0,0,0,330.47,210.93ZM237.63,221.8a66.56,66.56,0,0,0,7.77,2.4,102.5,102.5,0,0,0,22.35,2.65C256.16,226.66,245.7,224.88,237.63,221.8Z"/><path class="cls-17" d="M341.15,178.06s0,.06,0,.1c.37,3.49-.8,7-3.23,10.37-5.15,7.14-16,13.67-30.12,18.11a133.5,133.5,0,0,1-48.87,5.52c-15.22-1.23-27.58-5.39-34-11.53a14.54,14.54,0,0,1-4.82-8.8s0-.07,0-.1c-1.67-14.78,24.08-29.83,57.52-33.6S339.48,163.28,341.15,178.06Z"/><path class="cls-18" d="M283.65,211.86a129.43,129.43,0,0,1-24.72.49c-15.26-1.23-27.71-5.45-34.16-11.58a14.73,14.73,0,0,1-4.88-8.92s0-.06,0-.1c-.82-7.23,4.76-14.73,15.69-21.11s25.8-10.87,42-12.7,31.74-.76,43.77,3,19.18,9.86,20,17.09c0,0,0,.07,0,.11.36,3.45-.73,7-3.26,10.49-5.14,7.12-16.15,13.75-30.22,18.18A129.52,129.52,0,0,1,283.65,211.86Zm-6-53.54c-33.28,3.75-59,18.73-57.35,33.39,0,0,0,.06,0,.08a14.38,14.38,0,0,0,4.76,8.7c6.39,6.07,18.75,10.25,33.93,11.48a133.35,133.35,0,0,0,48.79-5.51c14-4.41,24.94-11,30-18.05,2.47-3.42,3.54-6.86,3.19-10.23,0,0,0-.07,0-.1C339.31,163.43,310.89,154.56,277.61,158.32Z"/><path class="cls-19" d="M333.71,176.7a.19.19,0,0,1,0,.08c.3,2.89-.72,5.79-2.85,8.59-4.52,5.94-14,11.39-26.29,15.13a122.28,122.28,0,0,1-42.53,4.81c-13.23-.95-24-4.33-29.56-9.38a11.73,11.73,0,0,1-4.14-7.26.17.17,0,0,1,0-.07c-1.38-12.23,21.09-24.8,50.19-28.09S332.33,164.47,333.71,176.7Z"/><path class="cls-20" d="M283.55,205a118.37,118.37,0,0,1-21.51.53c-13.28-.95-24.09-4.38-29.67-9.43a11.84,11.84,0,0,1-4.21-7.37s0,0,0-.08c-.68-6,4.21-12.24,13.76-17.59s22.5-9.12,36.6-10.71,27.61-.78,38.06,2.29,16.66,8.07,17.33,14.07a.28.28,0,0,1,0,.09c.3,2.86-.67,5.8-2.89,8.72-4.51,5.92-14.12,11.46-26.39,15.2A118.65,118.65,0,0,1,283.55,205Zm-5-44.27c-29,3.27-51.39,15.77-50,27.87a.15.15,0,0,0,0,.07,11.48,11.48,0,0,0,4.08,7.15c5.52,5,16.25,8.39,29.44,9.33a122.23,122.23,0,0,0,42.46-4.8c12.19-3.71,21.74-9.2,26.2-15.06,2.16-2.84,3.1-5.69,2.81-8.46v-.08C332.16,164.62,307.5,157.43,278.55,160.7Z"/><path class="cls-21" d="M319.87,176.25v.06a9.75,9.75,0,0,1-2,6.7c-3.28,4.62-10.18,8.82-19.14,11.67a83.16,83.16,0,0,1-31.08,3.51c-9.68-.81-17.55-3.51-21.67-7.49a9.49,9.49,0,0,1-3.07-5.7.13.13,0,0,1,0-.06c-1.08-9.56,15.28-19.25,36.55-21.65S318.79,166.69,319.87,176.25Z"/><path class="cls-20" d="M283.35,198.1a81,81,0,0,1-15.75.28c-9.72-.81-17.66-3.56-21.78-7.54a9.65,9.65,0,0,1-3.13-5.81s0,0,0-.07c-.53-4.7,3-9.56,10-13.69s16.41-7,26.72-8.17,20.21-.46,27.88,2,12.26,6.43,12.79,11.13a.17.17,0,0,0,0,.07,10,10,0,0,1-2.08,6.82c-3.27,4.61-10.28,8.89-19.24,11.75A81.24,81.24,0,0,1,283.35,198.1Zm-3.91-34.63c-21.13,2.39-37.45,12-36.38,21.45a.09.09,0,0,0,0,.05,9.25,9.25,0,0,0,3,5.59c4.06,3.92,11.92,6.64,21.56,7.44a83,83,0,0,0,31-3.5c8.88-2.83,15.82-7.06,19-11.6a9.59,9.59,0,0,0,2-6.57.15.15,0,0,1,0-.06C318.61,166.83,300.56,161.09,279.44,163.47Z"/><path class="cls-22" d="M307.79,169.42l.73,6.43a5.68,5.68,0,0,1,0,1,7.21,7.21,0,0,1-1.52,3.65c-2.39,3.22-7.43,6.16-13.95,8.18a63.84,63.84,0,0,1-22.6,2.55c-7-.53-12.75-2.38-15.73-5.12a7,7,0,0,1-2-3,4.73,4.73,0,0,1-.22-1l-.73-6.43a6,6,0,0,0,1.38,3.06,8.63,8.63,0,0,0,.84.88,15.09,15.09,0,0,0,4.7,2.8,37.45,37.45,0,0,0,11,2.33,62.33,62.33,0,0,0,11.42-.26,60.67,60.67,0,0,0,11.18-2.3,37.63,37.63,0,0,0,10.23-4.72,16.1,16.1,0,0,0,3.73-3.45,9.17,9.17,0,0,0,.85-1.38A5.84,5.84,0,0,0,307.79,169.42Z"/><path class="cls-20" d="M281.89,191.17a61.41,61.41,0,0,1-11.45.26c-7.07-.53-12.84-2.42-15.83-5.17a7.08,7.08,0,0,1-2.05-3,5.28,5.28,0,0,1-.23-1l-.73-6.43.38,0a5.79,5.79,0,0,0,1.34,3,7.27,7.27,0,0,0,.82.86,15,15,0,0,0,4.64,2.77,37.88,37.88,0,0,0,11,2.31,61.53,61.53,0,0,0,11.38-.26,60.14,60.14,0,0,0,11.15-2.29,37.37,37.37,0,0,0,10.18-4.69,15.54,15.54,0,0,0,3.68-3.42,8.4,8.4,0,0,0,.83-1.34,5.67,5.67,0,0,0,.64-3.18l.38-.05.73,6.44a6.14,6.14,0,0,1,0,1,7.42,7.42,0,0,1-1.55,3.74c-2.4,3.23-7.53,6.23-14.06,8.25A60.89,60.89,0,0,1,281.89,191.17Zm-29.68-13.48.5,4.46a5.21,5.21,0,0,0,.21.95,6.85,6.85,0,0,0,1.94,2.88c2.93,2.7,8.62,4.55,15.61,5.07A63.42,63.42,0,0,0,293,188.5c6.46-2,11.51-4.94,13.86-8.1a7.06,7.06,0,0,0,1.48-3.56,5.24,5.24,0,0,0,0-1l-.5-4.46a7.06,7.06,0,0,1-.52,1.38,10.05,10.05,0,0,1-.87,1.4,16.09,16.09,0,0,1-3.77,3.5,38.25,38.25,0,0,1-10.28,4.75A63.9,63.9,0,0,1,269.72,185a38,38,0,0,1-11.08-2.34,15.39,15.39,0,0,1-4.76-2.84,9,9,0,0,1-.86-.9A6.52,6.52,0,0,1,252.21,177.69Z"/><path class="cls-23" d="M307.79,169.37v0a5.84,5.84,0,0,1-.65,3.28,9.17,9.17,0,0,1-.85,1.38,16.1,16.1,0,0,1-3.73,3.45,37.63,37.63,0,0,1-10.23,4.72,60.67,60.67,0,0,1-11.18,2.3,62.33,62.33,0,0,1-11.42.26,37.45,37.45,0,0,1-11-2.33,15.09,15.09,0,0,1-4.7-2.8,8.63,8.63,0,0,1-.84-.88,6,6,0,0,1-1.38-3.06v0a6.24,6.24,0,0,1,0-.86c.31-6.35,11.87-12.65,26.67-14.32s27.47,1.89,29.19,8A5,5,0,0,1,307.79,169.37Z"/><path class="cls-20" d="M281.17,184.74a62.3,62.3,0,0,1-11.45.26,38,38,0,0,1-11.08-2.34,15.39,15.39,0,0,1-4.76-2.84,9,9,0,0,1-.86-.9,6.19,6.19,0,0,1-1.42-3.16v0a6.68,6.68,0,0,1,0-.89c.16-3.15,3-6.37,8-9.07a58.54,58.54,0,0,1,38.4-4.34c5.48,1.51,9,4,9.83,7.06a6.09,6.09,0,0,1,.17.87v0a6.15,6.15,0,0,1-.67,3.4,10.05,10.05,0,0,1-.87,1.4,16.09,16.09,0,0,1-3.77,3.5,38.25,38.25,0,0,1-10.28,4.75A62.08,62.08,0,0,1,281.17,184.74Zm-2.72-24c-14.55,1.64-26.19,7.85-26.5,14.14a5.81,5.81,0,0,0,0,.83v0a5.79,5.79,0,0,0,1.34,3,7.27,7.27,0,0,0,.82.86,15,15,0,0,0,4.64,2.77,37.88,37.88,0,0,0,11,2.31,61.53,61.53,0,0,0,11.38-.26,60.14,60.14,0,0,0,11.15-2.29,37.37,37.37,0,0,0,10.18-4.69,15.54,15.54,0,0,0,3.68-3.42,8.4,8.4,0,0,0,.83-1.34,5.67,5.67,0,0,0,.64-3.18v0a5.66,5.66,0,0,0-.16-.82C305.74,162.53,293,159.07,278.45,160.71Z"/><path class="cls-23" d="M252.52,182.17a4.73,4.73,0,0,0,.22,1h-.11Z"/><path class="cls-20" d="M253,183.32l-.52.06-.14-1.19.38,0a5.21,5.21,0,0,0,.21.95Z"/><path class="cls-23" d="M251.69,174.85h.07a6.24,6.24,0,0,0,0,.86Z"/><path class="cls-20" d="M252,175.68l-.38,0-.12-1,.49-.06,0,.23A5.81,5.81,0,0,0,252,175.68Z"/><path class="cls-23" d="M307.69,168.52l.1.85a5,5,0,0,0-.17-.84Z"/><path class="cls-20" d="M308,169.35l-.38.05a5.66,5.66,0,0,0-.16-.82l-.06-.21.48-.06Z"/><path class="cls-23" d="M308.52,175.85l.11,1h-.1A5.68,5.68,0,0,0,308.52,175.85Z"/><path class="cls-20" d="M308.84,177l-.52,0,0-.23a5.24,5.24,0,0,0,0-1l.38,0Z"/><path class="cls-22" d="M300,164.77v0a5.32,5.32,0,0,1-1.12,3.67c-1.79,2.53-5.57,4.84-10.48,6.4a45.12,45.12,0,0,1-8.43,1.77,43.82,43.82,0,0,1-8.6.15c-5.31-.44-9.62-1.92-11.87-4.1a5.26,5.26,0,0,1-1.69-3.12v0c-.59-5.24,8.37-10.55,20-11.86S299.4,159.53,300,164.77Z"/><path class="cls-20" d="M280,176.82a44.18,44.18,0,0,1-8.65.16c-5.34-.45-9.71-2-12-4.16a5.41,5.41,0,0,1-1.74-3.23v0c-.29-2.61,1.66-5.3,5.51-7.59a42,42,0,0,1,30-3.38c4.26,1.36,6.77,3.56,7.07,6.17v0a5.49,5.49,0,0,1-1.15,3.79c-1.83,2.58-5.59,4.88-10.59,6.47A43.76,43.76,0,0,1,280,176.82Zm-2.15-19c-11.52,1.3-20.43,6.53-19.85,11.65v0a5,5,0,0,0,1.63,3c2.21,2.13,6.49,3.61,11.76,4a44,44,0,0,0,8.56-.15,44.68,44.68,0,0,0,8.39-1.76c4.85-1.55,8.63-3.85,10.39-6.33a5.14,5.14,0,0,0,1.08-3.54v0C299.22,159.66,289.37,156.55,277.84,157.86Z"/><path class="cls-24" d="M299.88,163.82v0a5.38,5.38,0,0,1-1.11,3.67c-1.8,2.53-5.58,4.83-10.49,6.39a43.47,43.47,0,0,1-8.42,1.77,44.74,44.74,0,0,1-8.61.16c-5.3-.45-9.61-1.93-11.87-4.11a5.19,5.19,0,0,1-1.68-3.12v0c-.59-5.24,8.38-10.55,20-11.87S299.29,158.58,299.88,163.82Z"/><path class="cls-20" d="M279.88,175.88a44.87,44.87,0,0,1-8.64.16c-5.35-.45-9.72-2-12-4.16a5.36,5.36,0,0,1-1.74-3.24v0c-.29-2.61,1.67-5.31,5.52-7.59a41.85,41.85,0,0,1,30-3.39c4.27,1.37,6.78,3.56,7.07,6.17v0a5.47,5.47,0,0,1-1.15,3.79c-1.83,2.58-5.58,4.87-10.58,6.47A44.8,44.8,0,0,1,279.88,175.88Zm-2.14-19c-11.53,1.3-20.44,6.53-19.86,11.65v0a5,5,0,0,0,1.63,3c2.21,2.14,6.5,3.62,11.76,4.06a44.15,44.15,0,0,0,8.57-.16,43,43,0,0,0,8.38-1.76c4.85-1.54,8.64-3.85,10.39-6.32a5.12,5.12,0,0,0,1.08-3.54v0C299.11,158.72,289.26,155.61,277.74,156.91Z"/><path class="cls-25" d="M291.38,168.29h0a1.4,1.4,0,0,1-.28.94,5.29,5.29,0,0,1-2.68,1.63,11.44,11.44,0,0,1-2.16.46,12.59,12.59,0,0,1-2.2,0,5.24,5.24,0,0,1-3-1.05,1.3,1.3,0,0,1-.43-.8h0c-.15-1.34,2.14-2.7,5.12-3S291.23,167,291.38,168.29Z"/><path class="cls-20" d="M286.28,171.52a12,12,0,0,1-2.23,0,5.29,5.29,0,0,1-3.15-1.11,1.48,1.48,0,0,1-.49-.91c-.17-1.47,2.15-2.9,5.28-3.25s5.71.52,5.88,2v0a1.52,1.52,0,0,1-.32,1.06,5.44,5.44,0,0,1-2.78,1.71A12.3,12.3,0,0,1,286.28,171.52Zm-.54-4.85c-2.82.31-5.09,1.61-4.95,2.82a1.13,1.13,0,0,0,.37.69,5,5,0,0,0,2.92,1,12.08,12.08,0,0,0,2.16,0,11.53,11.53,0,0,0,2.12-.45,5.07,5.07,0,0,0,2.58-1.56,1.14,1.14,0,0,0,.25-.81l.19,0-.19,0C291.05,167.1,288.56,166.35,285.74,166.67Z"/><polygon class="cls-25" points="282.98 165.18 280.45 161.44 298.3 160 301.14 163.13 300.52 164.35 300.01 163.26 282.98 165.18"/><path class="cls-20" d="M300.51,164.79l-.62-1.33-17,1.92-2.78-4.1,18.27-1.47,3,3.29Zm-17.43.19,17-1.93.4.87.39-.76-2.69-3-17.43,1.41Z"/><ellipse class="cls-26" cx="226.08" cy="201.3" rx="14.86" ry="24" transform="translate(-4.22 4.84) rotate(-1.21)"/><path d="M228.59,210.58a18.9,18.9,0,0,1,10.69-4.21c1.46-.11,1.39-2.39-.08-2.29A21.63,21.63,0,0,0,226.94,209C225.8,209.92,227.46,211.5,228.59,210.58Z"/><path d="M228.34,204a20.67,20.67,0,0,1,11.55-6.8c1.43-.3.77-2.49-.67-2.19a22.64,22.64,0,0,0-12.53,7.41C225.73,203.49,227.37,205.08,228.34,204Z"/><path d="M222.91,195.75c3.19-5.26,9.47-7,15.07-8.46,1.43-.37.77-2.56-.66-2.19-6.24,1.63-12.87,3.71-16.41,9.54C220.15,195.91,222.15,197,222.91,195.75Z"/><ellipse class="cls-26" cx="341.9" cy="184.96" rx="14.86" ry="24" transform="translate(-23.82 53.23) rotate(-8.6)"/><path d="M339.7,193.85A17.21,17.21,0,0,0,329.58,192a1,1,0,0,1-.26-2A19.67,19.67,0,0,1,341,192.22C342.1,192.83,340.83,194.46,339.7,193.85Z"/><path d="M338.39,185.41a18.14,18.14,0,0,0-11.05-2.67c-1.34.07-.9-1.69.42-1.76a20,20,0,0,1,12,2.92C340.73,184.52,339.36,186,338.39,185.41Z"/><path d="M340,175.46c-2.93-2.9-8-2.93-12.59-2.91-1.16,0-.8-1.55.36-1.56,5.08,0,10.49.18,13.74,3.39C342.2,175.08,340.69,176.15,340,175.46Z"/></svg>