<svg id="rip" xmlns="http://www.w3.org/2000/svg" viewBox="0 0 401.33 259.33"><defs><style>.cls-1,.cls-2{font-size:119.8px;}.cls-1,.cls-16,.cls-17,.cls-18,.cls-19,.cls-20,.cls-21,.cls-22,.cls-23,.cls-24,.cls-25,.cls-26,.cls-3,.cls-5,.cls-6{stroke:#000;}.cls-1,.cls-3{stroke-linecap:round;stroke-linejoin:round;stroke-width:8px;}.cls-1,.cls-2,.cls-3,.cls-4{font-family:Bangers-Regular, Bangers;}.cls-2,.cls-4{fill:#fff;}.cls-3,.cls-4{font-size:139.15px;}.cls-16,.cls-17,.cls-18,.cls-19,.cls-20,.cls-21,.cls-22,.cls-23,.cls-24,.cls-25,.cls-26,.cls-5,.cls-6{stroke-miterlimit:10;}.cls-26,.cls-5,.cls-6{stroke-width:2px;}.cls-6,.cls-8{opacity:0.39;}.cls-7{fill:#ad5110;}.cls-8{fill:#82320d;}.cls-9{fill:#d4701b;}.cls-10,.cls-14,.cls-26{fill:#fdfdfc;}.cls-11{fill:#f6f9f2;}.cls-12{fill:#984715;}.cls-13{fill:#00aa9d;}.cls-14{opacity:0.56;}.cls-15{fill:#8c8157;}.cls-16{stroke-width:0.25px;}.cls-17{fill:#bbae76;}.cls-19{fill:#887e56;}.cls-19,.cls-20,.cls-21,.cls-22,.cls-23,.cls-24,.cls-25{stroke-width:0.75px;}.cls-21{fill:#b3a265;}.cls-22{fill:#58644b;}.cls-23{fill:#75835c;}.cls-24{fill:#6a765b;}.cls-25{fill:#232023;}</style></defs><title>logo-about-game</title><text class="cls-1" transform="translate(190.19 35.66) rotate(-1.1) scale(0.98 1)"> <tspan x="-158.37" y="82.2">DEMINER</tspan></text><text class="cls-2" transform="translate(188.62 27.02) rotate(-1.1) scale(0.98 1)"> <tspan x="-158.37" y="82.2">DEMINER</tspan></text><text class="cls-3" transform="matrix(0.98, -0.03, 0.03, 1, 103.13, 42.23)"> <tspan x="-86.13" y="190.96">DOG</tspan></text><text class="cls-4" transform="matrix(0.98, -0.03, 0.03, 1, 99.44, 32.06)"> <tspan x="-86.13" y="190.96">DOG</tspan></text><path class="cls-5" d="M273.82,102.5c2.39-13.91,1.14-19.57,5.59-23.45s14.14-4.39,19.18-6,5.23-4.79,15.1-7,17.49,14.33,19.19,30.89-2.45,19.81-6.05,21.46-24.35-17.46-27.15-19.94-2.48,9.23-4.43,12.7S273.49,104.46,273.82,102.5Z"/><path class="cls-6" d="M280.11,80.45l19.2,17.6v.14c-2.39-1.09-2.2,9.64-4.05,12.94-1.5,2.69-13.68-2.77-19-6.29-.65-4.33.5-11.43.8-13.76C277.4,88.55,276.78,83,280.11,80.45Z"/><path class="cls-5" d="M278.85,81.68c1-1.46,4.16-3.4,5.44-1.94,2.86,3.25,6.38,7.81,11,12.75A137.16,137.16,0,0,0,314,109.85a116,116,0,0,0,13,8.44l-.16.08c-3.59,1.65-24.35-17.46-27.15-19.94a1,1,0,0,0-.76-.31,107.23,107.23,0,0,0-10.17-7.18C283.94,87.88,277.81,83.14,278.85,81.68Z"/><path class="cls-7" d="M275.55,103.27c2.27-13.28,1.09-18.68,5.33-22.39s13.49-4.18,18.3-5.74,5-4.58,14.41-6.68,16.69,13.67,18.31,29.47-2.34,18.9-5.77,20.48-23.23-16.67-25.91-19-2.37,8.81-4.22,12.12S275.23,105.13,275.55,103.27Z"/><path class="cls-8" d="M281.54,82.23,299.87,99v.15c-2.28-1-2.1,9.19-3.86,12.34-1.44,2.57-13.06-2.64-18.11-6-.62-4.14.48-10.91.77-13.13C279,90,278.37,84.63,281.54,82.23Z"/><path d="M280.35,83.4c1-1.39,4-3.25,5.19-1.85,2.72,3.1,6.08,7.44,10.5,12.16a130.51,130.51,0,0,0,17.82,16.57,110.22,110.22,0,0,0,12.42,8l-.15.08c-3.42,1.57-23.23-16.67-25.91-19a1,1,0,0,0-.73-.29,100.34,100.34,0,0,0-9.7-6.85C285.2,89.31,279.35,84.79,280.35,83.4Z"/><path class="cls-9" d="M260.8,173.9c-10.46-.9-15.7-4-15.57-9.18.05-1.91.1-3.94.15-6.06.07-2.89.14-5.93.22-9,.4-14.21,1.17-29.56,3.84-35.57l.72-1.66c3.46-8.14,6.59-13,30.62-17.49,9.67-1.82,21-3.36,31.89-4.35,5.77-.53,11.29-.89,16.41-1.06,5.45-.19,10.4-.19,14.69,0,1.66.07,3.27.17,4.82.31,8.39.72,14.31,2.33,17.6,4.77,3.75,2.79,4.74,16.21,4.44,22.78-.21,4.5-1.22,13.23-5.68,21.21a34.25,34.25,0,0,1-6.73,8.6,33.51,33.51,0,0,1-8.1,5.44A43.9,43.9,0,0,1,339,156.54c-.82.18-1.6.34-2.45.59a19.37,19.37,0,0,0-2.22.78c-1.21.51-1.74,1.49-2.51,3s-1.68,3.4-3.83,4.39a52,52,0,0,1-7.26,2.12,290.45,290.45,0,0,1-40.51,6.23,122.76,122.76,0,0,1-19.39.21Z"/><path d="M348.46,91.37c7.54.65,13.55,2,16.8,4.47,2.79,2.07,4.17,13.81,3.82,21.47a47.54,47.54,0,0,1-5.49,20.53,32.7,32.7,0,0,1-6.42,8.21,31.49,31.49,0,0,1-7.72,5.18c-7.73,3.66-10,3.43-13.36,4.41a22.44,22.44,0,0,0-2.38.84c-3.55,1.49-3,5.9-6.39,7.45a46,46,0,0,1-7,2,289.81,289.81,0,0,1-40.27,6.2,123.89,123.89,0,0,1-19.14.21c-8.51-.73-14.28-3-14.16-7.6s.22-9.73.37-15.07c.4-14.14,1.16-29.24,3.71-35,3.52-7.94,3.93-13.31,30.21-18.26,9-1.68,20.28-3.29,31.74-4.33,5.48-.5,11-.87,16.32-1,5.11-.18,10-.2,14.57,0,1.65.07,3.23.17,4.76.3m.27-3.09c-1.54-.13-3.19-.24-4.89-.31-4.32-.2-9.31-.2-14.82,0-5.15.17-10.7.53-16.49,1.06-10.94,1-22.31,2.55-32,4.37-24.76,4.66-28.2,10-31.77,18.42l-.7,1.63c-2.78,6.25-3.55,21.07-4,36.16-.08,3.09-.16,6.15-.22,9-.05,2.11-.1,4.14-.15,6-.16,6.16,5.56,9.78,17,10.77a126.05,126.05,0,0,0,19.65-.21A293.4,293.4,0,0,0,321.07,169a50,50,0,0,0,7.53-2.22,9.67,9.67,0,0,0,4.59-5.11c.7-1.42,1.05-2,1.72-2.3a18.89,18.89,0,0,1,2-.72c.79-.23,1.52-.38,2.35-.56a46,46,0,0,0,11.48-4,34.68,34.68,0,0,0,8.49-5.7,35.47,35.47,0,0,0,7-9,50.38,50.38,0,0,0,5.88-21.89c.19-4.15-.11-20.41-5.07-24.1-3.57-2.65-9.58-4.31-18.38-5.07Z"/><path class="cls-10" d="M282.92,176c14.79-1.12,28.52-8,37.71-10.19a46.84,46.84,0,0,0,6.94-2c3.36-1.55,2.82-6,6.36-7.44a19.49,19.49,0,0,1,2.37-.83c3.35-1,5.6-.74,13.3-4.39a31,31,0,0,0,7.68-5.17,32.39,32.39,0,0,0,6.39-8.2,47.63,47.63,0,0,0,5.43-20.5c.34-7.65-1.06-19.38-3.83-21.46-3.91-2.91-11.77-4.36-21.49-4.8,1.46,38.28-62.51,70-71.48,70-10.28.06-18.55-19.4-24.61-11.59-.14,5.34-.24,10.56-.35,15.06C247.16,172.17,265.28,177.36,282.92,176Z"/><path d="M336.05,102.1c2.37-8.16,25.1-8.1,27.9-2.57,2.52,5-7,20.44-11.8,21.57S334.3,108.14,336.05,102.1Z"/><path d="M287.92,115.14c-.36-4.56-2.89-8.08-5.65-7.86s-4.7,4.1-4.34,8.66,2.9,8.07,5.65,7.85S288.29,119.7,287.92,115.14Z"/><path class="cls-11" d="M286.18,113.9c-.14-1.76-1.08-3.13-2.1-3.05s-1.73,1.58-1.59,3.35,1.08,3.13,2.1,3S286.32,115.67,286.18,113.9Z"/><path d="M313.84,108.26c-.37-4.55-2.9-8.07-5.66-7.85s-4.7,4.09-4.33,8.65,2.89,8.08,5.65,7.86S314.2,112.82,313.84,108.26Z"/><path class="cls-11" d="M312.1,107c-.14-1.77-1.08-3.13-2.1-3s-1.73,1.58-1.59,3.34,1.08,3.13,2.1,3.05S312.24,108.79,312.1,107Z"/><path class="cls-5" d="M263.32,107.6c-10.06-8.68-14.31-11-20-10.44s-12.58,7-17.12,9.44-6.89.46-15.07,5.92-1.68,21.93,8.83,34.26,15.59,11.58,19.16,10.17,3.58-27.29,3.72-30.92,7.09,3.21,10.84,4.18S264.79,108.86,263.32,107.6Z"/><path class="cls-7" d="M264.32,109.8c-11-7.44-14.11-12-19.66-11.47s-12.21,6.79-16.62,9.16-6.69.44-14.63,5.74-1.62,21.29,8.58,33.25,15.12,11.24,18.59,9.87,4-28,4.09-31.55,7.92,4.33,11.57,5.26S265.87,110.85,264.32,109.8Z"/><path class="cls-12" d="M245.17,99.72l-.52,24.58.11.09c.81-2.35,8,4.78,11.48,5.67,2.82.73,7-11.15,8.08-17-2.55-3.27-8.14-7.12-9.92-8.43C252.46,103.15,249.06,99.09,245.17,99.72Z"/><path d="M246.82,99.66c-1.68-.23-5,.62-4.87,2.45.36,4.07,1.17,9.44,1.53,15.82a130.19,130.19,0,0,1-.33,24.08,110.21,110.21,0,0,1-2.72,14.39l.15-.05c3.47-1.38,4.33-26.41,4.46-29.94a13.61,13.61,0,0,1-.08-2.33,102.09,102.09,0,0,1,1.73-11.62C247.74,107.18,248.5,99.9,246.82,99.66Z"/><path class="cls-9" d="M297.24,104.93c2.08-6.76,8.34-10.13,10.69-11.24,5.78.69,6.55,2.2,6.69,2.83.34,1.56-2,2.84-6.89,6.94-7.05,5.92-9.11,9.09-10.47,8.38S296.55,107.16,297.24,104.93Z"/><path class="cls-9" d="M273.75,104.4c6.24-3.32,13.06-1.3,15.51-.43,3.62,4.56,3.09,6.18,2.74,6.72-.86,1.35-3.43.6-9.78.07-9.17-.78-12.87,0-13.32-1.44S271.69,105.5,273.75,104.4Z"/><path d="M351.44,131.46a42.25,42.25,0,0,0,.69-14.53.46.46,0,0,1,.91-.1,43.28,43.28,0,0,1-.7,14.75C352.21,132.15,351.31,132,351.44,131.46Z"/><path d="M277.28,106.17a39.18,39.18,0,0,1,5.89.82,9.41,9.41,0,0,0,4.06.38c2-.29,2.34-.93,3.24-2.57.45-.83,1.7-.07,1.25.75-1,1.8-2.18,3.57-4.42,3.72a11.46,11.46,0,0,1-3.52-.64,37.74,37.74,0,0,0-6.53-1C276.32,107.57,276.34,106.11,277.28,106.17Z"/><path d="M309.88,96.64a39.22,39.22,0,0,0-4,3.75,9.8,9.8,0,0,1-2.84,2.47c-1.61.88-2.19.65-3.66,0-.73-.3-1.29.88-.56,1.19,1.61.66,3.35,1.19,5.09.08a11.69,11.69,0,0,0,2.31-2.35,37.8,37.8,0,0,1,4.37-4.21A.61.61,0,1,0,309.88,96.64Z"/><path d="M322.36,147.23c0-3.15,2.78-4.95,5.65-5.38,3.53-.52,7,.94,8,4.57.29,1.12-1.51,1.33-1.8.21-1.05-4-10-4.29-10,.38C324.16,148.17,322.36,148.4,322.36,147.23Z"/><path class="cls-13" d="M270.64,185.74a64.7,64.7,0,0,1-26.8-8.39c-2.47-1.41-2.09-10.32-1.66-11.69a1.75,1.75,0,0,1,1.84-1.39l.35,0,.36.2c7.86,4.69,17.34,7.55,28.19,8.48a114.35,114.35,0,0,0,43.25-5.24l.32-.11H317c2,.17,2.8,3.35,3.14,6,.29,2.3.39,6.29-2.21,7.21a4.7,4.7,0,0,1-2,.13c-.78-.07-1.75-.22-2.75-.38s-2-.33-2.85-.4a4,4,0,0,0-1.24,0l-1.89.55c-8.63,2.5-21.67,6.28-36.53,5Z"/><path d="M316.82,169.19c1.37.12,3.12,9.27.54,10.19a3.61,3.61,0,0,1-1.33,0c-1.53-.13-3.87-.62-5.6-.77a5.31,5.31,0,0,0-1.79,0c-8.47,2.42-22.18,6.85-37.87,5.49A62.79,62.79,0,0,1,244.61,176c-1.37-.78-1.51-10.25-.72-10.18h.05c9,5.35,19.05,7.85,28.84,8.69a115.82,115.82,0,0,0,43.91-5.32.28.28,0,0,1,.13,0m.26-3.09a3.53,3.53,0,0,0-1.44.18,112.57,112.57,0,0,1-42.59,5.15c-10.61-.91-19.87-3.69-27.52-8.26l-.61-.37-.77-.08a3.32,3.32,0,0,0-3.45,2.48c-.35,1.1-1.28,11.41,2.37,13.5a66.18,66.18,0,0,0,27.44,8.58c15.14,1.31,28.35-2.52,37.1-5.05l1.79-.52a6.59,6.59,0,0,1,.76,0c.78.07,1.78.23,2.75.38s2,.32,2.85.4a6.17,6.17,0,0,0,2.63-.22c1.56-.55,4.06-2.44,3.24-8.86-.6-4.66-2.12-7.13-4.54-7.34h0Z"/><path class="cls-14" d="M360,103c-3.74-.66-7.33-2.76-10.29-3.33-4.33-.84-7.86,1.5-8,1.2s2.66-1.68,6.13-2.56c1.17-.29,10.66-2.58,13.23,1.26.6.9,1.1,2.53.48,3.18C361.14,103.14,360.35,103,360,103Z"/><path class="cls-15" d="M310.31,240.38a150.38,150.38,0,0,1-15,1.31c-32.42,1.22-60.94-8-67.8-22a1,1,0,0,1-.09-.37s-1.66-27-1.67-27.11a1,1,0,0,1,.83-1h.08a1,1,0,0,1,1,.89l0,.42a15.25,15.25,0,0,0,4.3,9.09c6.43,7.1,19.55,12.64,36,15.22A141.58,141.58,0,0,0,295,218.32c5-.19,10-.63,14.85-1.3,4.12-.57,8.17-1.32,12-2.22,15.63-3.67,28.09-9.93,34.18-17.16a16.43,16.43,0,0,0,4.14-9l0-1.59a.94.94,0,0,1,.82-.91h.13a1,1,0,0,1,.95.9v0a16.19,16.19,0,0,1-.06,1.7l-.83,25.52a.87.87,0,0,1-.06.32C356.41,226.66,336.42,236.76,310.31,240.38Z"/><path d="M226.67,192.16l0,.42c0-.14,0-.28,0-.42m0,.42a16.33,16.33,0,0,0,4.56,9.68c6.61,7.29,19.89,12.9,36.56,15.51a143,143,0,0,0,27.25,1.5c5.15-.19,10.15-.64,14.94-1.3,4.21-.59,8.26-1.34,12.12-2.24,15.9-3.74,28.42-10,34.69-17.48a17.31,17.31,0,0,0,4.36-9.52l-.83,25.56c-4.69,11.7-24.49,21.59-50.16,25.15-4.8.66-9.8,1.11-14.94,1.3-32.69,1.23-60.32-8.05-66.91-21.48l-1.64-26.68m134.53-5.49h0v0m0,0a12.17,12.17,0,0,1-.05,1.6l.05-1.6M226.4,190.27a1.91,1.91,0,0,0-1.64,2l0,.48,1.63,26.65a2.08,2.08,0,0,0,.19.73c3.45,7,12.26,13.13,24.8,17.21s28,5.93,43.9,5.34c5.11-.2,10.21-.64,15.13-1.32,26.45-3.67,46.73-14,51.67-26.33a1.85,1.85,0,0,0,.14-.65l.83-25.5a14.78,14.78,0,0,0,.05-1.76,1.93,1.93,0,0,0-.57-1.34,1.9,1.9,0,0,0-1.42-.56H361a1.91,1.91,0,0,0-1.65,1.93l-.05,1.48a15.44,15.44,0,0,1-3.91,8.41c-6,7.09-18.23,13.22-33.67,16.85-3.82.9-7.84,1.64-11.94,2.21-4.8.66-9.76,1.09-14.75,1.28a139.7,139.7,0,0,1-26.88-1.48c-16.25-2.54-29.17-8-35.45-14.91a14.41,14.41,0,0,1-4.06-8.52l0-.41a1.91,1.91,0,0,0-2-1.79l-.17,0Z"/><path d="M310.26,240.59c-4.91.68-9.95,1.12-15,1.31-15.81.6-31.31-1.28-43.64-5.3s-21-10-24.36-16.83a1,1,0,0,1-.11-.41l-1.67-27.15a1,1,0,0,1,.83-1l.5,0a1,1,0,0,1,1,.9l0,.42a15.1,15.1,0,0,0,4.25,9c6.4,7.06,19.47,12.58,35.88,15.15a141.26,141.26,0,0,0,27,1.49c5-.19,10-.63,14.82-1.29,4.1-.57,8.15-1.32,12-2.23,15.59-3.66,28-9.88,34.07-17.09a16.16,16.16,0,0,0,4.09-8.86l.05-1.54v-.18a1,1,0,0,1,.82-1h.1l.43,0a.94.94,0,0,1,.71.28.92.92,0,0,1,.28.7v.25a16.58,16.58,0,0,1-.06,1.7l-.83,25.51a.8.8,0,0,1-.07.34c-2.84,7.09-11,13.7-23,18.64A117.89,117.89,0,0,1,310.26,240.59ZM229.48,219c6.69,13.14,34.26,21.81,65.71,20.62,5-.18,9.94-.62,14.75-1.28,25.28-3.51,44.57-13,49.24-24.25l.58-17.87A23.87,23.87,0,0,1,357.7,199c-6.38,7.58-19.25,14.09-35.32,17.86-3.93.92-8,1.69-12.22,2.27-4.88.67-10,1.11-15.06,1.3a143.47,143.47,0,0,1-27.47-1.51c-16.92-2.65-30.5-8.44-37.25-15.88a22.76,22.76,0,0,1-2-2.6Z"/><path d="M226.46,192.17l.42,0,0,.42a16,16,0,0,0,4.5,9.54c6.54,7.22,19.82,12.85,36.44,15.45a141.52,141.52,0,0,0,27.21,1.5q7.63-.28,14.92-1.3c4.14-.57,8.19-1.32,12.1-2.24,15.78-3.7,28.39-10.05,34.58-17.4a17.11,17.11,0,0,0,4.31-9.39l.05-1.6v-.24l.44,0v.26a12.68,12.68,0,0,1-.05,1.63l-.83,25.57v0c-2.74,6.83-10.73,13.26-22.5,18.1a117.11,117.11,0,0,1-27.91,7.19c-4.85.67-9.84,1.11-14.89,1.3-15.7.59-31.08-1.28-43.31-5.25s-20.55-9.75-23.79-16.35l0,0v0l-1.64-26.67c0-.14,0-.29,0-.43m83.61,47.06c25.26-3.5,45.3-13.19,50.06-25l.74-22.81a19.16,19.16,0,0,1-3.9,7c-6.25,7.42-18.93,13.82-34.8,17.54-3.93.92-8,1.67-12.14,2.25-4.86.67-9.86,1.11-15,1.3a142.31,142.31,0,0,1-27.29-1.5c-16.71-2.62-30.09-8.3-36.69-15.58a18.16,18.16,0,0,1-4-6.66l1.44,23.46c6.7,13.56,34.73,22.53,66.69,21.33a146.48,146.48,0,0,0,14.84-1.3m-83.88-48.95a1.91,1.91,0,0,0-1.64,2l0,.5,1.63,26.63a2.29,2.29,0,0,0,.19.77l0,0c3.47,7.07,12.32,13.22,24.91,17.32,12.44,4.05,28,6,44,5.35,5.06-.19,10.13-.64,15.07-1.32a119.21,119.21,0,0,0,28.37-7.32c12.25-5,20.62-11.83,23.55-19.14a2.37,2.37,0,0,0,.15-.69l.83-25.51a14.61,14.61,0,0,0,0-1.75v-.21a1.91,1.91,0,0,0-2-1.95h-.44l-.19,0a1.9,1.9,0,0,0-1.64,1.94v.18l-.05,1.49a15.31,15.31,0,0,1-3.86,8.28c-5.93,7.05-18.16,13.16-33.56,16.77-3.83.9-7.85,1.65-11.92,2.21-4.77.66-9.73,1.09-14.73,1.28a140.15,140.15,0,0,1-26.84-1.47c-16.2-2.54-29.07-8-35.32-14.85a14.14,14.14,0,0,1-4-8.4l0-.4a1.9,1.9,0,0,0-2-1.79l-.42,0-.17,0Zm4.23,28.41-.94-15.22.2.21c6.89,7.6,20.67,13.5,37.8,16.18a143.78,143.78,0,0,0,27.66,1.53c5.14-.2,10.24-.64,15.15-1.32,4.2-.58,8.35-1.35,12.31-2.28,16.26-3.82,29.32-10.44,35.83-18.17l.28-.33-.47,14.54c-4.61,10.7-24,20.12-48.43,23.51a146.57,146.57,0,0,1-14.65,1.28c-15.24.57-30.22-1.21-42.17-5-11.44-3.66-19.44-8.94-22.57-14.89Z"/><path class="cls-16" d="M360.31,208.39H360l-.08.19c-5.61,14-32.87,25.06-64.82,26.26s-60-7.76-66.61-21.31l-.09-.18h-.35a2.77,2.77,0,0,1,.15,1c3.44,6.4,11.78,12,23.58,15.86,12.23,4,27.63,5.85,43.34,5.26s30.93-3.61,42.83-8.5c11.66-4.79,19.61-11.14,22.45-17.9C360.38,208.85,360.34,208.62,360.31,208.39Z"/><path class="cls-16" d="M295.16,235.79c-15.76.6-31.19-1.28-43.46-5.27-11.84-3.85-20.28-9.54-23.76-16l0-.08v-.08a2.66,2.66,0,0,0-.14-.88l-.14-.4,1,0,.18.37c6.6,13.44,34.49,22.33,66.32,21.13s59-12.15,64.54-26.05l.15-.38.78,0,0,.28c0,.22.07.45.11.67l0,.09,0,.09c-2.88,6.84-10.91,13.26-22.63,18.07C326.16,232.17,310.91,235.2,295.16,235.79Zm-.05-.63h0Zm.07,0h0Zm-.09,0h0Zm.11,0h0Zm-.14,0h0Zm51.67-12.85c-8.38,4.92-19.84,8.77-32.88,11a112.42,112.42,0,0,0,24-6.58A70,70,0,0,0,346.73,222.32Zm-103.2,4.31a69.2,69.2,0,0,0,8.37,3.29,113.12,113.12,0,0,0,24.4,4.77C263.55,233.53,252.17,230.69,243.53,226.63Z"/><path class="cls-17" d="M361.22,187v.1c.12,3.88-1.45,7.65-4.41,11.16-6.27,7.46-18.79,13.74-34.69,17.48a147.67,147.67,0,0,1-54.31,2c-16.67-2.61-29.95-8.22-36.56-15.51a16.11,16.11,0,0,1-4.58-10.1.41.41,0,0,1,0-.11c-.62-16.43,29-30.88,66.16-32.28S360.6,170.56,361.22,187Z"/><path class="cls-18" d="M295.07,219.48a142.31,142.31,0,0,1-27.29-1.5c-16.71-2.62-30.09-8.3-36.69-15.58a16.27,16.27,0,0,1-4.63-10.23.37.37,0,0,1,0-.11c-.3-8,6.46-15.84,19-22s29.33-9.85,47.33-10.53,35,1.79,48,6.94S361.13,179,361.43,187v.12c.12,3.84-1.38,7.64-4.46,11.29-6.25,7.42-18.93,13.82-34.8,17.54A142.71,142.71,0,0,1,295.07,219.48ZM292.83,160c-37,1.39-66.57,15.78-66,32.06a.31.31,0,0,0,0,.1,15.87,15.87,0,0,0,4.52,10c6.54,7.22,19.82,12.85,36.44,15.45a141.52,141.52,0,0,0,27.21,1.5,142.56,142.56,0,0,0,27-3.54c15.78-3.7,28.39-10.05,34.58-17.4,3-3.57,4.47-7.28,4.36-11V187C360.4,170.71,329.81,158.59,292.83,160Z"/><path class="cls-19" d="M353.14,184.87V185c.09,3.21-1.28,6.33-3.86,9.23-5.47,6.18-16.37,11.4-30.22,14.51a135.36,135.36,0,0,1-47.26,1.78c-14.5-2.13-26.05-6.75-31.8-12.77a13,13,0,0,1-4-8.34.28.28,0,0,1,0-.09c-.51-13.59,25.29-25.59,57.63-26.8S352.63,171.29,353.14,184.87Z"/><path class="cls-20" d="M295.52,211.88a130.73,130.73,0,0,1-23.75-1.19c-14.55-2.14-26.18-6.82-31.92-12.84a13.12,13.12,0,0,1-4-8.47.28.28,0,0,1,0-.09c-.25-6.66,5.65-13.14,16.62-18.24s25.54-8.19,41.21-8.78,30.5,1.42,41.76,5.66,17.69,10.27,17.94,16.93v.1c.09,3.19-1.22,6.34-3.91,9.37-5.45,6.16-16.51,11.47-30.33,14.57A130,130,0,0,1,295.52,211.88Zm-1.85-49.19c-32.17,1.21-57.93,13.13-57.43,26.58a.15.15,0,0,0,0,.07,12.7,12.7,0,0,0,3.91,8.22c5.67,6,17.22,10.59,31.67,12.71A135,135,0,0,0,319,208.49c13.73-3.08,24.71-8.35,30.11-14.44,2.61-2.94,3.89-6,3.8-9.09v-.08C352.42,171.43,325.84,161.48,293.67,162.69Z"/><path class="cls-21" d="M337.92,183.23v.07a10.83,10.83,0,0,1-2.8,7.22c-4,4.81-11.95,8.87-22.06,11.28a92.31,92.31,0,0,1-34.53,1.3c-10.61-1.69-19-5.32-23.26-10a10.52,10.52,0,0,1-2.92-6.53v-.07c-.4-10.62,18.43-19.95,42.06-20.84S337.52,172.61,337.92,183.23Z"/><path class="cls-20" d="M295.86,204.29a88.92,88.92,0,0,1-17.37-1c-10.64-1.7-19.17-5.39-23.38-10.12a10.74,10.74,0,0,1-3-6.66v-.07c-.2-5.22,4.11-10.29,12.13-14.27s18.67-6.36,30.13-6.79,22.31,1.17,30.55,4.51,13,8.09,13.18,13.32v.08a11,11,0,0,1-2.85,7.34c-4,4.81-12.06,8.95-22.17,11.35A88.64,88.64,0,0,1,295.86,204.29Zm-1.44-38.47c-23.48.88-42.26,10.13-41.86,20.63v.05a10.31,10.31,0,0,0,2.86,6.41c4.15,4.66,12.59,8.3,23.14,10A92.16,92.16,0,0,0,313,201.6c10-2.39,18-6.48,21.95-11.22a10.54,10.54,0,0,0,2.75-7.07v-.07C337.31,172.75,317.89,164.93,294.42,165.82Z"/><path class="cls-22" d="M325.17,174.71l.27,7.14a6,6,0,0,1-.07,1.12,8,8,0,0,1-2,3.9c-2.91,3.34-8.7,6.17-16.06,7.85a67.33,67.33,0,0,1-12.51,1.61,68.07,68.07,0,0,1-12.6-.66c-7.71-1.16-13.85-3.67-16.9-6.94a7.7,7.7,0,0,1-2-3.43,5.84,5.84,0,0,1-.16-1.1l-.27-7.15a6.54,6.54,0,0,0,1.26,3.48,9.2,9.2,0,0,0,.86,1.05,16.85,16.85,0,0,0,4.94,3.47,41.36,41.36,0,0,0,12,3.47,67.22,67.22,0,0,0,12.6.66,68.21,68.21,0,0,0,12.51-1.6,41.69,41.69,0,0,0,11.66-4.36,17.56,17.56,0,0,0,4.4-3.5,9.33,9.33,0,0,0,1.05-1.45A6.52,6.52,0,0,0,325.17,174.71Z"/><path class="cls-20" d="M294.84,196.54a67.78,67.78,0,0,1-12.64-.66c-7.76-1.17-14-3.72-17-7a7.85,7.85,0,0,1-2-3.52,5.61,5.61,0,0,1-.17-1.14l-.27-7.15.42,0a6.38,6.38,0,0,0,1.23,3.37,8.33,8.33,0,0,0,.83,1,16.7,16.7,0,0,0,4.89,3.42A41.22,41.22,0,0,0,282,188.31a70,70,0,0,0,25-.94,41.92,41.92,0,0,0,11.6-4.33,17.41,17.41,0,0,0,4.34-3.46,10.11,10.11,0,0,0,1-1.41,6.35,6.35,0,0,0,1-3.46h.42l.27,7.15a6.24,6.24,0,0,1-.07,1.15,8.15,8.15,0,0,1-2,4c-2.91,3.36-8.81,6.25-16.17,7.93A68.53,68.53,0,0,1,294.84,196.54Zm-31.61-17.31.19,5a5.55,5.55,0,0,0,.16,1.06,7.32,7.32,0,0,0,1.9,3.33c3,3.22,9.12,5.73,16.78,6.88a67.77,67.77,0,0,0,12.56.66,66.92,66.92,0,0,0,12.48-1.6c7.27-1.66,13.09-4.5,15.94-7.79a7.7,7.7,0,0,0,1.92-3.79,5.6,5.6,0,0,0,.07-1.08l-.18-5a7.89,7.89,0,0,1-.69,1.48,11,11,0,0,1-1.07,1.48,18.09,18.09,0,0,1-4.45,3.54,42,42,0,0,1-11.72,4.38,70.5,70.5,0,0,1-25.19.95,42,42,0,0,1-12-3.49,17.17,17.17,0,0,1-5-3.52,9.28,9.28,0,0,1-.87-1.07A8.4,8.4,0,0,1,263.23,179.23Z"/><path class="cls-23" d="M325.17,174.66v.05a6.52,6.52,0,0,1-1,3.56,9.33,9.33,0,0,1-1.05,1.45,17.56,17.56,0,0,1-4.4,3.5,41.69,41.69,0,0,1-11.66,4.36,68.21,68.21,0,0,1-12.51,1.6,67.22,67.22,0,0,1-12.6-.66,41.36,41.36,0,0,1-12-3.47,16.85,16.85,0,0,1-4.94-3.47,9.2,9.2,0,0,1-.86-1.05,6.54,6.54,0,0,1-1.26-3.48V177a6,6,0,0,1,0-.95c.87-7,14.13-13,30.57-13.57s30.12,4.35,31.51,11.24A5.88,5.88,0,0,1,325.17,174.66Z"/><path class="cls-20" d="M294.57,189.39a67.78,67.78,0,0,1-12.64-.66,42,42,0,0,1-12-3.49,17.17,17.17,0,0,1-5-3.52,9.28,9.28,0,0,1-.87-1.07,6.79,6.79,0,0,1-1.3-3.59V177a6.38,6.38,0,0,1,0-1c.43-3.46,3.83-6.78,9.57-9.34s13.25-4.12,21.21-4.42,15.58.7,21.47,2.81,9.56,5.18,10.25,8.59a6.39,6.39,0,0,1,.11,1v0a6.67,6.67,0,0,1-1,3.68,11,11,0,0,1-1.07,1.48,18.09,18.09,0,0,1-4.45,3.54,42,42,0,0,1-11.72,4.38A67.67,67.67,0,0,1,294.57,189.39Zm-1-26.7c-16.17.61-29.51,6.49-30.37,13.39a5.55,5.55,0,0,0,0,.91v0a6.38,6.38,0,0,0,1.23,3.37,8.33,8.33,0,0,0,.83,1,16.7,16.7,0,0,0,4.89,3.42A41.22,41.22,0,0,0,282,188.31a70,70,0,0,0,25-.94,41.92,41.92,0,0,0,11.6-4.33,17.41,17.41,0,0,0,4.34-3.46,10.11,10.11,0,0,0,1-1.41,6.35,6.35,0,0,0,1-3.46v0a5.39,5.39,0,0,0-.11-.91C323.48,166.94,309.73,162.08,293.56,162.69Z"/><path class="cls-23" d="M263.21,184.2a5.84,5.84,0,0,0,.16,1.1h-.12Z"/><path class="cls-20" d="M263.64,185.5l-.59,0L263,184.2h.42a5.55,5.55,0,0,0,.16,1.06Z"/><path class="cls-23" d="M262.9,176.06H263a6,6,0,0,0,0,.95Z"/><path class="cls-20" d="M263.15,177l-.42,0,0-1.16.53,0,0,.25A5.55,5.55,0,0,0,263.15,177Z"/><path class="cls-23" d="M325.14,173.71l0,.95a5.88,5.88,0,0,0-.11-.94Z"/><path class="cls-20" d="M325.38,174.65l-.42,0a5.39,5.39,0,0,0-.11-.91l-.05-.24.54,0Z"/><path class="cls-23" d="M325.44,181.85l.05,1.11h-.12A6,6,0,0,0,325.44,181.85Z"/><path class="cls-20" d="M325.7,183.17l-.58,0,0-.25a5.6,5.6,0,0,0,.07-1.08h.42Z"/><path class="cls-22" d="M317,168.94v0a5.92,5.92,0,0,1-1.54,4c-2.18,2.64-6.54,4.86-12.08,6.18a47.89,47.89,0,0,1-9.43,1.25,49,49,0,0,1-9.49-.53c-5.81-.93-10.44-2.92-12.75-5.51a5.77,5.77,0,0,1-1.6-3.58v0c-.22-5.83,10.1-10.94,23.05-11.43S316.74,163.12,317,168.94Z"/><path class="cls-20" d="M293.92,180.57a48,48,0,0,1-9.54-.54c-5.85-.93-10.54-3-12.87-5.57a6,6,0,0,1-1.65-3.71v0c-.11-2.9,2.27-5.71,6.7-7.91a46.31,46.31,0,0,1,33.33-1.25c4.58,1.86,7.17,4.48,7.28,7.38v0a6.08,6.08,0,0,1-1.58,4.08c-2.23,2.7-6.56,4.92-12.2,6.26A48.52,48.52,0,0,1,293.92,180.57Zm-.79-21.08c-12.81.48-23.06,5.51-22.85,11.21v0a5.6,5.6,0,0,0,1.55,3.46c2.26,2.54,6.86,4.52,12.62,5.44a47.85,47.85,0,0,0,9.45.53,48.47,48.47,0,0,0,9.39-1.24c5.47-1.3,9.83-3.53,12-6.11a5.67,5.67,0,0,0,1.49-3.82v0C316.53,163.25,305.94,159,293.13,159.49Z"/><path class="cls-24" d="M316.92,167.89v0a5.92,5.92,0,0,1-1.54,3.95c-2.18,2.64-6.54,4.86-12.08,6.18a50.49,50.49,0,0,1-18.92.71c-5.81-.92-10.44-2.91-12.75-5.5a5.77,5.77,0,0,1-1.6-3.58v0c-.22-5.82,10.1-10.93,23.05-11.42S316.7,162.07,316.92,167.89Z"/><path class="cls-20" d="M293.88,179.52a48.76,48.76,0,0,1-9.54-.54c-5.85-.93-10.54-3-12.86-5.57a6,6,0,0,1-1.66-3.71v0c-.11-2.9,2.27-5.71,6.7-7.91a46.31,46.31,0,0,1,33.33-1.25c4.58,1.86,7.17,4.48,7.28,7.38v.05a6.1,6.1,0,0,1-1.58,4.08c-2.23,2.69-6.56,4.91-12.2,6.26A48.52,48.52,0,0,1,293.88,179.52Zm-.79-21.08c-12.81.48-23.06,5.51-22.85,11.21v0a5.6,5.6,0,0,0,1.55,3.46c2.26,2.53,6.86,4.52,12.62,5.44a50.62,50.62,0,0,0,18.84-.71c5.47-1.3,9.83-3.53,12-6.11a5.69,5.69,0,0,0,1.49-3.82v0C316.49,162.2,305.9,158,293.09,158.44Z"/><path class="cls-25" d="M307.18,172.11h0a1.53,1.53,0,0,1-.39,1,5.75,5.75,0,0,1-3.09,1.58,11.9,11.9,0,0,1-2.41.32,12.67,12.67,0,0,1-2.43-.14,5.63,5.63,0,0,1-3.25-1.4,1.45,1.45,0,0,1-.41-.92h0c-.06-1.48,2.58-2.79,5.89-2.92S307.12,170.62,307.18,172.11Z"/><path class="cls-20" d="M301.3,175.24a12.44,12.44,0,0,1-2.47-.14,5.89,5.89,0,0,1-3.38-1.47,1.65,1.65,0,0,1-.46-1c-.06-1.64,2.61-3,6.09-3.15s6.25,1,6.31,2.67v0a1.7,1.7,0,0,1-.44,1.14,6,6,0,0,1-3.2,1.65A12.82,12.82,0,0,1,301.3,175.24Zm-.2-5.39c-3.14.12-5.74,1.36-5.69,2.71a1.28,1.28,0,0,0,.35.79,5.54,5.54,0,0,0,3.14,1.34,12.31,12.31,0,0,0,2.38.13,11.9,11.9,0,0,0,2.37-.31,5.76,5.76,0,0,0,3-1.51,1.34,1.34,0,0,0,.34-.87l.21,0H307C306.92,170.77,304.23,169.74,301.1,169.85Z"/><polygon class="cls-25" points="298.18 167.99 295.7 163.66 315.49 163.55 318.37 167.23 317.57 168.52 317.11 167.28 298.18 167.99"/><path class="cls-20" d="M317.53,169l-.57-1.51-18.9.72-2.72-4.76,20.25-.11,3,3.88Zm-19.23-1.22,18.95-.72.37,1,.49-.8-2.72-3.49-19.32.11Z"/><ellipse class="cls-26" cx="232.5" cy="203.09" rx="26.53" ry="16.42" transform="translate(17.24 424.37) rotate(-86.93)"/><path d="M234.49,213.52a21,21,0,0,1,12.13-3.75c1.62,0,1.74-2.52.1-2.52a23.83,23.83,0,0,0-13.91,4.39C231.47,212.57,233.18,214.44,234.49,213.52Z"/><path d="M234.76,206.21a22.86,22.86,0,0,1,13.29-6.54c1.61-.21,1.06-2.68-.55-2.46a25,25,0,0,0-14.42,7.12C231.93,205.48,233.61,207.36,234.76,206.21Z"/><path d="M229.46,196.72c4-5.54,11-6.93,17.31-8.08,1.6-.3,1-2.76-.55-2.47-7,1.28-14.49,3-18.87,9.16C226.4,196.66,228.52,198,229.46,196.72Z"/><ellipse class="cls-26" cx="361.47" cy="194.65" rx="16.42" ry="26.53" transform="translate(-13.63 27.77) rotate(-4.32)"/><path d="M358.32,204.27a19.13,19.13,0,0,0-11-2.91,1.11,1.11,0,0,1-.12-2.21,21.78,21.78,0,0,1,12.63,3.42C361,203.34,359.52,205,358.32,204.27Z"/><path d="M357.57,194.86a20.1,20.1,0,0,0-12-3.86c-1.47,0-.85-1.93.62-1.9a22,22,0,0,1,13,4.2C360.22,194.08,358.59,195.63,357.57,194.86Z"/><path d="M360.16,184c-3-3.44-8.62-3.9-13.64-4.25-1.28-.09-.75-1.78.52-1.69,5.6.39,11.55,1.06,14.86,4.87C362.62,183.79,360.87,184.85,360.16,184Z"/></svg>